<svg width="40" height="40" viewBox="0 0 40 40" fill="none" xmlns="http://www.w3.org/2000/svg">
<path d="M35.4166 30.7829L32.6666 31.4329C32.0499 31.5829 31.5666 32.0495 31.4332 32.6662L30.8499 35.1162C30.5332 36.4495 28.8332 36.8662 27.9499 35.8162L22.9666 30.0829C22.5666 29.6162 22.7832 28.8829 23.3832 28.7329C26.3332 28.0162 28.9832 26.3662 30.9332 24.0162C31.2499 23.6329 31.8166 23.5829 32.1666 23.9329L35.8666 27.6329C37.1332 28.8995 36.6832 30.4829 35.4166 30.7829Z" fill="#31FFDA"/>
<path d="M4.50003 30.7829L7.25003 31.4329C7.86669 31.5829 8.35003 32.0495 8.48336 32.6662L9.06669 35.1162C9.38336 36.4495 11.0834 36.8662 11.9667 35.8162L16.95 30.0829C17.35 29.6162 17.1334 28.8829 16.5334 28.7329C13.5834 28.0162 10.9334 26.3662 8.98336 24.0162C8.66669 23.6329 8.10003 23.5829 7.75003 23.9329L4.05003 27.6329C2.78336 28.8995 3.23336 30.4829 4.50003 30.7829Z" fill="#31FFDA"/>
<path d="M19.9999 3.33398C13.5499 3.33398 8.33325 8.55065 8.33325 15.0007C8.33325 17.4173 9.04992 19.634 10.2833 21.484C12.0833 24.1507 14.9333 26.034 18.2499 26.5173C18.8166 26.6173 19.3999 26.6673 19.9999 26.6673C20.5999 26.6673 21.1833 26.6173 21.7499 26.5173C25.0666 26.034 27.9166 24.1507 29.7166 21.484C30.9499 19.634 31.6666 17.4173 31.6666 15.0007C31.6666 8.55065 26.4499 3.33398 19.9999 3.33398ZM25.0999 14.634L23.7166 16.0173C23.4833 16.2507 23.3499 16.7007 23.4333 17.034L23.8333 18.7507C24.1499 20.1007 23.4333 20.634 22.2333 19.9173L20.5666 18.934C20.2666 18.7507 19.7666 18.7507 19.4666 18.934L17.7999 19.9173C16.5999 20.6173 15.8833 20.1007 16.1999 18.7507L16.5999 17.034C16.6666 16.7173 16.5499 16.2507 16.3166 16.0173L14.8999 14.634C14.0833 13.8173 14.3499 13.0007 15.4833 12.8173L17.2666 12.5173C17.5666 12.4673 17.9166 12.2007 18.0499 11.934L19.0333 9.96732C19.5666 8.90065 20.4333 8.90065 20.9666 9.96732L21.9499 11.934C22.0833 12.2007 22.4333 12.4673 22.7499 12.5173L24.5333 12.8173C25.6499 13.0007 25.9166 13.8173 25.0999 14.634Z" fill="#31FFDA"/>
</svg>
