<svg width="40" height="41" viewBox="0 0 40 41" fill="none" xmlns="http://www.w3.org/2000/svg">
<rect y="0.77002" width="40" height="40" rx="5" fill="#FDDAD2"/>
<g clip-path="url(#clip0_2434_56018)">
<path fill-rule="evenodd" clip-rule="evenodd" d="M20.7475 9.3219C22.3972 10.4038 24.176 11.2746 26.0424 11.9139C27.4273 12.3956 28.895 12.5933 30.3579 12.4952L31.8756 12.3572L31.9502 13.8817C32.2284 19.4887 31.3237 24.3606 29.4261 28.2057C27.4515 32.2023 24.4162 35.0906 20.5191 36.5585H19.5058C15.6947 35.1675 12.6842 32.3584 10.6848 28.3097C8.82103 24.5077 7.86203 19.5995 8.01583 13.746L8.05428 12.2419L9.55159 12.3188C11.1791 12.4244 12.8128 12.257 14.3851 11.8235C16.0874 11.3273 17.6768 10.5045 19.0647 9.40106L19.8767 8.77002L20.7475 9.3219Z" fill="#FF6842"/>
<path fill-rule="evenodd" clip-rule="evenodd" d="M19.9627 10.5591C23.8937 13.0471 27.4425 14.2277 30.4914 13.9518C31.0229 24.7157 27.0489 32.5393 20.0034 35.1901C13.2021 32.7067 9.1784 25.1568 9.47696 13.7867C13.0529 13.9721 16.5632 13.2009 19.9627 10.5591Z" fill="white"/>
<path fill-rule="evenodd" clip-rule="evenodd" d="M19.9695 12.459C23.2423 14.5331 26.1985 15.5147 28.7362 15.284C29.1886 24.2475 25.8683 31.0782 20.0034 33.2879C14.3331 31.2206 10.9856 24.6162 11.2344 15.1483C14.2132 15.3043 17.1377 14.6597 19.9695 12.459Z" fill="#FF6842"/>
<path fill-rule="evenodd" clip-rule="evenodd" d="M16.3981 20.018H17.0472V19.5656C17.045 18.7616 17.3548 17.9882 17.9112 17.4079C18.1799 17.1217 18.5043 16.8935 18.8645 16.7376C19.2248 16.5817 19.6131 16.5012 20.0057 16.5012C20.3982 16.5012 20.7865 16.5817 21.1468 16.7376C21.507 16.8935 21.8314 17.1217 22.1001 17.4079C22.6557 17.9887 22.9653 18.7618 22.9641 19.5656V20.018H23.6064C23.7344 20.018 23.8572 20.0687 23.9479 20.159C24.0386 20.2492 24.0899 20.3718 24.0905 20.4997V26.5863C24.0899 26.7142 24.0386 26.8368 23.9479 26.9271C23.8572 27.0173 23.7344 27.068 23.6064 27.068H16.3981C16.2703 27.068 16.1478 27.0173 16.0574 26.9269C15.9671 26.8366 15.9163 26.714 15.9163 26.5863V20.4997C15.9163 20.4365 15.9288 20.3738 15.953 20.3154C15.9772 20.2569 16.0127 20.2038 16.0574 20.1591C16.1022 20.1144 16.1553 20.0789 16.2137 20.0547C16.2722 20.0304 16.3348 20.018 16.3981 20.018ZM19.0286 23.4469C19.1501 23.5487 19.2642 23.6591 19.3701 23.7771C19.6929 23.2605 20.0503 22.7663 20.4399 22.2979C21.4984 21.0177 21.0189 21.2642 22.4891 21.2642L22.2833 21.4904C21.7849 22.0577 21.3312 22.6626 20.9262 23.2999C20.4149 24.0345 19.9504 24.8005 19.5352 25.5933L19.4085 25.8399L19.2909 25.5888C19.0828 25.1362 18.82 24.7108 18.5083 24.3222C18.227 23.9694 17.8911 23.664 17.5131 23.4175C17.7054 22.7887 18.6169 23.1099 19.024 23.4559L19.0286 23.4469ZM17.9519 20.018H22.0435V19.5656C22.0449 18.9991 21.8278 18.4539 21.4374 18.0434C21.2534 17.8459 21.0308 17.6883 20.7833 17.5806C20.5358 17.4729 20.2688 17.4173 19.9989 17.4173C19.729 17.4173 19.4619 17.4729 19.2144 17.5806C18.9669 17.6883 18.7443 17.8459 18.5604 18.0434C18.1686 18.4541 17.9506 19.0003 17.9519 19.5679V20.0202V20.018Z" fill="white"/>
</g>
<defs>
<clipPath id="clip0_2434_56018">
<rect width="24" height="27.793" fill="white" transform="translate(8 8.77002)"/>
</clipPath>
</defs>
</svg>
