<svg width="40" height="41" viewBox="0 0 40 41" fill="none" xmlns="http://www.w3.org/2000/svg">
<rect y="0.77002" width="40" height="40" rx="5" fill="#FDDAD2"/>
<g clip-path="url(#clip0_2434_56046)">
<path fill-rule="evenodd" clip-rule="evenodd" d="M20.1784 14.8561C20.7047 13.6442 21.2865 12.4881 21.9921 11.5183C23.3092 9.70831 26.5338 7.52464 28.5056 9.63931C30.4606 11.7358 28.4079 14.0392 25.9731 14.8561H30.4187C30.8543 14.8561 31.25 15.0339 31.5361 15.32C31.8222 15.606 32 16.0018 32 16.4374V18.7038C32 19.137 31.8222 19.5313 31.5361 19.8177L31.5343 19.8194L31.5361 19.8212C31.2921 20.0651 30.9685 20.2304 30.6082 20.2737V30.9626C30.6082 31.4206 30.4199 31.8389 30.1162 32.1443L30.1108 32.1496C29.8057 32.4523 29.3882 32.6398 28.9311 32.6398H11.0951C10.6329 32.6398 10.2133 32.4512 9.90987 32.1478C9.88709 32.125 9.86558 32.1009 9.84542 32.0758C9.57973 31.7779 9.41783 31.3871 9.41783 30.9626V20.2766C9.04705 20.2383 8.71377 20.071 8.46387 19.8212C8.44037 19.7976 8.41818 19.7728 8.39741 19.7468C8.15023 19.4666 8 19.1008 8 18.7038V16.4374C8 16.0057 8.17752 15.6114 8.46387 15.3234L8.46922 15.3181C8.75694 15.0328 9.15045 14.8561 9.58128 14.8561H14.099C11.6642 14.0392 9.61147 11.7358 11.5664 9.63931C13.5383 7.52464 16.7629 9.70831 18.0799 11.5183C18.7855 12.4881 19.3673 13.6442 19.8937 14.8561H20.1784ZM23.9134 14.8561C29.5671 12.7746 27.9599 8.77119 24.7803 10.5839C24.0693 10.9893 23.4684 11.7504 22.9303 12.5086C22.3385 13.3428 21.8207 14.2261 21.4779 14.8561H23.9134ZM16.1587 14.8561H18.594C18.2511 14.2261 17.7336 13.3428 17.1417 12.5086C16.6035 11.7504 16.0028 10.9893 15.2916 10.5839C12.1121 8.77119 10.505 12.7746 16.1587 14.8561Z" fill="#FF6842"/>
<path fill-rule="evenodd" clip-rule="evenodd" d="M9.87587 15.7399H30.1241L30.1331 15.74H30.4187C30.8023 15.74 31.1161 16.054 31.1161 16.4373V18.7037C31.1161 19.0871 30.8022 19.4011 30.4187 19.4011H30.0189V19.408L30.0174 19.4077L30.0158 19.4075L30.0144 19.4071L30.0128 19.4068L30.0113 19.4066L30.0097 19.4062L30.0092 19.4061L30.0082 19.406L30.0067 19.4058L30.0052 19.4054L30.0036 19.4053L30.002 19.405L30.0005 19.4047L29.9989 19.4045L29.9973 19.4042L29.9964 19.404H29.9958L29.9942 19.4038L29.9927 19.4036L29.9911 19.4033L29.9896 19.4032L29.988 19.4029L29.9865 19.4027L29.9849 19.4024L29.9836 19.4022H29.9833L29.9818 19.402L29.9802 19.4019L29.9786 19.4017L29.9771 19.4015L29.9755 19.4013L29.9738 19.4011L29.9723 19.401L29.9708 19.4008H29.9706L29.9692 19.4007L29.9676 19.4005L29.966 19.4003L29.9644 19.4002L29.9613 19.3999L29.9597 19.3998L29.9581 19.3997H29.9576L29.9565 19.3995L29.9549 19.3994L29.9533 19.3994L29.9517 19.3992L29.9501 19.3991L29.9485 19.399L29.9469 19.3989L29.9453 19.3988H29.9437L29.9421 19.3986L29.9406 19.3986H29.9389L29.9373 19.3985H29.9356L29.9341 19.3983H29.9312L29.9309 19.3982H29.9261L29.9244 19.3981H9.98255L9.97899 19.3982H9.97543L9.97454 19.3983H9.97201L9.97018 19.3985H9.96844L9.96676 19.3986H9.96497L9.96319 19.3986L9.96151 19.3988H9.96127L9.95972 19.3989L9.95794 19.399L9.9563 19.3991L9.95447 19.3992L9.95283 19.3994L9.95105 19.3994L9.94937 19.3995L9.94815 19.3997H9.94758L9.94594 19.3998L9.94247 19.4001L9.94069 19.4002L9.93901 19.4005L9.93722 19.4006L9.93558 19.4008H9.93512L9.9338 19.4009L9.93212 19.4011H9.58126C9.19763 19.4011 8.88385 19.0874 8.88385 18.7037V16.4373C8.88385 16.0537 9.19763 15.74 9.58126 15.74H9.86687L9.87587 15.7399ZM29.7243 20.4292V30.9625C29.7243 31.3989 29.3674 31.7559 28.9311 31.7559H11.095C10.6587 31.7559 10.3017 31.3989 10.3017 30.9625V20.4292H29.7243Z" fill="#FECE00"/>
<path d="M18.1048 15.1292H21.8952C22.2191 15.1292 22.4817 15.3945 22.4817 15.7217V31.7581C22.4817 32.0852 22.2191 32.3505 21.8952 32.3505H18.1048C17.7809 32.3505 17.5182 32.0852 17.5182 31.7581V15.7217C17.5182 15.3945 17.7809 15.1292 18.1048 15.1292Z" fill="#FF6842"/>
<path fill-rule="evenodd" clip-rule="evenodd" d="M18.1049 15.7217H21.8952V31.7581H18.1049V15.7217Z" fill="#FF6842"/>
<path fill-rule="evenodd" clip-rule="evenodd" d="M20 22.4235L20.4078 23.1181L21.1657 23.3089L20.6598 23.9289L20.7204 24.7414L19.9999 24.43L19.2796 24.7414L19.3402 23.9288L18.8343 23.3089L19.5923 23.1181L20 22.4235ZM19.9999 16.752L20.4078 17.4465L21.1656 17.6373L20.6596 18.2574L20.7203 19.0699L19.9999 18.7585L19.2794 19.0699L19.3401 18.2573L18.8342 17.6373L19.5922 17.4465L19.9999 16.752ZM20 28.0951L20.4078 28.7897L21.1657 28.9804L20.6598 29.6005L20.7204 30.4129L19.9999 30.1016L19.2796 30.4129L19.3402 29.6004L18.8343 28.9804L19.5923 28.7897L20 28.0951Z" fill="white"/>
</g>
<defs>
<clipPath id="clip0_2434_56046">
<rect width="24" height="23.8698" fill="white" transform="translate(8 8.77002)"/>
</clipPath>
</defs>
</svg>
