<svg width="40" height="41" viewBox="0 0 40 41" fill="none" xmlns="http://www.w3.org/2000/svg">
<rect y="0.77002" width="40" height="40" rx="5" fill="#FDDAD2"/>
<g clip-path="url(#clip0_2434_56029)">
<path fill-rule="evenodd" clip-rule="evenodd" d="M19.9863 10.3794L23.709 8.77002L25.75 12.2446L29.709 13.1294L29.3184 17.1392L32 20.1821L29.3281 23.1978L29.709 27.2368L25.7734 28.106L23.709 31.5962L20.0137 29.9849L16.291 31.5962L14.25 28.1216L10.291 27.2368L10.6816 23.2251L8 20.1821L10.6719 17.1665L10.291 13.1294L14.2266 12.2603L16.291 8.77002L19.9863 10.3794Z" fill="#FF6842"/>
<path d="M15.4062 21.4653C14.2207 20.1899 16.041 18.2895 17.3594 19.4927C17.8242 19.9165 18.5 20.5356 18.9687 20.9556L22.582 16.5161C23.8398 15.2153 25.8262 17.1255 24.584 18.4341L20.0449 23.8481C19.7967 24.1104 19.4562 24.2659 19.0955 24.2819C18.7347 24.298 18.3819 24.1732 18.1113 23.9341C17.3418 23.2016 16.2129 22.1489 15.4062 21.4653Z" fill="white"/>
</g>
<defs>
<clipPath id="clip0_2434_56029">
<rect width="24" height="22.8262" fill="white" transform="translate(8 8.77002)"/>
</clipPath>
</defs>
</svg>
