<svg width="40" height="41" viewBox="0 0 40 41" fill="none" xmlns="http://www.w3.org/2000/svg">
<rect y="0.77002" width="40" height="40" rx="5" fill="#FDDAD2"/>
<g clip-path="url(#clip0_2434_56038)">
<path d="M8.64238 17.0295L9.75571 17.2052C10.351 14.9329 11.6376 12.9305 13.3843 11.4486C15.2424 9.87239 17.6238 8.88191 20.25 8.77905C23.3676 8.6562 26.2419 9.81096 28.3676 11.7757C30.4924 13.7405 31.8686 16.5152 31.991 19.6324C32.0367 20.8033 31.9048 21.9362 31.6195 23.0029C31.406 23.8003 31.105 24.5716 30.7219 25.3029L30.6943 25.2581C30.4183 24.8211 30.0298 24.4665 29.5695 24.2314C29.3623 24.1257 29.1433 24.0446 28.9171 23.99C29.1529 23.4943 29.3457 22.9743 29.49 22.4338C29.7268 21.5491 29.8289 20.6337 29.7929 19.7186C29.6943 17.2048 28.5867 14.9691 26.8762 13.3876C25.1657 11.8067 22.8505 10.8781 20.3362 10.9771C18.2229 11.06 16.3048 11.8586 14.8067 13.1295C13.4533 14.2776 12.4433 15.811 11.9414 17.5505L12.8357 17.6914C13.1395 17.7386 13.3481 18.0233 13.301 18.3271C13.2805 18.46 13.2143 18.5752 13.121 18.6581L10.6219 20.8833C10.3919 21.0881 10.0386 21.0676 9.83333 20.8371C9.79857 20.7986 9.77048 20.7557 9.74857 20.7114L8.07667 17.8619C7.92095 17.5967 8.01 17.2552 8.27524 17.0995C8.39048 17.0319 8.52 17.011 8.64238 17.0295ZM19.771 23.2676C19.649 23.2586 19.5738 23.2462 19.4838 23.2319L18.98 23.1595L18.669 23.1071C18.5681 23.0895 18.4676 23.0691 18.3681 23.0472C18.2624 23.0238 18.1648 22.9995 18.0771 22.9762L17.959 22.9448V20.9981L18.5095 21.0433L18.9133 21.0671L19.3376 21.0857L19.7667 21.0995L20.1843 21.1071L20.5719 21.1091C20.69 21.1091 20.7933 21.1052 20.8819 21.0971C20.9729 21.0891 21.0543 21.0767 21.1267 21.06C21.1924 21.0457 21.25 21.0257 21.2986 21.0024C21.3405 20.9824 21.3752 20.9581 21.4024 20.931C21.4252 20.9081 21.4429 20.881 21.4543 20.85C21.4667 20.8143 21.4733 20.7714 21.4733 20.7224V20.5938C21.4733 20.491 21.4405 20.4162 21.3748 20.3695C21.3343 20.341 21.289 20.3186 21.241 20.3043C21.1919 20.2891 21.1367 20.2819 21.0757 20.2819H20.5081C20.08 20.2819 19.701 20.2338 19.3705 20.1381C19.0343 20.0405 18.7505 19.8933 18.519 19.6971C18.2829 19.4957 18.1062 19.2286 17.99 18.8967C17.8762 18.5733 17.8195 18.1891 17.8195 17.7433V17.39C17.8195 16.9771 17.8829 16.6138 18.0086 16.3005C18.1362 15.9819 18.3286 15.7162 18.5848 15.5048C18.7705 15.3514 18.9462 15.2262 19.1543 15.1286C19.3305 15.0457 19.5276 14.9838 19.771 14.9433V14.08H21.5657V14.9086C21.8629 14.9319 22.0929 14.9733 22.3833 15.0262L22.5343 15.0524C22.66 15.0748 22.7857 15.0991 22.91 15.1248C23.0267 15.1486 23.139 15.1738 23.2457 15.1995L23.3676 15.2291V17.1781L23.1948 17.1624C23.0233 17.1481 22.8495 17.1348 22.6752 17.1238C22.4857 17.1124 22.291 17.1014 22.0924 17.0933C21.8848 17.0843 21.6895 17.0771 21.509 17.0729C21.3424 17.0691 21.1657 17.0672 20.9795 17.0672C20.7648 17.0672 20.3543 17.0724 20.1919 17.2348C20.0905 17.3362 20.0867 17.6529 20.14 17.7781C20.22 17.9676 20.4686 17.991 20.6471 17.991H21.3543C21.6143 17.991 21.8552 18.0162 22.0762 18.0667C22.3 18.1171 22.5019 18.1943 22.6814 18.2962C23.041 18.5014 23.3124 18.7805 23.4943 19.1333C23.5838 19.3067 23.6519 19.4933 23.6967 19.6924C23.7414 19.89 23.7643 20.0981 23.7643 20.3148V20.6686C23.7643 21.0176 23.7329 21.3286 23.6714 21.601C23.6081 21.8781 23.5119 22.1148 23.3833 22.3095C23.2548 22.5048 23.0986 22.6686 22.9148 22.8C22.7319 22.9319 22.5219 23.0319 22.2871 23.0986L22.2271 23.1157C21.9986 23.1814 21.8324 23.2295 21.5657 23.2586V24.1929H19.771V23.2676ZM13.2662 30.8876V24.3571C16.4876 24.3571 17.0352 24.2119 19.939 26.0395H22.221C23.2538 26.101 23.7948 27.1486 22.7905 27.8362C21.991 28.4233 20.9352 28.39 19.8529 28.2929C19.1062 28.2557 19.0743 29.2586 19.8529 29.2619C20.1233 29.2833 20.4167 29.2195 20.6729 29.2195C22.0229 29.2176 23.1352 28.9595 23.8162 27.8929L24.1576 27.0952L27.5519 25.4133C29.25 24.8543 30.4581 26.6305 29.2057 27.8667C26.7471 29.6548 24.2267 31.1262 21.6481 32.3148C19.7748 33.4543 17.9019 33.4148 16.0305 32.3148L13.2662 30.8876ZM8.23571 23.7295H12.3814V31.5438H8.23571V23.7295Z" fill="#FF6842"/>
</g>
<defs>
<clipPath id="clip0_2434_56038">
<rect width="24" height="24.3848" fill="white" transform="translate(8 8.77002)"/>
</clipPath>
</defs>
</svg>
