<svg width="40" height="40" viewBox="0 0 40 40" fill="none" xmlns="http://www.w3.org/2000/svg">
<path d="M36.5334 27.9163C35.9834 32.3497 32.3501 35.983 27.9168 36.533C25.2334 36.8663 22.7334 36.133 20.7834 34.6997C19.6668 33.883 19.9334 32.1497 21.2668 31.7497C26.2834 30.233 30.2334 26.2663 31.7668 21.2497C32.1668 19.933 33.9001 19.6663 34.7168 20.7663C36.1334 22.733 36.8668 25.233 36.5334 27.9163Z" fill="#31FFDA"/>
<path d="M16.6499 3.33398C9.29992 3.33398 3.33325 9.30065 3.33325 16.6507C3.33325 24.0007 9.29992 29.9673 16.6499 29.9673C23.9999 29.9673 29.9666 24.0007 29.9666 16.6507C29.9499 9.30065 23.9999 3.33398 16.6499 3.33398ZM15.0833 14.784L19.0999 16.184C20.5499 16.7007 21.2499 17.7173 21.2499 19.284C21.2499 21.084 19.8166 22.5673 18.0666 22.5673H17.9166V22.6507C17.9166 23.334 17.3499 23.9007 16.6666 23.9007C15.9833 23.9007 15.4166 23.334 15.4166 22.6507V22.5506C13.5666 22.4673 12.0833 20.9173 12.0833 18.984C12.0833 18.3007 12.6499 17.734 13.3333 17.734C14.0166 17.734 14.5833 18.3007 14.5833 18.984C14.5833 19.584 15.0166 20.0673 15.5499 20.0673H18.0499C18.4333 20.0673 18.7333 19.7173 18.7333 19.284C18.7333 18.7007 18.6333 18.6673 18.2499 18.534L14.2333 17.134C12.7999 16.634 12.0833 15.6173 12.0833 14.034C12.0833 12.234 13.5166 10.7507 15.2666 10.7507H15.4166V10.684C15.4166 10.0007 15.9833 9.43398 16.6666 9.43398C17.3499 9.43398 17.9166 10.0007 17.9166 10.684V10.784C19.7666 10.8673 21.2499 12.4173 21.2499 14.3506C21.2499 15.034 20.6833 15.6006 19.9999 15.6006C19.3166 15.6006 18.7499 15.034 18.7499 14.3506C18.7499 13.7507 18.3166 13.2673 17.7833 13.2673H15.2833C14.8999 13.2673 14.5999 13.6173 14.5999 14.0507C14.5833 14.6173 14.6833 14.6507 15.0833 14.784Z" fill="#31FFDA"/>
</svg>
