<svg width="749" height="188" viewBox="0 0 749 188" fill="none" xmlns="http://www.w3.org/2000/svg"> 
<rect width="749" height="188" rx="10" fill="black" fill-opacity="0.65"/> 
<g opacity="0.5"> 
<path opacity="0.0344828" d="M570.371 98.5019C570.546 99.5653 571.184 100.587 572.394 101.547C573.61 102.512 575.358 103.374 577.629 104.104C582.17 105.562 588.603 106.429 596.501 106.658C612.281 107.117 633.685 105.027 656.959 100.264C680.233 95.5008 700.908 88.979 715.516 82.3017C722.827 78.9596 728.567 75.6019 732.348 72.4401C734.239 70.859 735.6 69.3608 736.43 67.9767C737.256 66.6001 737.528 65.3922 737.353 64.3287C737.178 63.2653 736.54 62.2435 735.33 61.2836C734.114 60.3185 732.366 59.4564 730.095 58.7269C725.554 57.2683 719.121 56.4018 711.223 56.1724C695.443 55.714 674.039 57.8038 650.765 62.5668C627.491 67.3299 606.816 73.8517 592.208 80.529C584.897 83.871 579.158 87.2287 575.376 90.3905C573.485 91.9717 572.125 93.4699 571.294 94.8539C570.468 96.2306 570.196 97.4385 570.371 98.5019Z" stroke="#0FC2FB" stroke-width="2"/>
<path opacity="0.0689655" d="M571.551 106.431C571.815 107.468 572.538 108.425 573.829 109.271C575.127 110.121 576.948 110.822 579.28 111.345C583.942 112.389 590.445 112.678 598.356 112.202C614.163 111.253 635.371 107.273 658.219 100.47C681.067 93.6681 701.168 85.3501 715.194 77.4175C722.214 73.4471 727.662 69.6009 731.171 66.1234C732.926 64.3842 734.157 62.7749 734.869 61.3263C735.576 59.8854 735.744 58.6634 735.479 57.626C735.214 56.5885 734.491 55.6315 733.2 54.7857C731.902 53.9354 730.082 53.2346 727.75 52.7121C723.088 51.6673 716.585 51.3792 708.673 51.8543C692.867 52.8035 671.659 56.7841 648.811 63.5864C625.963 70.3887 605.861 78.7067 591.836 86.6393C584.816 90.6097 579.368 94.4558 575.859 97.9334C574.104 99.6725 572.873 101.282 572.161 102.73C571.453 104.171 571.286 105.393 571.551 106.431Z" stroke="#048069" stroke-width="2"/>
<path opacity="0.103448" d="M573.354 114.173C573.706 115.177 574.508 116.062 575.871 116.787C577.24 117.516 579.119 118.05 581.494 118.362C586.243 118.985 592.765 118.692 600.63 117.516C616.344 115.166 637.194 109.325 659.442 100.535C681.69 91.7452 701.065 81.6942 714.402 72.5665C721.077 67.998 726.192 63.6925 729.402 59.9256C731.007 58.0416 732.1 56.3333 732.687 54.8312C733.271 53.337 733.333 52.1105 732.981 51.1067C732.629 50.103 731.827 49.2177 730.464 48.4925C729.095 47.7635 727.216 47.2293 724.841 46.9178C720.092 46.2949 713.569 46.5876 705.705 47.7636C689.991 50.1133 669.141 55.9547 646.893 64.7446C624.645 73.5344 605.27 83.5854 591.933 92.7131C585.258 97.2816 580.143 101.587 576.933 105.354C575.328 107.238 574.235 108.946 573.648 110.448C573.064 111.943 573.002 113.169 573.354 114.173Z" stroke="#048069" stroke-width="2"/>
<path opacity="0.137931" d="M575.765 121.676C576.202 122.639 577.077 123.446 578.5 124.045C579.931 124.647 581.854 125.011 584.254 125.109C589.053 125.305 595.546 124.433 603.304 122.565C618.804 118.833 639.139 111.175 660.617 100.464C682.096 89.7537 700.596 78.0461 713.142 67.7927C719.422 62.6608 724.166 57.9287 727.051 53.9009C728.494 51.8865 729.44 50.0922 729.898 48.5481C730.354 47.0118 730.311 45.7902 729.874 44.8275C729.438 43.8649 728.563 43.0578 727.14 42.4587C725.709 41.8565 723.786 41.493 721.386 41.395C716.587 41.1989 710.094 42.0702 702.336 43.9384C686.836 47.6708 666.501 55.3286 645.023 66.0392C623.544 76.7498 605.044 88.4574 592.498 98.7108C586.218 103.843 581.474 108.575 578.589 112.603C577.146 114.617 576.2 116.411 575.742 117.955C575.285 119.492 575.329 120.713 575.765 121.676Z" stroke="#048069" stroke-width="2"/>
<path opacity="0.172414" d="M578.763 128.889C579.28 129.804 580.221 130.527 581.695 130.995C583.176 131.466 585.129 131.656 587.536 131.54C592.348 131.307 598.761 129.864 606.354 127.318C621.523 122.231 641.187 112.815 661.732 100.265C682.278 87.715 699.763 74.4397 711.423 63.1386C717.259 57.4823 721.595 52.3595 724.134 48.1015C725.404 45.9719 726.196 44.1053 726.522 42.5308C726.847 40.9642 726.698 39.7568 726.181 38.8421C725.665 37.9275 724.723 37.2043 723.25 36.7359C721.769 36.2651 719.816 36.0752 717.409 36.1915C712.597 36.4238 706.183 37.8673 698.591 40.4134C683.422 45.5003 663.758 54.9163 643.212 67.4662C622.667 80.0161 605.182 93.2913 593.522 104.592C587.686 110.249 583.35 115.372 580.811 119.63C579.541 121.759 578.749 123.626 578.423 125.2C578.098 126.767 578.247 127.974 578.763 128.889Z" stroke="#048069" stroke-width="2"/>
<path opacity="0.206897" d="M582.323 135.758C582.916 136.618 583.917 137.252 585.429 137.586C586.949 137.922 588.917 137.937 591.312 137.607C596.101 136.948 602.386 134.943 609.755 131.739C624.477 125.336 643.321 114.233 662.777 99.9396C682.234 85.6459 698.57 70.904 709.255 58.6411C714.603 52.5034 718.498 47.0289 720.671 42.5732C721.758 40.3445 722.39 38.4199 722.581 36.827C722.772 35.242 722.52 34.0578 721.927 33.1977C721.335 32.3375 720.334 31.7033 718.821 31.3691C717.302 31.0334 715.334 31.0186 712.938 31.3483C708.149 32.0074 701.864 34.0121 694.495 37.2168C679.773 43.6196 660.93 54.7223 641.473 69.016C622.017 83.3097 605.681 98.0516 594.996 110.314C589.647 116.452 585.752 121.927 583.579 126.382C582.492 128.611 581.86 130.536 581.669 132.129C581.479 133.714 581.731 134.898 582.323 135.758Z" stroke="#048069" stroke-width="2"/>
<path opacity="0.241379" d="M586.414 142.238C587.078 143.037 588.131 143.578 589.671 143.775C591.218 143.974 593.186 143.813 595.551 143.272C600.28 142.191 606.39 139.641 613.479 135.802C627.642 128.132 645.521 115.427 663.74 99.4981C681.959 83.5693 697.022 67.473 706.651 54.3416C711.47 47.7692 714.894 41.9846 716.685 37.3651C717.581 35.0545 718.048 33.0864 718.103 31.4874C718.158 29.896 717.805 28.7438 717.141 27.9441C716.477 27.1444 715.424 26.6037 713.884 26.4064C712.337 26.2082 710.369 26.3686 708.004 26.9093C703.275 27.9903 697.165 30.5411 690.076 34.3801C675.913 42.0501 658.034 54.7549 639.815 70.6837C621.596 86.6125 606.533 102.709 596.904 115.84C592.085 122.413 588.66 128.197 586.869 132.817C585.974 135.127 585.507 137.095 585.452 138.694C585.397 140.286 585.75 141.438 586.414 142.238Z" stroke="#048069" stroke-width="2"/>
<path opacity="0.275862" d="M591.004 148.282C591.734 149.015 592.831 149.459 594.386 149.518C595.949 149.577 597.902 149.242 600.219 148.495C604.853 147 610.739 143.923 617.495 139.479C630.991 130.6 647.77 116.389 664.613 98.9468C681.455 81.5042 695.131 64.176 703.629 50.2761C707.883 43.3191 710.811 37.2685 712.205 32.5204C712.903 30.1453 713.201 28.1489 713.12 26.5558C713.038 24.9702 712.587 23.8586 711.857 23.1248C711.126 22.391 710.03 21.9476 708.474 21.8887C706.911 21.8295 704.959 22.164 702.641 22.9117C698.008 24.4064 692.121 27.4839 685.366 31.9279C671.87 40.8067 655.091 55.0171 638.248 72.4597C621.405 89.9023 607.73 107.231 599.231 121.13C594.978 128.087 592.05 134.138 590.655 138.886C589.958 141.261 589.659 143.258 589.741 144.851C589.822 146.436 590.274 147.548 591.004 148.282Z" stroke="#F3A404" stroke-width="2"/>
<path opacity="0.310345" d="M596.054 153.849C596.845 154.512 597.978 154.855 599.537 154.775C601.104 154.695 603.026 154.189 605.278 153.24C609.78 151.343 615.399 147.762 621.769 142.747C634.496 132.727 650.046 117.119 665.384 98.2953C680.723 79.4716 692.906 61.0434 700.21 46.4809C703.866 39.1923 706.274 32.9218 707.262 28.0814C707.756 25.6601 707.884 23.6505 707.666 22.0754C707.449 20.5077 706.903 19.4447 706.112 18.7819C705.321 18.119 704.188 17.7761 702.629 17.856C701.062 17.9363 699.14 18.4424 696.888 19.3913C692.386 21.2884 686.767 24.8692 680.397 29.8844C667.67 39.9045 652.119 55.5122 636.781 74.3358C621.443 93.1595 609.26 111.588 601.956 126.15C598.3 133.439 595.892 139.709 594.904 144.55C594.409 146.971 594.282 148.981 594.5 150.556C594.717 152.123 595.262 153.186 596.054 153.849Z" stroke="#048069" stroke-width="2"/>
<path opacity="0.344828" d="M601.523 158.902C602.37 159.489 603.53 159.729 605.081 159.511C606.64 159.292 608.517 158.618 610.686 157.475C615.023 155.19 620.331 151.133 626.267 145.585C638.127 134.5 652.331 117.614 666.048 97.5525C679.765 77.4911 690.363 58.1031 696.417 42.989C699.447 35.4242 701.317 28.9817 701.891 24.0859C702.178 21.6368 702.133 19.6294 701.781 18.0844C701.431 16.5466 700.795 15.5399 699.948 14.9525C699.101 14.3651 697.941 14.1252 696.39 14.3434C694.831 14.5626 692.954 15.2363 690.785 16.3793C686.448 18.6643 681.14 22.721 675.204 28.2692C663.344 39.3544 649.14 56.2405 635.423 76.3019C621.706 96.3633 611.108 115.751 605.054 130.865C602.024 138.43 600.154 144.873 599.58 149.768C599.293 152.217 599.338 154.225 599.69 155.77C600.04 157.308 600.677 158.314 601.523 158.902Z" stroke="#048069" stroke-width="2"/>
<path opacity="0.37931" d="M607.367 163.41C608.263 163.917 609.442 164.053 610.974 163.698C612.512 163.341 614.331 162.505 616.4 161.177C620.538 158.521 625.495 154.02 630.952 147.981C641.855 135.915 654.604 117.879 666.595 96.7325C678.586 75.5861 687.519 55.3861 692.276 39.8355C694.657 32.0523 695.975 25.4868 696.13 20.573C696.208 18.115 695.992 16.1251 695.508 14.6219C695.026 13.1256 694.305 12.1826 693.409 11.6747C692.513 11.1667 691.333 11.0317 689.802 11.3864C688.264 11.7428 686.445 12.5791 684.376 13.9074C680.238 16.5629 675.281 21.0647 669.824 27.1037C658.921 39.1693 646.172 57.2053 634.181 78.3517C622.189 99.4981 613.257 119.698 608.5 135.249C606.119 143.032 604.8 149.597 604.646 154.511C604.568 156.969 604.784 158.959 605.268 160.462C605.75 161.959 606.471 162.902 607.367 163.41Z" stroke="#048069" stroke-width="2"/>
<path opacity="0.413793" d="M613.539 167.336C614.478 167.761 615.668 167.79 617.168 167.301C618.675 166.81 620.42 165.818 622.374 164.314C626.281 161.309 630.85 156.396 635.786 149.913C645.649 136.958 656.846 117.91 667.02 95.8395C677.194 73.7692 684.393 52.911 687.818 37.0423C689.532 29.0999 690.288 22.4617 690.022 17.5674C689.89 15.1192 689.504 13.162 688.892 11.712C688.283 10.2688 687.481 9.39622 686.543 8.97131C685.604 8.54639 684.413 8.51731 682.914 9.00593C681.407 9.49685 679.662 10.4893 677.707 11.9928C673.8 14.9985 669.232 19.9109 664.295 26.3946C654.433 39.3489 643.236 58.3973 633.062 80.4677C622.887 102.538 615.688 123.396 612.264 139.265C610.55 147.207 609.794 153.846 610.059 158.74C610.192 161.188 610.578 163.145 611.19 164.595C611.799 166.038 612.6 166.911 613.539 167.336Z" stroke="#048069" stroke-width="2"/>
<path opacity="0.448276" d="M619.989 170.66C620.964 170.999 622.156 170.921 623.613 170.303C625.076 169.681 626.735 168.54 628.56 166.873C632.206 163.54 636.351 158.254 640.729 151.375C649.476 137.631 659.036 117.715 667.316 94.8889C675.595 72.0626 681.006 50.7051 683.072 34.6394C684.105 26.5983 684.293 19.9379 683.61 15.1006C683.269 12.6809 682.716 10.7714 681.981 9.3857C681.249 8.00651 680.373 7.21062 679.398 6.87182C678.423 6.53303 677.23 6.61034 675.774 7.2291C674.31 7.85079 672.651 8.9918 670.827 10.659C667.18 13.9919 663.035 19.2775 658.657 26.1566C649.91 39.9006 640.35 59.8164 632.071 82.6428C623.791 105.469 618.38 126.827 616.315 142.892C615.281 150.933 615.093 157.594 615.776 162.431C616.118 164.851 616.671 166.76 617.406 168.146C618.138 169.525 619.014 170.321 619.989 170.66Z" stroke="#048069" stroke-width="2"/>
<path opacity="0.482759" d="M626.665 173.36C627.669 173.61 628.855 173.427 630.257 172.683C631.667 171.935 633.227 170.654 634.907 168.836C638.265 165.201 641.955 159.583 645.741 152.361C653.307 137.932 661.157 117.3 667.479 93.8918C673.801 70.4834 677.382 48.7893 678.072 32.6489C678.418 24.5704 678.037 17.9387 676.941 13.1953C676.393 10.8226 675.678 8.97531 674.825 7.66445C673.976 6.35982 673.032 5.64644 672.027 5.39636C671.023 5.14627 669.837 5.32967 668.435 6.07384C667.026 6.82156 665.465 8.10243 663.785 9.92052C660.427 13.5551 656.737 19.1735 652.951 26.3955C645.385 40.8247 637.535 61.4562 631.213 84.8646C624.891 108.273 621.31 129.967 620.62 146.108C620.274 154.186 620.655 160.818 621.751 165.561C622.299 167.934 623.014 169.781 623.867 171.092C624.717 172.397 625.66 173.11 626.665 173.36Z" stroke="#048069" stroke-width="2"/>
<path opacity="0.517241" d="M633.513 175.422C634.54 175.581 635.71 175.292 637.048 174.429C638.392 173.56 639.841 172.15 641.364 170.194C644.409 166.286 647.615 160.378 650.781 152.868C657.107 137.863 663.187 116.673 667.504 92.8611C671.82 69.0488 673.544 47.1833 672.855 31.0912C672.51 23.0369 671.563 16.4845 670.063 11.8712C669.312 9.56358 668.44 7.7926 667.476 6.56655C666.516 5.34641 665.511 4.72079 664.484 4.5615C663.457 4.40222 662.287 4.69065 660.949 5.55453C659.605 6.4226 658.156 7.83354 656.633 9.78859C653.588 13.6971 650.382 19.6054 647.216 27.1153C640.89 42.1196 634.81 63.3096 630.494 87.1219C626.177 110.934 624.453 132.8 625.142 148.892C625.487 156.946 626.434 163.499 627.934 168.112C628.685 170.419 629.557 172.19 630.522 173.416C631.481 174.637 632.486 175.262 633.513 175.422Z" stroke="#048069" stroke-width="2"/> -->
<path opacity="0.551724" d="M640.479 176.831C641.521 176.898 642.667 176.507 643.93 175.53C645.198 174.548 646.526 173.018 647.88 170.941C650.588 166.788 653.286 160.635 655.808 152.894C660.846 137.429 665.111 115.842 667.389 91.8073C669.667 67.7724 669.521 45.902 667.457 29.9808C666.425 22.012 664.918 15.5888 663.025 11.1408C662.079 8.91592 661.056 7.23476 659.987 6.10284C658.924 4.97647 657.866 4.4433 656.824 4.37635C655.781 4.30941 654.636 4.70104 653.373 5.67803C652.104 6.65985 650.777 8.19006 649.423 10.2671C646.715 14.4196 644.016 20.5728 641.495 28.3133C636.457 43.7784 632.192 65.3655 629.914 89.4004C627.636 113.435 627.782 135.306 629.845 151.227C630.878 159.196 632.384 165.619 634.277 170.067C635.224 172.292 636.247 173.973 637.315 175.105C638.379 176.231 639.437 176.764 640.479 176.831Z" stroke="#E76F51" stroke-width="2"/>
<path opacity="0.586207" d="M647.506 177.585C648.556 177.558 649.669 177.066 650.847 175.984C652.031 174.895 653.226 173.258 654.401 171.075C656.752 166.71 658.922 160.359 660.78 152.447C664.492 136.638 666.908 114.819 667.131 90.7442C667.353 66.6697 665.339 44.961 661.917 29.3319C660.204 21.5094 658.15 15.2643 655.879 11.0154C654.743 8.89029 653.578 7.31173 652.413 6.28255C651.255 5.25852 650.151 4.82189 649.101 4.84823C648.051 4.87457 646.938 5.36682 645.76 6.44946C644.577 7.53755 643.381 9.17534 642.206 11.3585C639.855 15.7233 637.685 22.0743 635.827 29.9865C632.115 45.7946 629.699 67.6144 629.476 91.6889C629.254 115.763 631.268 137.472 634.69 153.101C636.403 160.924 638.457 167.169 640.728 171.418C641.864 173.543 643.03 175.121 644.194 176.15C645.352 177.175 646.456 177.611 647.506 177.585Z" stroke="#048069" stroke-width="2"/>
<path opacity="0.62069" d="M654.539 177.682C655.589 177.562 656.66 176.972 657.745 175.792C658.834 174.606 659.889 172.873 660.876 170.601C662.852 166.057 664.477 159.556 665.658 151.533C668.016 135.502 668.565 113.616 666.73 89.6851C664.895 65.7544 661.028 44.3726 656.273 29.1546C653.894 21.5378 651.308 15.5185 648.676 11.5011C647.36 9.49186 646.061 8.02789 644.809 7.10929C643.565 6.19538 642.423 5.85873 641.373 5.9787C640.323 6.09867 639.252 6.68814 638.168 7.86817C637.078 9.05426 636.024 10.7871 635.036 13.0597C633.06 17.6034 631.435 24.1039 630.255 32.1274C627.896 48.1581 627.347 70.0445 629.182 93.9753C631.017 117.906 634.885 139.288 639.639 154.506C642.019 162.123 644.604 168.142 647.236 172.159C648.552 174.168 649.851 175.632 651.103 176.551C652.348 177.465 653.489 177.802 654.539 177.682Z" stroke="#048069" stroke-width="2"/>
<path opacity="0.655172" d="M661.522 177.124C662.564 176.91 663.585 176.228 664.567 174.959C665.555 173.684 666.46 171.87 667.253 169.525C668.838 164.837 669.906 158.237 670.4 150.163C671.386 134.032 670.065 112.245 666.187 88.6405C662.309 65.0356 656.617 44.1436 650.567 29.4526C647.539 22.0995 644.441 16.3517 641.469 12.5964C639.982 10.7183 638.559 9.38003 637.23 8.57899C635.909 7.78212 634.737 7.54826 633.695 7.76152C632.653 7.97477 631.632 8.65731 630.65 9.92574C629.662 11.2008 628.757 13.0155 627.964 15.3601C626.379 20.0481 625.311 26.6485 624.817 34.7223C623.831 50.8534 625.152 72.6398 629.03 96.2447C632.909 119.85 638.6 140.742 644.65 155.433C647.679 162.786 650.776 168.533 653.748 172.289C655.235 174.167 656.658 175.505 657.987 176.306C659.308 177.103 660.48 177.337 661.522 177.124Z" stroke="#048069" stroke-width="2"/>
<path opacity="0.689655" d="M668.398 175.921C669.424 175.615 670.387 174.845 671.261 173.498C672.138 172.143 672.887 170.26 673.479 167.862C674.662 163.065 675.166 156.415 674.969 148.353C674.576 132.244 671.395 110.723 665.503 87.6238C659.611 64.5245 652.139 44.2811 644.839 30.2288C641.185 23.1955 637.599 17.763 634.309 14.2982C632.664 12.5655 631.128 11.3631 629.732 10.6857C628.343 10.0119 627.151 9.88288 626.125 10.1884C625.098 10.4939 624.136 11.2646 623.262 12.6117C622.385 13.9661 621.635 15.8488 621.044 18.2476C619.861 23.0441 619.357 29.694 619.554 37.7567C619.947 53.8654 623.128 75.386 629.02 98.4854C634.912 121.585 642.384 141.828 649.684 155.88C653.338 162.914 656.924 168.346 660.214 171.811C661.859 173.544 663.395 174.746 664.791 175.424C666.18 176.097 667.372 176.226 668.398 175.921Z" stroke="#048069" stroke-width="2"/> -->
<path opacity="0.724138" d="M675.113 174.089C676.115 173.693 677.012 172.84 677.77 171.424C678.531 170.001 679.118 168.064 679.504 165.63C680.276 160.761 680.211 154.112 679.326 146.122C677.557 130.158 672.54 109.067 664.679 86.6491C656.818 64.231 647.624 44.7904 639.129 31.4837C634.877 24.8236 630.831 19.7476 627.248 16.5996C625.457 15.0254 623.819 13.968 622.367 13.4194C620.922 12.8738 619.717 12.851 618.715 13.247C617.713 13.643 616.815 14.4961 616.058 15.9117C615.297 17.3351 614.709 19.2714 614.323 21.7061C613.551 26.5746 613.616 33.2235 614.502 41.2136C616.271 57.1774 621.288 78.2684 629.149 100.687C637.01 123.105 646.204 142.545 654.699 155.852C658.95 162.512 662.997 167.588 666.58 170.736C668.371 172.31 670.008 173.368 671.461 173.916C672.906 174.462 674.111 174.485 675.113 174.089Z" stroke="#84FFE9" stroke-width="2"/>
<path opacity="0.758621" d="M681.612 171.644C682.583 171.16 683.407 170.231 684.043 168.758C684.682 167.276 685.103 165.301 685.281 162.849C685.636 157.946 685.003 151.348 683.436 143.491C680.304 127.794 673.489 107.293 663.72 85.7268C653.95 64.1606 643.102 45.6705 633.478 33.2106C628.662 26.9743 624.185 22.2934 620.337 19.4861C618.413 18.0823 616.687 17.1778 615.188 16.7622C613.698 16.3489 612.491 16.4329 611.52 16.9168C610.55 17.4007 609.726 18.3299 609.09 19.8033C608.451 21.2848 608.029 23.26 607.852 25.712C607.497 30.6154 608.13 37.2128 609.697 45.0696C612.828 60.767 619.644 81.268 629.413 102.834C639.183 124.4 650.03 142.89 659.654 155.35C664.471 161.587 668.947 166.268 672.795 169.075C674.72 170.479 676.446 171.383 677.944 171.799C679.434 172.212 680.642 172.128 681.612 171.644Z" stroke="#048069" stroke-width="2"/>
<path opacity="0.793103" d="M687.844 168.611C689.716 167.468 690.827 164.545 690.761 159.547C690.697 154.645 689.501 148.15 687.264 140.486C682.794 125.175 674.233 105.42 662.629 84.8693C651.025 64.319 638.607 46.9202 627.927 35.4018C622.582 29.6366 617.71 25.3863 613.626 22.9409C609.46 20.4466 606.465 20.0319 604.593 21.1751C602.722 22.3184 601.611 25.2412 601.676 30.24C601.74 35.141 602.936 41.6367 605.173 49.3004C609.643 64.612 618.204 84.367 629.808 104.917C641.412 125.468 653.83 142.866 664.51 154.385C669.856 160.15 674.728 164.4 678.812 166.846C682.977 169.34 685.973 169.755 687.844 168.611Z" stroke="#048069" stroke-width="2"/>
<path opacity="0.827586" d="M693.76 165.019C695.536 163.714 696.395 160.71 695.902 155.753C695.42 150.892 693.67 144.547 690.78 137.135C685.006 122.325 674.764 103.467 661.414 84.0886C648.064 64.7106 634.17 48.5353 622.516 38.0459C616.682 32.7957 611.452 29.0082 607.163 26.9431C602.79 24.8376 599.76 24.6901 597.984 25.9948C596.208 27.2995 595.349 30.3039 595.841 35.2606C596.324 40.122 598.074 46.4666 600.964 53.879C606.738 68.6884 616.979 87.5471 630.329 106.925C643.679 126.303 657.573 142.479 669.228 152.968C675.061 158.218 680.292 162.006 684.581 164.071C688.954 166.176 691.984 166.324 693.76 165.019Z" stroke="#FF6842" stroke-width="2"/>
<path opacity="0.862069" d="M699.31 160.896C700.976 159.439 701.576 156.377 700.661 151.5C699.764 146.715 697.473 140.569 693.952 133.465C686.918 119.27 675.074 101.451 660.08 83.3923C645.085 65.3339 629.821 50.5051 617.28 41.1243C611.004 36.4291 605.454 33.133 600.993 31.4638C596.446 29.7624 593.404 29.884 591.738 31.3405C590.072 32.7969 589.472 35.8594 590.387 40.7366C591.285 45.5216 593.575 51.667 597.096 58.7717C604.13 72.9663 615.974 90.7854 630.969 108.844C645.963 126.902 661.227 141.731 673.768 151.112C680.045 155.807 685.594 159.103 690.055 160.772C694.603 162.474 697.644 162.352 699.31 160.896Z" stroke="#048069" stroke-width="2"/>
<path opacity="0.896552" d="M704.452 156.281C705.994 154.684 706.331 151.588 705 146.827C703.694 142.154 700.881 136.255 696.756 129.512C688.515 116.04 675.159 99.3958 658.634 82.7943C642.109 66.1928 625.591 52.8232 612.26 44.6223C605.588 40.5176 599.762 37.7379 595.162 36.4772C590.475 35.1926 587.444 35.5828 585.902 37.1799C584.36 38.777 584.023 41.8737 585.354 46.6348C586.659 51.3071 589.473 57.2066 593.597 63.9496C601.839 77.4216 615.195 94.0656 631.72 110.667C648.244 127.269 664.763 140.638 678.094 148.839C684.766 152.944 690.592 155.723 695.192 156.984C699.879 158.269 702.91 157.879 704.452 156.281Z" stroke="#048069" stroke-width="2"/>
<path opacity="0.931035" d="M709.142 151.215C710.548 149.49 710.619 146.383 708.883 141.774C707.179 137.25 703.864 131.641 699.167 125.311C689.781 112.664 675.014 97.3214 657.085 82.3031C639.156 67.2848 621.51 55.476 607.489 48.5173C600.472 45.0343 594.414 42.7921 589.71 41.9493C584.919 41.0907 581.923 41.7473 580.517 43.4726C579.111 45.1979 579.04 48.3047 580.776 52.9139C582.48 57.438 585.794 63.047 590.492 69.377C599.877 82.024 614.645 97.3664 632.574 112.385C650.503 127.403 668.149 139.212 682.17 146.171C689.187 149.654 695.245 151.896 699.948 152.739C704.74 153.597 707.736 152.941 709.142 151.215Z" stroke="#048069" stroke-width="2"/>
<path opacity="0.965517" d="M713.343 145.738C714.601 143.898 714.406 140.805 712.278 136.383C710.189 132.041 706.398 126.765 701.163 120.896C690.705 109.17 674.64 95.246 655.443 81.9251C636.245 68.6043 617.605 58.446 603.002 52.7822C595.693 49.9474 589.449 48.2596 584.677 47.8412C579.817 47.4149 576.879 48.3332 575.621 50.1732C574.363 52.0131 574.558 55.1057 576.686 59.5285C578.775 63.8702 582.566 69.146 587.8 75.015C598.258 86.7409 614.324 100.665 633.521 113.986C652.718 127.307 671.359 137.465 685.962 143.129C693.271 145.964 699.515 147.652 704.287 148.07C709.147 148.496 712.085 147.578 713.343 145.738Z" stroke="#048069" stroke-width="2"/>
<path d="M717.021 139.9C718.121 137.96 717.661 134.906 715.157 130.702C712.699 126.576 708.46 121.673 702.729 116.31C691.278 105.594 674.036 93.1942 653.717 81.6721C633.397 70.1499 613.904 61.7195 598.83 57.3937C591.285 55.2285 584.901 54.1079 580.099 54.1169C575.206 54.1261 572.349 55.2996 571.249 57.2394C570.149 59.1793 570.609 62.2337 573.112 66.437C575.57 70.5633 579.809 75.466 585.541 80.8294C596.992 91.5451 614.234 103.945 634.553 115.467C654.872 126.99 674.365 135.42 689.44 139.746C696.985 141.911 703.368 143.032 708.171 143.023C713.063 143.013 715.921 141.84 717.021 139.9Z" stroke="#31FFDA" stroke-width="2"/> -->
</g>
</svg> 
