<svg width="21" height="21" viewBox="0 0 21 21" fill="none" xmlns="http://www.w3.org/2000/svg">
<circle cx="10.2726" cy="10.5379" r="8.75" transform="rotate(-1.5844 10.2726 10.5379)" fill="url(#paint0_linear_2068_17836)"/>
<path d="M13.604 13.1238L13.9242 10.6443L11.4937 10.7116L11.4494 9.11022C11.4307 8.43467 11.7514 7.76641 12.84 7.73629L13.9457 7.70571L13.8876 5.60397C13.8876 5.60397 12.8799 5.4649 11.9214 5.49142C9.91879 5.54681 8.64377 6.76562 8.70296 8.90574L8.75501 10.7873L6.52982 10.8489L6.5981 13.3176L8.82329 13.256L8.98837 19.2243C9.437 19.2804 9.895 19.3027 10.3606 19.2898C10.8261 19.277 11.2822 19.2293 11.727 19.1486L11.562 13.1803L13.604 13.1238Z" fill="white"/>
<defs>
<linearGradient id="paint0_linear_2068_17836" x1="10.2726" y1="1.78792" x2="10.2726" y2="19.236" gradientUnits="userSpaceOnUse">
<stop stop-color="#18ACFE"/>
<stop offset="1" stop-color="#0163E0"/>
</linearGradient>
</defs>
</svg>
