<svg width="20" height="21" viewBox="0 0 20 21" fill="none" xmlns="http://www.w3.org/2000/svg">
<path d="M18.7509 10.7342C18.7509 10.0147 18.6913 9.48975 18.5624 8.94531H10.1794V12.1925H15.1C15.0009 12.9995 14.4652 14.2147 13.2747 15.0314L13.258 15.1401L15.9085 17.1523L16.0921 17.1703C17.7786 15.6439 18.7509 13.3981 18.7509 10.7342Z" fill="#4285F4"/>
<path d="M10.1789 19.289C12.5896 19.289 14.6134 18.5112 16.0916 17.1696L13.2741 15.0306C12.5202 15.5459 11.5083 15.9056 10.1789 15.9056C7.81785 15.9056 5.81391 14.3793 5.09956 12.2695L4.99485 12.2782L2.2388 14.3685L2.20276 14.4667C3.67099 17.3251 6.68686 19.289 10.1789 19.289Z" fill="#34A853"/>
<path d="M5.10002 12.2693C4.91153 11.7249 4.80244 11.1415 4.80244 10.5387C4.80244 9.93592 4.91153 9.35261 5.0901 8.80817L5.08511 8.69222L2.29451 6.56836L2.20321 6.61092C1.59808 7.79705 1.25085 9.12902 1.25085 10.5387C1.25085 11.9485 1.59808 13.2804 2.20321 14.4665L5.10002 12.2693Z" fill="#FBBC05"/>
<path d="M10.179 5.17237C11.8555 5.17237 12.9865 5.88209 13.6313 6.47519L16.1512 4.06406C14.6036 2.65434 12.5897 1.78906 10.179 1.78906C6.68689 1.78906 3.671 3.75294 2.20276 6.61125L5.08966 8.8085C5.81393 6.69878 7.81788 5.17237 10.179 5.17237Z" fill="#EB4335"/>
</svg>
