<svg width="50" height="50" viewBox="0 0 50 50" fill="none" xmlns="http://www.w3.org/2000/svg">
<rect width="50" height="50" rx="25" fill="#02332A"/>
<path d="M34.7334 19.56V26.4267C34.7334 30.5333 32.3868 32.2933 28.8668 32.2933H17.1467C16.5467 32.2933 15.9734 32.24 15.44 32.12C15.1067 32.0667 14.7867 31.9733 14.4934 31.8667C12.4934 31.12 11.28 29.3867 11.28 26.4267V19.56C11.28 15.4533 13.6267 13.6934 17.1467 13.6934H28.8668C31.8534 13.6934 34.0001 14.96 34.5734 17.8533C34.6668 18.3867 34.7334 18.9333 34.7334 19.56Z" stroke="#84FFE9" stroke-width="2" stroke-miterlimit="10" stroke-linecap="round" stroke-linejoin="round"/>
<path d="M38.7349 23.5601V30.4268C38.7349 34.5335 36.3883 36.2935 32.8683 36.2935H21.1482C20.1615 36.2935 19.2682 36.1601 18.4949 35.8668C16.9082 35.2801 15.8282 34.0668 15.4415 32.1201C15.9749 32.2401 16.5482 32.2935 17.1482 32.2935H28.8683C32.3883 32.2935 34.7349 30.5335 34.7349 26.4268V19.5601C34.7349 18.9335 34.6816 18.3735 34.5749 17.8535C37.1083 18.3868 38.7349 20.1735 38.7349 23.5601Z" stroke="#84FFE9" stroke-width="2" stroke-miterlimit="10" stroke-linecap="round" stroke-linejoin="round"/>
<path d="M22.9978 26.5195C24.9418 26.5195 26.5178 24.9435 26.5178 22.9995C26.5178 21.0555 24.9418 19.4795 22.9978 19.4795C21.0537 19.4795 19.4778 21.0555 19.4778 22.9995C19.4778 24.9435 21.0537 26.5195 22.9978 26.5195Z" stroke="#84FFE9" stroke-width="2" stroke-miterlimit="10" stroke-linecap="round" stroke-linejoin="round"/>
<path d="M15.3732 20.0664V25.9331" stroke="#84FFE9" stroke-width="2" stroke-miterlimit="10" stroke-linecap="round" stroke-linejoin="round"/>
<path d="M30.629 20.0674V25.9341" stroke="#84FFE9" stroke-width="2" stroke-miterlimit="10" stroke-linecap="round" stroke-linejoin="round"/>
</svg>
