<svg width="50" height="50" viewBox="0 0 50 50" fill="none" xmlns="http://www.w3.org/2000/svg">
<rect width="50" height="50" rx="25" fill="#022738"/>
<path d="M22.4804 33.1993H17.4271C16.8804 33.1993 16.4271 32.746 16.4271 32.1993V25.3727C16.4271 23.986 17.5604 22.8525 18.9471 22.8525H22.4804C23.0271 22.8525 23.4804 23.3059 23.4804 23.8525V32.1859C23.4804 32.7459 23.0271 33.1993 22.4804 33.1993ZM18.4271 31.1993H21.4804V24.866H18.9471C18.6671 24.866 18.4271 25.0925 18.4271 25.3859V31.1993Z" fill="white"/>
<path d="M27.5195 33.1999H22.4661C21.9195 33.1999 21.4662 32.7466 21.4662 32.1999V19.3198C21.4662 17.9332 22.5995 16.7998 23.9861 16.7998H26.0128C27.3995 16.7998 28.5328 17.9332 28.5328 19.3198V32.1999C28.5195 32.7466 28.0795 33.1999 27.5195 33.1999ZM23.4795 31.1999H26.5328V19.3198C26.5328 19.0398 26.3061 18.7998 26.0128 18.7998H23.9861C23.7061 18.7998 23.4661 19.0265 23.4661 19.3198V31.1999H23.4795Z" fill="white"/>
<path d="M32.5741 33.1996H27.5208C26.9741 33.1996 26.5208 32.7463 26.5208 32.1996V26.1328C26.5208 25.5861 26.9741 25.1328 27.5208 25.1328H31.0541C32.4408 25.1328 33.5741 26.2661 33.5741 27.6528V32.1996C33.5741 32.7463 33.1341 33.1996 32.5741 33.1996ZM28.5208 31.1996H31.5741V27.6528C31.5741 27.3728 31.3475 27.1328 31.0541 27.1328H28.5208V31.1996Z" fill="white"/>
<path d="M29 39.3337H21C13.76 39.3337 10.6667 36.2403 10.6667 29.0003V21.0003C10.6667 13.7603 13.76 10.667 21 10.667H29C36.24 10.667 39.3333 13.7603 39.3333 21.0003V29.0003C39.3333 36.2403 36.24 39.3337 29 39.3337ZM21 12.667C14.8533 12.667 12.6667 14.8537 12.6667 21.0003V29.0003C12.6667 35.147 14.8533 37.3337 21 37.3337H29C35.1467 37.3337 37.3333 35.147 37.3333 29.0003V21.0003C37.3333 14.8537 35.1467 12.667 29 12.667H21Z" fill="white"/>
</svg>
