<svg width="50" height="50" viewBox="0 0 50 50" fill="none" xmlns="http://www.w3.org/2000/svg">
<rect width="50" height="50" rx="25" fill="#FF6842"/>
<path d="M18.5597 39.3325C15.3864 39.3325 12.7865 37.0258 12.7865 34.1858V31.4658C12.7865 30.9192 13.2398 30.4658 13.7865 30.4658C14.3331 30.4658 14.7865 30.9192 14.7865 31.4658C14.7865 33.1325 16.3997 34.3858 18.5597 34.3858C20.7197 34.3858 22.3331 33.1325 22.3331 31.4658C22.3331 30.9192 22.7864 30.4658 23.3331 30.4658C23.8797 30.4658 24.3331 30.9192 24.3331 31.4658V34.1858C24.3331 37.0258 21.7464 39.3325 18.5597 39.3325ZM15.1331 35.4925C15.7197 36.5858 17.0397 37.3325 18.5597 37.3325C20.0797 37.3325 21.3997 36.5725 21.9864 35.4925C21.0397 36.0658 19.8664 36.3992 18.5597 36.3992C17.2531 36.3992 16.0797 36.0658 15.1331 35.4925Z" fill="white"/>
<path d="M18.5597 32.7325C16.3731 32.7325 14.4131 31.7325 13.4398 30.1459C13.0131 29.4525 12.7865 28.6392 12.7865 27.8125C12.7865 26.4125 13.3998 25.1059 14.5198 24.1325C16.6798 22.2392 20.3997 22.2393 22.5731 24.1193C23.6931 25.106 24.3197 26.4125 24.3197 27.8125C24.3197 28.6392 24.0931 29.4525 23.6664 30.1459C22.7064 31.7325 20.7464 32.7325 18.5597 32.7325ZM18.5597 24.666C17.5197 24.666 16.5598 25.0125 15.8398 25.6392C15.1598 26.2259 14.7865 26.9992 14.7865 27.8125C14.7865 28.2792 14.9064 28.706 15.1464 29.106C15.7597 30.1193 17.0664 30.746 18.5597 30.746C20.0531 30.746 21.3597 30.1193 21.9597 29.1193C22.1997 28.7327 22.3197 28.2927 22.3197 27.826C22.3197 27.0127 21.9464 26.2392 21.2664 25.6392C20.5598 25.0125 19.5997 24.666 18.5597 24.666Z" fill="white"/>
<path d="M18.5597 36.4003C15.2664 36.4003 12.7865 34.2803 12.7865 31.4803V27.8137C12.7865 24.9737 15.3731 22.667 18.5597 22.667C20.0664 22.667 21.5064 23.187 22.5864 24.1203C23.7064 25.107 24.3331 26.4137 24.3331 27.8137V31.4803C24.3331 34.2803 21.8531 36.4003 18.5597 36.4003ZM18.5597 24.667C16.4797 24.667 14.7865 26.0803 14.7865 27.8137V31.4803C14.7865 33.147 16.3997 34.4003 18.5597 34.4003C20.7197 34.4003 22.3331 33.147 22.3331 31.4803V27.8137C22.3331 27.0003 21.9598 26.227 21.2798 25.627C20.5598 25.0137 19.5997 24.667 18.5597 24.667Z" fill="white"/>
<path d="M34.3865 28.7333C32.3732 28.7333 30.6665 27.2399 30.5065 25.3199C30.3999 24.2133 30.7999 23.1333 31.5999 22.3466C32.2665 21.6533 33.2132 21.2666 34.2132 21.2666H36.9999C38.3199 21.3066 39.3332 22.3466 39.3332 23.6266V26.3733C39.3332 27.6533 38.3199 28.6933 37.0399 28.7333H34.3865ZM36.9599 23.2666H34.2265C33.7599 23.2666 33.3332 23.4399 33.0265 23.7599C32.6399 24.1333 32.4532 24.6399 32.5065 25.1466C32.5732 26.0266 33.4265 26.7333 34.3865 26.7333H36.9999C37.1732 26.7333 37.3332 26.5733 37.3332 26.3733V23.6266C37.3332 23.4266 37.1732 23.2799 36.9599 23.2666Z" fill="white"/>
<path d="M30.3336 37.3337H27.0003C26.4536 37.3337 26.0003 36.8803 26.0003 36.3337C26.0003 35.787 26.4536 35.3337 27.0003 35.3337H30.3336C33.7736 35.3337 36.0003 33.107 36.0003 29.667V28.7337H34.3869C32.3736 28.7337 30.6669 27.2403 30.5069 25.3203C30.4003 24.2137 30.8004 23.1337 31.6004 22.347C32.2671 21.6537 33.2136 21.267 34.2136 21.267H35.9869V20.3337C35.9869 17.2137 34.1604 15.067 31.2004 14.7203C30.8804 14.667 30.6003 14.667 30.3203 14.667H18.3203C18.0003 14.667 17.6936 14.6936 17.387 14.7336C14.4536 15.107 12.6536 17.2403 12.6536 20.3337V23.0003C12.6536 23.547 12.2003 24.0003 11.6536 24.0003C11.107 24.0003 10.6536 23.547 10.6536 23.0003V20.3337C10.6536 16.227 13.187 13.2537 17.1204 12.7603C17.4804 12.707 17.8936 12.667 18.3203 12.667H30.3203C30.6403 12.667 31.0536 12.6803 31.4803 12.747C35.4136 13.2003 37.9869 16.187 37.9869 20.3337V22.267C37.9869 22.8137 37.5336 23.267 36.9869 23.267H34.2136C33.7469 23.267 33.3204 23.4403 33.0137 23.7603C32.6271 24.1337 32.4403 24.6403 32.4936 25.147C32.5603 26.027 33.4137 26.7337 34.3737 26.7337H37.0003C37.5469 26.7337 38.0003 27.187 38.0003 27.7337V29.667C38.0003 34.2537 34.9203 37.3337 30.3336 37.3337Z" fill="white"/>
</svg>
