<svg width="21" height="21" viewBox="0 0 21 21" fill="none" xmlns="http://www.w3.org/2000/svg">
<rect x="1.79541" y="1.78906" width="17.5" height="17.5" rx="6" fill="url(#paint0_radial_2068_17839)"/>
<rect x="1.79541" y="1.78906" width="17.5" height="17.5" rx="6" fill="url(#paint1_radial_2068_17839)"/>
<rect x="1.79541" y="1.78906" width="17.5" height="17.5" rx="6" fill="url(#paint2_radial_2068_17839)"/>
<path d="M14.9204 7.10156C14.9204 7.61933 14.5007 8.03906 13.9829 8.03906C13.4651 8.03906 13.0454 7.61933 13.0454 7.10156C13.0454 6.5838 13.4651 6.16406 13.9829 6.16406C14.5007 6.16406 14.9204 6.5838 14.9204 7.10156Z" fill="white"/>
<path fill-rule="evenodd" clip-rule="evenodd" d="M10.5454 13.6641C12.2713 13.6641 13.6704 12.265 13.6704 10.5391C13.6704 8.81317 12.2713 7.41406 10.5454 7.41406C8.81952 7.41406 7.42041 8.81317 7.42041 10.5391C7.42041 12.265 8.81952 13.6641 10.5454 13.6641ZM10.5454 12.4141C11.5809 12.4141 12.4204 11.5746 12.4204 10.5391C12.4204 9.50353 11.5809 8.66406 10.5454 8.66406C9.50988 8.66406 8.67041 9.50353 8.67041 10.5391C8.67041 11.5746 9.50988 12.4141 10.5454 12.4141Z" fill="white"/>
<path fill-rule="evenodd" clip-rule="evenodd" d="M4.29541 10.2891C4.29541 8.18887 4.29541 7.13877 4.70414 6.3366C5.06366 5.63099 5.63734 5.05731 6.34295 4.69779C7.14511 4.28906 8.19521 4.28906 10.2954 4.28906H10.7954C12.8956 4.28906 13.9457 4.28906 14.7479 4.69779C15.4535 5.05731 16.0272 5.63099 16.3867 6.3366C16.7954 7.13877 16.7954 8.18887 16.7954 10.2891V10.7891C16.7954 12.8893 16.7954 13.9394 16.3867 14.7415C16.0272 15.4471 15.4535 16.0208 14.7479 16.3803C13.9457 16.7891 12.8956 16.7891 10.7954 16.7891H10.2954C8.19521 16.7891 7.14511 16.7891 6.34295 16.3803C5.63734 16.0208 5.06366 15.4471 4.70414 14.7415C4.29541 13.9394 4.29541 12.8893 4.29541 10.7891V10.2891ZM10.2954 5.53906H10.7954C11.8661 5.53906 12.594 5.54003 13.1566 5.586C13.7046 5.63078 13.9849 5.71193 14.1804 5.81155C14.6508 6.05123 15.0332 6.43368 15.2729 6.90409C15.3725 7.09959 15.4537 7.37984 15.4985 7.92786C15.5444 8.49047 15.5454 9.21834 15.5454 10.2891V10.7891C15.5454 11.8598 15.5444 12.5877 15.4985 13.1503C15.4537 13.6983 15.3725 13.9785 15.2729 14.174C15.0332 14.6444 14.6508 15.0269 14.1804 15.2666C13.9849 15.3662 13.7046 15.4473 13.1566 15.4921C12.594 15.5381 11.8661 15.5391 10.7954 15.5391H10.2954C9.22469 15.5391 8.49682 15.5381 7.93421 15.4921C7.38619 15.4473 7.10593 15.3662 6.91043 15.2666C6.44003 15.0269 6.05758 14.6444 5.81789 14.174C5.71828 13.9785 5.63712 13.6983 5.59235 13.1503C5.54638 12.5877 5.54541 11.8598 5.54541 10.7891V10.2891C5.54541 9.21834 5.54638 8.49047 5.59235 7.92786C5.63712 7.37984 5.71828 7.09959 5.81789 6.90409C6.05758 6.43368 6.44003 6.05123 6.91043 5.81155C7.10593 5.71193 7.38619 5.63078 7.93421 5.586C8.49682 5.54003 9.22469 5.53906 10.2954 5.53906Z" fill="white"/>
<defs>
<radialGradient id="paint0_radial_2068_17839" cx="0" cy="0" r="1" gradientUnits="userSpaceOnUse" gradientTransform="translate(8.04541 14.9141) rotate(-55.3758) scale(15.9498)">
<stop stop-color="#B13589"/>
<stop offset="0.79309" stop-color="#C62F94"/>
<stop offset="1" stop-color="#8A3AC8"/>
</radialGradient>
<radialGradient id="paint1_radial_2068_17839" cx="0" cy="0" r="1" gradientUnits="userSpaceOnUse" gradientTransform="translate(7.42041 19.9141) rotate(-65.1363) scale(14.1214)">
<stop stop-color="#E0E8B7"/>
<stop offset="0.444662" stop-color="#FB8A2E"/>
<stop offset="0.71474" stop-color="#E2425C"/>
<stop offset="1" stop-color="#E2425C" stop-opacity="0"/>
</radialGradient>
<radialGradient id="paint2_radial_2068_17839" cx="0" cy="0" r="1" gradientUnits="userSpaceOnUse" gradientTransform="translate(0.857911 2.41406) rotate(-8.1301) scale(24.3068 5.19897)">
<stop offset="0.156701" stop-color="#406ADC"/>
<stop offset="0.467799" stop-color="#6A45BE"/>
<stop offset="1" stop-color="#6A45BE" stop-opacity="0"/>
</radialGradient>
</defs>
</svg>
