<svg width="20" height="21" viewBox="0 0 20 21" fill="none" xmlns="http://www.w3.org/2000/svg">
<rect x="1.25" y="1.78906" width="17.5" height="17.5" rx="8.75" fill="#1275B1"/>
<path d="M7.8866 6.59666C7.8866 7.18075 7.38032 7.65425 6.7558 7.65425C6.13128 7.65425 5.625 7.18075 5.625 6.59666C5.625 6.01256 6.13128 5.53906 6.7558 5.53906C7.38032 5.53906 7.8866 6.01256 7.8866 6.59666Z" fill="white"/>
<path d="M5.77964 8.43162H7.71263V14.2891H5.77964V8.43162Z" fill="white"/>
<path d="M10.8247 8.43162H8.89175V14.2891H10.8247C10.8247 14.2891 10.8247 12.4451 10.8247 11.2921C10.8247 10.6001 11.061 9.90502 12.0039 9.90502C13.0694 9.90502 13.063 10.8106 13.058 11.5122C13.0515 12.4293 13.067 13.3652 13.067 14.2891H15V11.1976C14.9836 9.22367 14.4693 8.31411 12.7771 8.31411C11.7721 8.31411 11.1492 8.77035 10.8247 9.18312V8.43162Z" fill="white"/>
</svg>
