<svg width="102" height="28" viewBox="0 0 102 28" fill="none" xmlns="http://www.w3.org/2000/svg">
<g clip-path="url(#clip0_2068_17811)">
<path fill-rule="evenodd" clip-rule="evenodd" d="M8.62689 11.8356L8.6278 11.815C8.65101 11.3906 8.69278 11.0986 8.79909 10.6906C8.86774 10.4247 8.97497 10.1697 9.09148 9.92946C9.2163 9.67284 9.36158 9.43777 9.52817 9.21142C9.53837 9.19709 9.54301 9.18886 9.5537 9.17448C9.83772 8.80292 10.1793 8.4852 10.5617 8.23837C10.7887 8.09157 11.0286 7.96123 11.2788 7.86885C11.9782 7.6117 12.5885 7.57272 13.3218 7.71279C13.5307 7.75284 13.7103 7.81752 13.9075 7.89349C14.0532 7.94941 14.2013 8.01613 14.334 8.0998L14.496 8.19266C14.522 8.20961 14.5401 8.22602 14.5679 8.2435C14.6213 8.27734 14.6696 8.30921 14.7201 8.34561C14.923 8.49188 15.2154 8.74235 15.3857 8.95176C15.4595 9.04205 15.5402 9.13294 15.608 9.22837L15.6813 9.33871C15.7621 9.45162 15.8345 9.57223 15.9023 9.69492C16.021 9.91096 16.144 10.1558 16.2169 10.3939C16.2364 10.4575 16.2582 10.5094 16.2786 10.5766C16.8086 12.3391 14.7039 11.8951 14.7127 11.6857C14.7016 11.3008 14.7011 11.4111 14.5582 11.0426C14.5187 10.9405 14.4751 10.8363 14.4199 10.7439C14.3099 10.5597 14.2045 10.3949 14.0569 10.2404L13.8973 10.0844C13.462 9.68156 12.8192 9.47937 12.2107 9.59378C11.9722 9.63847 11.7939 9.7031 11.6027 9.80575C11.5104 9.85504 11.4296 9.90941 11.3475 9.96693L10.9641 10.3308C10.895 10.4032 10.837 10.4971 10.7808 10.5817C10.7641 10.6069 10.7516 10.6259 10.7353 10.6521C10.3478 11.2767 10.2707 12.1702 10.5167 12.8271C10.5385 12.8857 10.5478 12.9252 10.5738 12.9796C10.5863 13.0057 10.5924 13.0252 10.6049 13.0529C10.6722 13.1972 10.7465 13.3486 10.8439 13.4702C10.8644 13.4959 10.8676 13.5082 10.8862 13.5328C10.9808 13.6601 11.089 13.7689 11.2041 13.8726C11.3633 14.0163 11.5522 14.1374 11.7531 14.2252C11.9434 14.0943 12.1666 14.0255 12.4019 14.0368C12.7217 14.0522 13.0452 14.1959 13.2573 14.4607C13.3923 14.6291 13.3993 14.6599 13.4861 14.859C13.6007 15.1212 13.5877 15.5175 13.4995 15.7931C13.4545 15.9342 13.3849 16.0656 13.3023 16.1847C13.1617 16.3869 13.0382 16.4649 12.8331 16.5747C12.5435 16.7292 12.129 16.6779 11.8557 16.5367C11.806 16.5111 11.7633 16.4818 11.7155 16.449L11.587 16.3438C11.5345 16.2904 11.4681 16.2191 11.4129 16.139C11.2222 16.0754 11.0347 15.9958 10.8495 15.8999C10.8212 15.8849 10.7948 15.8726 10.7697 15.8567C10.5901 15.7428 10.4044 15.6366 10.2411 15.4985C10.106 15.3845 9.96675 15.2732 9.84841 15.1366C9.83357 15.1197 9.83173 15.1202 9.8178 15.1064C9.80523 15.0936 9.80151 15.0869 9.78947 15.0736L9.35273 14.5033C9.09936 14.1071 8.89747 13.6606 8.7768 13.1915C8.66353 12.7496 8.60276 12.2985 8.62737 11.8346L8.62689 11.8356Z" fill="#035546"/>
<path fill-rule="evenodd" clip-rule="evenodd" d="M16.2169 15.6339L16.2159 15.6544C16.1927 16.0788 16.1509 16.3709 16.0447 16.7789C15.976 17.0447 15.8688 17.2998 15.7523 17.5395C15.6275 17.7961 15.4822 18.0317 15.3155 18.2575C15.3053 18.2719 15.3007 18.2801 15.29 18.2939C15.006 18.666 14.6644 18.9832 14.282 19.2301C14.055 19.3769 13.8151 19.5072 13.5649 19.5991C12.8655 19.8562 12.2552 19.8952 11.5219 19.7556C11.3131 19.7156 11.1335 19.6509 10.9362 19.5749C10.7905 19.519 10.6425 19.4523 10.5097 19.3686L10.3477 19.2758C10.3217 19.2588 10.3037 19.2424 10.2758 19.2249C10.222 19.1911 10.1742 19.1592 10.1236 19.1228C9.92077 18.9765 9.62838 18.7261 9.45806 18.5167C9.38473 18.4263 9.30351 18.3355 9.23573 18.2395L9.16244 18.1292C9.08165 18.0168 9.00928 17.8957 8.9415 17.773C8.82267 17.5575 8.69968 17.3121 8.62683 17.074C8.60735 17.0103 8.58554 16.9585 8.56509 16.8913C8.03509 15.1289 10.1398 15.5728 10.131 15.7822C10.1426 16.1671 10.1431 16.0568 10.2856 16.4253C10.325 16.5274 10.3686 16.6316 10.4238 16.7239C10.5339 16.9082 10.6392 17.0729 10.7868 17.2274L10.9464 17.3834C11.3818 17.7863 12.0241 17.988 12.633 17.8741C12.8716 17.8295 13.0498 17.7648 13.241 17.6621C13.3334 17.6129 13.4141 17.5585 13.4967 17.501L13.8801 17.1371C13.9492 17.0648 14.0072 16.9708 14.0634 16.8862C14.0801 16.8605 14.0926 16.842 14.1089 16.8153C14.4964 16.1913 14.5734 15.2977 14.3275 14.6408C14.3057 14.5823 14.2964 14.5427 14.2704 14.4884C14.2574 14.4617 14.2518 14.4426 14.2393 14.415C14.172 14.2707 14.0977 14.1193 14.0003 13.9977C13.9799 13.972 13.9766 13.9597 13.958 13.9351C13.8634 13.8078 13.7552 13.699 13.6401 13.5953C13.481 13.4516 13.292 13.3305 13.0911 13.2428C12.9008 13.3736 12.6776 13.4424 12.4423 13.4311C12.1225 13.4157 11.799 13.272 11.5869 13.0072C11.4518 12.8388 11.4449 12.808 11.3576 12.6089C11.2435 12.3466 11.2565 11.9504 11.3442 11.6749C11.3892 11.5332 11.4588 11.4023 11.5414 11.2832C11.6821 11.081 11.8055 11.003 12.0107 10.8932C12.3002 10.7387 12.7147 10.79 12.988 10.9312C13.0377 10.9568 13.0804 10.9861 13.1282 11.0189L13.2568 11.1246C13.3092 11.178 13.3756 11.2489 13.4308 11.3294C13.622 11.3931 13.8091 11.4726 13.9942 11.5691C14.0226 11.584 14.049 11.5963 14.074 11.6122C14.2537 11.7262 14.4393 11.8324 14.6027 11.9704C14.7377 12.0844 14.877 12.1958 14.9953 12.3323C15.0102 12.3492 15.012 12.3487 15.0259 12.3626C15.0385 12.3754 15.0422 12.3826 15.0543 12.3954L15.491 12.9656C15.7444 13.3623 15.9463 13.8083 16.067 14.2774C16.1807 14.7193 16.2414 15.1699 16.2169 15.6339Z" fill="#FF6842"/>
<path fill-rule="evenodd" clip-rule="evenodd" d="M4.86983 13.7873L4.90232 12.9595C4.91252 12.8799 4.91484 12.8112 4.9246 12.7316C4.94365 12.5787 4.95941 12.4396 4.98354 12.2918C5.02299 12.0495 5.07172 11.8181 5.12789 11.584H3.84834C3.76944 11.9515 3.7091 12.3631 3.67522 12.7521C3.65108 13.0283 3.63159 13.3157 3.63159 13.5923L3.64645 14.3011C3.65155 14.5289 3.6729 14.7522 3.70074 14.9744C3.81306 15.8592 4.00381 16.7081 4.33147 17.5123L4.45678 17.8218C4.47163 17.8541 4.48648 17.887 4.50133 17.9193L4.68048 18.3078C4.73756 18.4356 4.80904 18.5578 4.87495 18.6799C4.89304 18.7138 4.90744 18.7374 4.92552 18.7702L5.30237 19.3882L5.53302 19.7202C5.55255 19.7474 5.57247 19.7747 5.592 19.8018L6.0287 20.3458C6.07607 20.3982 6.11784 20.4444 6.16517 20.4968C6.2111 20.5475 6.25195 20.5927 6.29788 20.6435C6.40322 20.7605 6.52809 20.8888 6.64504 20.993C6.66916 21.0146 6.69561 21.0361 6.71789 21.0592C6.94995 21.2979 7.36997 21.6084 7.63963 21.8085C7.77422 21.9081 7.91621 21.9897 8.05544 22.0821C8.08285 22.1006 8.1107 22.119 8.13995 22.1355C8.17427 22.1545 8.19332 22.1689 8.22581 22.1868L8.40028 22.2874C8.73072 22.4706 9.07976 22.641 9.43108 22.7693C10.0697 23.0033 10.7092 23.1768 11.3915 23.2497C11.591 23.2712 11.8022 23.2908 12.0027 23.298H12.5578C12.7527 23.2928 13.2446 23.2456 13.4006 23.221C13.7152 23.1722 14.0183 23.1163 14.3028 23.0367C14.5827 22.9587 14.85 22.8709 15.1238 22.7708C15.4468 22.6528 15.7606 22.5014 16.0641 22.3357C16.0943 22.3192 16.123 22.3074 16.1551 22.2895L16.5853 22.0318C16.6447 21.9949 16.6934 21.961 16.7519 21.9225C16.7825 21.9025 16.8039 21.8866 16.8336 21.8665C17.1988 21.6176 17.4369 21.4139 17.7664 21.1296L17.9451 20.9607C17.9614 20.9458 17.9655 20.9453 17.9818 20.9279C17.9953 20.9135 18.0013 20.9042 18.0157 20.8919C18.1985 20.7303 18.3614 20.5327 18.5271 20.3495C18.574 20.2976 18.6088 20.2504 18.6561 20.1986L19.0233 19.7243C19.2567 19.3953 19.3774 19.2009 19.5806 18.8657L19.7807 18.5003C19.7964 18.468 19.8118 18.4366 19.8285 18.4064C20.0526 17.9963 20.3079 17.3183 20.4499 16.8852C20.5441 16.5967 20.6207 16.2862 20.6922 15.9716C20.7808 15.5831 20.8476 15.1366 20.8848 14.7173C20.9112 14.4155 20.9242 14.1497 20.9284 13.872V13.427C20.9242 13.2115 20.881 12.6695 20.8592 12.495C21.0765 12.2656 21.212 11.9417 21.212 11.5835C21.212 10.8876 20.7014 10.323 20.0721 10.323C19.4423 10.323 18.9323 10.8876 18.9323 11.5835C18.9323 12.1096 19.2237 12.5607 19.6377 12.7496C19.6452 12.8189 19.6475 12.8815 19.6568 12.9528C19.6841 13.1683 19.6902 13.5861 19.6902 13.7873C19.6902 13.9598 19.6795 14.1122 19.6758 14.2764C19.6684 14.589 19.5663 15.2972 19.4971 15.6031C19.3945 16.0594 19.2711 16.5115 19.1008 16.9411C19.0766 17.0022 19.0562 17.0617 19.0293 17.1228L18.8005 17.6278C18.6942 17.8464 18.5796 18.0579 18.4547 18.2642C18.4445 18.2812 18.4417 18.2868 18.432 18.3043C18.4208 18.3243 18.418 18.3258 18.4074 18.3422L18.264 18.5665C18.1415 18.7461 18.0208 18.933 17.882 19.0977C17.7989 19.1967 17.7214 19.2999 17.6351 19.3954L17.5502 19.497C17.54 19.5103 17.5321 19.518 17.5209 19.5298L17.403 19.652C17.3088 19.7562 17.2109 19.8604 17.1055 19.9507C17.0903 19.964 17.0879 19.9686 17.0744 19.982C17.0605 19.9958 17.0564 19.9968 17.042 20.0107C16.8359 20.2094 16.6122 20.3874 16.3848 20.5552C16.3374 20.5896 16.2933 20.6255 16.2474 20.6559C16.1992 20.6877 16.1555 20.7195 16.1063 20.7524C16.0803 20.7698 16.0585 20.7826 16.0316 20.8C15.8116 20.9453 15.5782 21.0675 15.3489 21.1937C15.0755 21.3441 14.6286 21.515 14.3432 21.6058C13.9622 21.727 13.5895 21.8045 13.1922 21.8655C12.872 21.9148 12.5559 21.9271 12.2311 21.9271C11.3158 21.9271 10.3881 21.7264 9.54015 21.3497C9.2176 21.206 8.91037 21.0336 8.60546 20.8514L8.18264 20.5614C7.94502 20.3864 7.63591 20.1416 7.42846 19.9286C7.33888 19.8362 7.24557 19.751 7.15928 19.6555L6.98616 19.4642C6.96759 19.4411 6.94763 19.4215 6.92723 19.3989C6.86085 19.3256 6.76339 19.2173 6.70721 19.1367C6.68729 19.1085 6.67661 19.0987 6.65664 19.07C6.5731 18.9509 6.48077 18.8411 6.39863 18.7194C6.26728 18.5254 6.13128 18.3288 6.01898 18.1205L5.49778 17.0422C5.30425 16.5849 5.17474 16.0974 5.06335 15.6072C4.99794 15.3209 4.96222 15.0411 4.9246 14.7419L4.88375 14.282C4.87587 14.1163 4.86891 13.9577 4.86891 13.7847L4.86983 13.7873ZM5.70106 7.40329C5.73075 7.40329 5.76 7.4043 5.78925 7.40687C5.80824 7.38377 5.82546 7.36373 5.84073 7.34683C5.86674 7.3186 5.87743 7.29754 5.90339 7.26931C5.95072 7.21799 5.98552 7.17025 6.03242 7.11845L6.3016 6.82077C6.38978 6.72272 6.48816 6.63548 6.57774 6.53951L6.68497 6.43842C6.8901 6.24799 7.10035 6.06376 7.3208 5.89488L7.64379 5.65676C7.77794 5.5577 7.92133 5.47505 8.05965 5.3832C8.14459 5.32674 8.23412 5.28363 8.31863 5.22923C8.47314 5.13018 8.70055 5.02599 8.86439 4.94439C9.5796 4.58821 10.3834 4.36546 11.1594 4.24691C11.3168 4.22278 11.8073 4.17505 12.0027 4.16992H12.4046C12.6557 4.17454 12.8961 4.18891 13.169 4.21817C13.5482 4.25871 13.9524 4.33313 14.3033 4.43065C14.65 4.52713 14.9925 4.6385 15.3234 4.77759C15.3921 4.80633 15.4482 4.82942 15.515 4.85919C15.7295 4.95362 16.0414 5.10502 16.2465 5.23179C16.3319 5.28465 16.421 5.3293 16.5055 5.38577L16.8387 5.60389C16.8675 5.62287 16.8925 5.63826 16.9209 5.65981C17.0554 5.75941 17.1905 5.85077 17.3204 5.95956L17.5492 6.14689C17.6876 6.26237 17.8156 6.39068 17.9502 6.51027L18.0565 6.61292C18.082 6.64162 18.101 6.65397 18.1266 6.6822C18.173 6.73454 18.2161 6.77303 18.263 6.82484L18.5322 7.12251C18.5791 7.17437 18.6139 7.22157 18.6613 7.27343L18.9689 7.66653C19.1453 7.91652 19.3207 8.1649 19.4804 8.42974C19.5175 8.49133 19.5477 8.5457 19.5853 8.60729L19.6154 8.66374H18.1029C18.0894 8.64477 18.0756 8.62579 18.0607 8.60574L17.7971 8.26188C17.7799 8.23675 17.7646 8.22189 17.7437 8.19879C17.72 8.17313 17.7122 8.15517 17.6885 8.12951L17.4597 7.87695C17.3279 7.73277 17.2592 7.66963 17.1315 7.53876L17.0684 7.47872C16.693 7.14357 16.4447 6.94138 16.0242 6.66114C15.9986 6.64419 15.9787 6.63034 15.9545 6.61596C15.4612 6.32086 15.0523 6.10632 14.5093 5.91594C14.2053 5.80918 13.9009 5.72861 13.5862 5.66601C13.4521 5.63928 13.3268 5.62132 13.1885 5.60079C13.1161 5.59004 13.0539 5.58747 12.9819 5.57619C12.9513 5.57154 12.9003 5.56593 12.8748 5.56486C12.4659 5.54332 12.1948 5.53359 11.7841 5.55668C11.753 5.55871 11.76 5.56229 11.7321 5.56438C11.7131 5.56593 11.6945 5.56384 11.6746 5.56641L11.3682 5.60234C11.229 5.62388 11.0917 5.64136 10.9645 5.66906C10.7115 5.72348 10.4637 5.78555 10.2191 5.86307C9.92023 5.95801 9.49698 6.11867 9.21247 6.27365L8.45462 6.71556C8.21836 6.87311 7.99279 7.04964 7.77234 7.23237L7.27623 7.69428C7.25302 7.72042 7.23678 7.72919 7.21357 7.75533L7.09938 7.88161C7.07618 7.90417 7.06365 7.91288 7.04045 7.93854L6.92631 8.07305C6.87526 8.12951 6.82744 8.18853 6.7792 8.24803C6.82048 8.37842 6.84277 8.51849 6.84277 8.66428C6.84277 9.36018 6.33225 9.92474 5.7029 9.92474C5.07312 9.92474 4.56306 9.36018 4.56306 8.66428C4.56306 7.96784 5.0736 7.40377 5.7029 7.40377L5.70106 7.40329Z" fill="#05354D"/>
<path fill-rule="evenodd" clip-rule="evenodd" d="M2.08294 13.7892L2.12796 12.6416C2.14234 12.5292 2.14512 12.4322 2.15905 12.3193C2.1855 12.1027 2.20825 11.9072 2.24213 11.6983C2.3071 11.299 2.39018 10.9192 2.48718 10.5317C2.73037 9.56116 3.11372 8.64093 3.57365 7.77615C3.69246 7.55241 3.82195 7.33172 3.96025 7.12231C4.17467 6.79641 4.38491 6.4587 4.63321 6.16359C4.75063 6.024 4.8597 5.87827 4.98177 5.74376L5.1428 5.55387C5.17572 5.51746 5.19293 5.50564 5.22586 5.4733L5.38689 5.29471C5.41986 5.25827 5.44259 5.24544 5.47556 5.209L6.17588 4.55668C6.48731 4.29904 6.80571 4.05013 7.13938 3.8279L8.20871 3.20433C8.61017 2.98467 9.20746 2.75833 9.62932 2.62438C9.97459 2.51455 10.3246 2.42679 10.6814 2.35032C10.8615 2.31182 11.0555 2.28668 11.2519 2.2564L11.6844 2.20559C11.7118 2.20251 11.7382 2.20559 11.7656 2.20353C11.8046 2.19994 11.7953 2.19481 11.839 2.19276C12.4181 2.15991 12.801 2.17377 13.3784 2.20405C13.4146 2.2061 13.487 2.2138 13.5301 2.22047C13.6318 2.23638 13.7195 2.23946 13.8216 2.25486C14.017 2.28411 14.1938 2.30926 14.3832 2.34672C14.8273 2.43551 15.2575 2.54945 15.6864 2.69983C16.4522 2.96876 17.0304 3.27105 17.7262 3.68728C17.7605 3.70781 17.7883 3.72731 17.824 3.75143C18.4181 4.14662 18.7685 4.43197 19.2981 4.90465L19.3877 4.98985C19.5673 5.17461 19.6642 5.26391 19.8504 5.46715L20.1729 5.82331C20.2059 5.85977 20.2174 5.8849 20.2509 5.92136C20.2806 5.95418 20.3019 5.97471 20.3265 6.01064L20.6988 6.49618C20.7493 6.56445 20.792 6.62347 20.8407 6.6958C20.8658 6.7328 20.8862 6.75947 20.9094 6.79283C20.934 6.82822 20.953 6.86158 20.9791 6.90007C21.0296 6.97401 21.07 7.04175 21.1174 7.11515L21.6232 7.99325C21.7017 8.15289 21.7741 8.29146 21.8488 8.45724L22.1124 9.06333C22.1319 9.10952 22.144 9.14443 22.162 9.19266C22.1955 9.28097 22.2247 9.35432 22.2572 9.44414C22.3208 9.61971 22.3802 9.79057 22.4345 9.97276C22.4893 10.156 22.5408 10.3243 22.59 10.5137C22.6898 10.8981 22.7673 11.2846 22.8364 11.6792C22.8712 11.8784 22.894 12.0929 22.9213 12.31C22.9353 12.4224 22.9381 12.5189 22.9524 12.6324C22.9914 12.9362 22.9998 13.5264 22.9998 13.8102C22.9998 14.0535 22.9849 14.2685 22.9794 14.5005C22.9784 14.5405 22.9766 14.5852 22.9733 14.6329H24.7221C24.736 14.3942 24.7439 14.1648 24.7476 13.9293V13.3016C24.7416 12.9972 24.6803 12.2315 24.6497 11.9862C24.4947 10.7447 24.219 9.53246 23.7595 8.40383C23.6546 8.1462 23.5233 7.79518 23.3957 7.55241C23.3265 7.42052 23.2717 7.2804 23.1998 7.14797L22.8503 6.49874C22.7979 6.41203 22.7552 6.33504 22.7023 6.24779C22.4772 5.87463 22.2294 5.52414 21.9806 5.17102L21.5467 4.61571C21.4798 4.54231 21.4306 4.47611 21.3643 4.40323L20.9846 3.98341C20.9183 3.91002 20.8579 3.85562 20.792 3.78222C20.7558 3.74219 20.7294 3.72474 20.6932 3.6842L20.5433 3.53947C20.3539 3.37061 20.1724 3.18944 19.9775 3.02675L19.6549 2.76244C19.4721 2.6095 19.2809 2.48016 19.0911 2.33954C19.0512 2.30977 19.0154 2.2877 18.975 2.2605L18.5044 1.95256C18.3852 1.87301 18.2594 1.80989 18.1392 1.73547C17.8496 1.55635 17.4096 1.34285 17.107 1.20941C17.0123 1.16784 16.9334 1.13499 16.8364 1.09445C16.3691 0.89788 15.886 0.740832 15.3968 0.604827C14.9011 0.466767 14.3312 0.36207 13.7956 0.304589C13.4104 0.263017 13.0712 0.243 12.7165 0.236328H12.1489C11.8738 0.243513 11.1813 0.310746 10.9595 0.344619C9.86461 0.511931 8.72943 0.826541 7.72 1.32899C7.48886 1.44395 7.16771 1.59125 6.95002 1.73085C6.83075 1.80783 6.70404 1.86788 6.58434 1.94795C6.38941 2.07831 6.18656 2.19429 5.99719 2.33441L5.54193 2.67006C5.2305 2.90871 4.93395 3.1684 4.64435 3.43733L4.49258 3.58001C4.36634 3.71602 4.22758 3.83919 4.10273 3.97725L3.72309 4.39707C3.65672 4.47046 3.60753 4.53718 3.54116 4.60955C3.50496 4.64958 3.48918 4.67883 3.45252 4.71886C3.2316 4.95957 2.68396 5.75766 2.53544 5.99423C2.48161 6.07993 2.4338 6.15691 2.38368 6.24058L2.09315 6.74712C1.97759 6.96118 1.85366 7.18235 1.75295 7.40561L1.62486 7.67815C1.60351 7.72589 1.58866 7.76845 1.56638 7.8203C1.54457 7.87061 1.52647 7.90809 1.50373 7.95834C1.30974 8.38432 1.15657 8.83853 1.00992 9.2876C0.877182 9.6946 0.76905 10.1334 0.667875 10.5774C0.54303 11.1255 0.448349 11.7552 0.396369 12.3475C0.362025 12.737 0.334639 13.143 0.334639 13.5336L0.341608 13.8518C0.187988 14.0668 0.0965576 14.3378 0.0965576 14.6329C0.0965576 15.3294 0.607077 15.8934 1.23641 15.8934C1.86574 15.8934 2.37624 15.3288 2.37624 14.6329C2.37624 14.3085 2.26487 14.0124 2.08294 13.7892ZM23.0722 17.0979C23.7015 17.0979 24.212 17.6625 24.212 18.3584C24.212 18.848 23.9595 19.2725 23.5911 19.4814C23.4611 19.7939 23.3246 20.0936 23.1957 20.3297C23.172 20.3729 23.1511 20.417 23.1284 20.4627L22.8462 20.9785C22.5589 21.4516 22.389 21.7262 22.0595 22.1902L21.5415 22.8594C21.4752 22.9318 21.4255 22.999 21.3591 23.0724C21.1252 23.3311 20.896 23.6103 20.637 23.8387C20.6171 23.8561 20.6083 23.8695 20.5892 23.8895C20.5665 23.9141 20.5604 23.9146 20.5377 23.9357L20.2852 24.1738C19.8197 24.5746 19.4841 24.8631 18.9686 25.2136C18.9263 25.2424 18.8961 25.2644 18.853 25.2926C18.7708 25.3471 18.7017 25.3943 18.6177 25.4466L18.0106 25.8105C17.9652 25.8356 17.9247 25.8526 17.8821 25.8757C17.4532 26.1092 17.0105 26.3232 16.5547 26.4895C16.1691 26.6307 15.7913 26.7548 15.3963 26.8647C14.9944 26.9766 14.5669 27.0556 14.1228 27.1244C13.9023 27.1588 13.2085 27.226 12.9333 27.2326H12.1494C11.8668 27.2229 11.5679 27.1947 11.2867 27.1649C10.3241 27.0618 9.42139 26.8169 8.51918 26.4864C8.02302 26.3048 7.53063 26.065 7.06421 25.8064L6.81774 25.6647C6.77133 25.6391 6.74441 25.6185 6.69664 25.5919C6.65531 25.5688 6.61634 25.5426 6.57733 25.517C6.38148 25.3855 6.18052 25.2716 5.99072 25.1305C5.61015 24.8477 5.01701 24.4089 4.68982 24.0727C4.65826 24.0404 4.62068 24.0096 4.5868 23.9798C4.42157 23.8325 4.24567 23.6508 4.09669 23.4866C4.03172 23.4147 3.97463 23.3516 3.90919 23.2793C3.84236 23.2053 3.78343 23.1402 3.71659 23.0663L3.10026 22.2985C3.07287 22.26 3.04456 22.222 3.01718 22.1835L2.69184 21.7149L2.15997 20.8425C2.13398 20.7957 2.11403 20.7624 2.08804 20.7146C1.99522 20.5427 1.89451 20.3698 1.81376 20.1896L1.56082 19.641C1.5404 19.5948 1.51904 19.5491 1.49816 19.5029L1.32133 19.0662C1.22619 18.8326 1.13941 18.5965 1.06005 18.3579H2.94803L2.96845 18.4062L3.70406 19.9279C3.86279 20.2219 4.05493 20.4991 4.23964 20.7732C4.35567 20.9446 4.48561 21.0996 4.60396 21.2674C4.63227 21.3074 4.64713 21.3213 4.67544 21.3613C4.7548 21.4747 4.8917 21.6277 4.98592 21.7314C5.01469 21.7632 5.04253 21.7904 5.06898 21.8237L5.3136 22.0937C5.43519 22.2282 5.56698 22.3493 5.69325 22.4791C5.98607 22.7799 6.42282 23.1253 6.75789 23.3721L7.35471 23.7817C7.78497 24.0389 8.21935 24.2826 8.67417 24.4848C9.87065 25.017 11.1804 25.2998 12.472 25.2998C12.9305 25.2998 13.3765 25.2824 13.829 25.2131C14.3887 25.1269 14.915 25.0176 15.4529 24.8467C15.8553 24.7189 16.4865 24.4771 16.8722 24.2652C17.1961 24.0871 17.5256 23.9146 17.8361 23.7093C17.8742 23.6842 17.9048 23.6668 17.9415 23.6421C18.0111 23.5959 18.0723 23.5508 18.1406 23.5056C18.2051 23.463 18.2682 23.4127 18.3346 23.3634C18.6557 23.1268 18.9713 22.8753 19.2623 22.5946C19.2827 22.5751 19.2888 22.5736 19.3088 22.5535C19.3273 22.5351 19.3306 22.5284 19.3524 22.5099C19.5004 22.3826 19.6392 22.2353 19.7719 22.0881L19.9385 21.9156C19.9539 21.8987 19.9655 21.8874 19.9798 21.8689L20.1001 21.7257C20.2216 21.5912 20.3311 21.4455 20.4486 21.3059C20.644 21.0734 20.8143 20.8096 20.9874 20.5561L21.1893 20.2389C21.2046 20.2153 21.2083 20.2132 21.2236 20.185C21.2376 20.1603 21.2408 20.1526 21.2557 20.1285C21.4316 19.837 21.594 19.5393 21.7439 19.2304L21.9778 18.7136C21.9476 18.6007 21.9314 18.4811 21.9314 18.3574C21.9314 17.6609 22.4419 17.0969 23.0713 17.0969L23.0722 17.0979Z" fill="#05354D"/>
<path d="M12.7398 22.4689C12.7398 22.3394 12.5974 22.2344 12.4216 22.2344C12.2459 22.2344 12.1035 22.3394 12.1035 22.4689V25.3383C12.1035 25.4679 12.2459 25.5729 12.4216 25.5729C12.5974 25.5729 12.7398 25.4679 12.7398 25.3383V22.4689Z" fill="#048069"/>
<path d="M12.7398 1.8029C12.7398 1.67337 12.5974 1.56836 12.4216 1.56836C12.2459 1.56836 12.1035 1.67337 12.1035 1.8029V4.67236C12.1035 4.8019 12.2459 4.90691 12.4216 4.90691C12.5974 4.90691 12.7398 4.8019 12.7398 4.67236V1.8029Z" fill="#FF6842"/>
<path d="M27.7532 7.82571C27.7532 4.99063 29.0327 3.57617 31.5913 3.57617C34.1564 3.57617 35.4388 4.99063 35.4388 7.82571V10.6207H32.4727V7.82571C32.4727 7.09025 32.1808 6.72019 31.6002 6.71356H31.5821C31.0075 6.71356 30.7193 7.08308 30.7193 7.82571V9.5794C30.7193 10.379 31.479 11.3834 32.9985 12.5895C34.6243 13.8695 35.4388 15.4045 35.4388 17.1947V19.6371C35.4388 22.4758 34.1593 23.8964 31.6006 23.8964C29.036 23.8898 27.7532 22.4722 27.7532 19.6371V16.8421H30.7193V19.6371C30.7193 20.3762 31.014 20.7493 31.6006 20.7493C32.1812 20.7493 32.4731 20.3762 32.4731 19.6371V17.4333C32.4731 16.5598 31.7134 15.5185 30.1939 14.3124C28.5682 13.0324 27.7537 11.4738 27.7537 9.63639L27.7532 7.82571Z" fill="#05354D"/>
<path d="M44.547 3.87695V7.01791H42.1856V23.5819H39.2223V7.01791H36.8641V3.87695H44.547Z" fill="#05354D"/>
<path d="M53.1654 16.5142L54.01 23.5819H51.0199L50.5272 19.4868H48.3484L47.8499 23.5819H44.8657L45.7136 16.5444L47.519 3.87695H51.3665L53.1654 16.5142ZM50.1444 16.3361L49.4337 10.3734L48.7225 16.3361H50.1444Z" fill="#05354D"/>
<path d="M60.5438 13.7294L63.9443 23.5819H60.7749L58.4862 15.7279V23.5819H55.5237V3.87695H58.4862V11.7006L60.7749 3.87695H63.9443L60.5438 13.7294Z" fill="#05354D"/>
<path d="M65.4604 3.87695H72.4414V7.01791H68.4235V12.1538H71.8791V15.305H68.4235V20.4409H72.4414V23.5819H65.4604V3.87695Z" fill="#05354D"/>
<path d="M74.3098 3.87695H78.1996C80.5854 3.88363 81.7795 5.30425 81.7795 8.13984V11.0422C81.7795 13.1217 80.9287 14.4721 79.2235 15.0869C78.8131 15.2311 78.2267 15.305 77.4609 15.305H77.2724V23.5824H74.3093V3.87747L74.3098 3.87695ZM77.2728 7.01791V12.1538H77.6311C77.9506 12.1538 78.1571 12.1338 78.2542 12.0968C78.6284 11.9321 78.8136 11.5795 78.8136 11.0416V8.13931C78.8136 7.39 78.525 7.01742 77.9414 7.01742L77.2728 7.01791Z" fill="#05354D"/>
<path d="M83.6486 3.87695H87.5384C89.9242 3.88363 91.1183 5.30425 91.1183 8.13984V11.0422C91.1183 12.8261 90.4709 13.9814 89.1763 14.5054L92.0358 23.5819H88.8021L86.7721 15.1064H86.6111V23.5819H83.6481V3.87695H83.6486ZM86.6116 7.01791V12.1538H86.9703C87.2899 12.1538 87.4963 12.1338 87.593 12.0968C87.9672 11.9321 88.1523 11.5795 88.1523 11.0416V8.13931C88.1523 7.39 87.8637 7.01742 87.2802 7.01742L86.6116 7.01791Z" fill="#05354D"/>
<path d="M100.968 19.6366C100.968 22.4717 99.6855 23.8892 97.1203 23.8959C94.5619 23.8959 93.2822 22.4748 93.2822 19.6366V7.82571C93.2822 4.99063 94.5619 3.57617 97.1203 3.57617C99.6855 3.57617 100.968 4.99063 100.968 7.82571V19.6366ZM98.0016 7.82571C98.0016 7.09025 97.7101 6.72019 97.1295 6.71356H97.1111C96.5373 6.71356 96.2486 7.08308 96.2486 7.82571V19.6366C96.2486 20.3757 96.5402 20.7488 97.1203 20.7488C97.7072 20.7488 98.0016 20.3757 98.0016 19.6366V7.82571Z" fill="#05354D"/>
</g>
<defs>
<clipPath id="clip0_2068_17811">
<rect width="101.04" height="27.2653" fill="white"/>
</clipPath>
</defs>
</svg>
