<svg width="40" height="40" viewBox="0 0 40 40" fill="none" xmlns="http://www.w3.org/2000/svg">
<path d="M15 3.33398C10.6334 3.33398 7.08337 6.88398 7.08337 11.2507C7.08337 15.534 10.4334 19.0007 14.8 19.1507C14.9334 19.134 15.0667 19.134 15.1667 19.1507C15.2 19.1507 15.2167 19.1507 15.25 19.1507C15.2667 19.1507 15.2667 19.1507 15.2834 19.1507C19.55 19.0007 22.9 15.534 22.9167 11.2507C22.9167 6.88398 19.3667 3.33398 15 3.33398Z" fill="#31FFDA"/>
<path d="M23.4667 23.5828C18.8167 20.4828 11.2334 20.4828 6.55006 23.5828C4.43339 24.9995 3.26672 26.9161 3.26672 28.9661C3.26672 31.0161 4.43339 32.9161 6.53339 34.3161C8.86672 35.8828 11.9334 36.6661 15.0001 36.6661C18.0667 36.6661 21.1334 35.8828 23.4667 34.3161C25.5667 32.8995 26.7334 30.9995 26.7334 28.9328C26.7167 26.8828 25.5667 24.9828 23.4667 23.5828Z" fill="#31FFDA"/>
<path d="M33.3167 12.2342C33.5834 15.4675 31.2834 18.3008 28.1001 18.6842C28.0834 18.6842 28.0834 18.6842 28.0667 18.6842H28.0167C27.9167 18.6842 27.8167 18.6841 27.7334 18.7175C26.1167 18.8008 24.6334 18.2841 23.5167 17.3341C25.2334 15.8008 26.2167 13.5008 26.0167 11.0008C25.9001 9.65082 25.4334 8.41748 24.7334 7.36748C25.3667 7.05082 26.1001 6.85082 26.8501 6.78415C30.1167 6.50082 33.0334 8.93415 33.3167 12.2342Z" fill="#31FFDA"/>
<path d="M36.65 27.6494C36.5166 29.266 35.4833 30.666 33.75 31.616C32.0833 32.5327 29.9833 32.966 27.9 32.916C29.1 31.8327 29.8 30.4827 29.9333 29.0494C30.1 26.9827 29.1167 24.9994 27.15 23.416C26.0333 22.5327 24.7333 21.8327 23.3167 21.316C27 20.2494 31.6333 20.966 34.4833 23.266C36.0167 24.4994 36.8 26.0494 36.65 27.6494Z" fill="#31FFDA"/>
</svg>
