<svg width="1185" height="230" viewBox="0 0 1185 230" fill="none" xmlns="http://www.w3.org/2000/svg">
<g filter="url(#filter0_d_2977_65140)">
<path d="M15 21C15 15.4772 19.4772 11 25 11H1185V211H25C19.4772 211 15 206.523 15 201V21Z" fill="url(#paint0_linear_2977_65140)" shape-rendering="crispEdges"/>
<g clip-path="url(#clip0_2977_65140)">
<path d="M108.209 174.17C106.521 174.17 104.909 173.831 103.713 173.134L44.8291 139.132C43.646 138.447 43 137.501 43 136.458C43 135.21 43.9338 133.95 45.5646 133.01L157.858 68.1661C160.909 66.4004 165.552 66.2149 168.2 67.7439L227.078 101.746C228.261 102.43 228.907 103.377 228.907 104.42C228.907 105.667 227.973 106.928 226.342 107.868L114.049 172.712C112.379 173.678 110.237 174.17 108.203 174.17H108.209ZM103.835 172.916C106.412 174.407 110.94 174.215 113.921 172.494L226.214 107.644C227.762 106.749 228.651 105.571 228.651 104.42C228.651 103.473 228.043 102.603 226.95 101.97L168.072 67.9678C165.495 66.4772 160.967 66.6691 157.986 68.39L45.6925 133.234C44.1448 134.129 43.2558 135.306 43.2558 136.458C43.2558 137.405 43.8634 138.275 44.957 138.908L103.835 172.91V172.916Z" fill="#42E8E0"/>
<path d="M45.1431 122.796L45.143 122.796C43.9543 122.11 43.5407 121.242 43.6417 120.43C43.7475 119.579 44.4376 118.595 45.8786 117.764L45.8786 117.764L158.172 52.9136C158.172 52.9136 158.172 52.9136 158.172 52.9136C159.603 52.0875 161.421 51.6196 163.203 51.5455C164.991 51.4713 166.685 51.7951 167.885 52.4909L167.886 52.4913L226.764 86.4933L226.764 86.4933C227.953 87.1794 228.366 88.047 228.265 88.859C228.159 89.71 227.469 90.6937 226.028 91.5256L226.278 91.9587L226.028 91.5257L113.741 156.376C113.741 156.376 113.741 156.376 113.741 156.376C112.31 157.202 110.492 157.67 108.71 157.744C106.923 157.818 105.228 157.494 104.028 156.798L103.912 156.731H103.905L45.1431 122.796Z" stroke="#022738"/>
<path d="M226.285 91.9591L113.991 156.809C110.966 158.556 106.393 158.748 103.777 157.231L44.8931 123.229C43.8442 122.622 43.275 121.835 43.1535 120.997C42.9936 122.084 43.5564 123.146 44.8931 123.92L103.771 157.922C106.387 159.432 110.959 159.247 113.985 157.5L226.278 92.6501C228.088 91.6073 228.926 90.2383 228.747 88.9844C228.593 90.0335 227.762 91.1019 226.278 91.9591H226.285Z" fill="#05AA8C"/>
<path opacity="0.51" d="M103.892 155.913L47.106 123.114C44.5733 121.649 44.8931 119.096 47.8159 117.407L158.031 53.7729C160.954 52.084 165.38 51.8985 167.912 53.3635L224.692 86.1628C227.225 87.6277 226.905 90.1803 223.982 91.8692L113.774 155.504C110.851 157.193 106.425 157.378 103.892 155.913Z" fill="#022738"/>
<path style="mix-blend-mode:lighten" opacity="0.8" d="M108.184 155.618C106.54 155.618 104.973 155.285 103.803 154.613L47.0164 121.808C45.8524 121.136 45.2129 120.202 45.2129 119.172C45.2129 117.944 46.1274 116.709 47.7263 115.781L157.941 52.1533C160.909 50.4388 165.431 50.2533 168.008 51.7439L224.788 84.5431C225.952 85.2148 226.592 86.1488 226.592 87.1788C226.592 88.4071 225.677 89.6418 224.078 90.5694L113.863 154.197C112.239 155.131 110.154 155.611 108.177 155.611L108.184 155.618ZM103.982 154.293C106.463 155.726 110.812 155.541 113.684 153.884L223.893 90.2559C225.37 89.3987 226.221 88.2791 226.221 87.1852C226.221 86.2896 225.645 85.4707 224.603 84.863L167.823 52.0637C165.341 50.6307 160.992 50.8162 158.121 52.4732L47.9118 116.101C46.4344 116.958 45.5838 118.078 45.5838 119.172C45.5838 120.068 46.1594 120.886 47.2019 121.494L103.982 154.293Z" fill="url(#paint1_linear_2977_65140)"/>
<path opacity="0.4" d="M212.566 90.1476C211.696 90.6466 210.296 90.6466 209.426 90.1476C208.556 89.6486 208.556 88.8361 209.426 88.3371C210.296 87.8381 211.696 87.8381 212.566 88.3371C213.436 88.8361 213.436 89.6486 212.566 90.1476Z" fill="#24126A"/>
<path opacity="0.4" d="M200.587 81.4157L206.733 84.9663C207.482 85.4013 207.392 86.1562 206.522 86.6552C205.653 87.1542 204.341 87.2117 203.593 86.7767L197.447 83.2262C196.699 82.7912 196.788 82.0363 197.658 81.5373C198.528 81.0383 199.839 80.9807 200.587 81.4157Z" fill="#24126A"/>
<path opacity="0.4" d="M165.539 60.1306L171.686 63.6811C172.434 64.1161 172.344 64.871 171.475 65.37C170.605 65.869 169.294 65.9266 168.545 65.4916L162.399 61.941C161.651 61.506 161.74 60.7511 162.61 60.2521C163.48 59.7531 164.791 59.6956 165.539 60.1306Z" fill="#24126A"/>
<path d="M212.566 87.9406C211.696 88.4396 210.296 88.4396 209.426 87.9406C208.556 87.4416 208.556 86.6291 209.426 86.1301C210.296 85.6311 211.696 85.6311 212.566 86.1301C213.436 86.6291 213.436 87.4416 212.566 87.9406Z" fill="#42E8E0"/>
<path d="M200.587 79.2087L206.733 82.7592C207.482 83.1943 207.392 83.9492 206.522 84.4481C205.653 84.9471 204.341 85.0047 203.593 84.5697L197.447 81.0192C196.699 80.5841 196.788 79.8293 197.658 79.3303C198.528 78.8313 199.839 78.7737 200.587 79.2087Z" fill="#42E8E0"/>
<path d="M165.539 57.9314L171.686 61.4819C172.434 61.9169 172.344 62.6718 171.475 63.1708C170.605 63.6698 169.294 63.7274 168.545 63.2924L162.399 59.7418C161.651 59.3068 161.74 58.5519 162.61 58.0529C163.48 57.5539 164.791 57.4963 165.539 57.9314Z" fill="#42E8E0"/>
<g opacity="0.3">
<path d="M247 165.405V162.539L246.207 162.098C245.983 163.454 244.391 164.344 243.06 164.529L233.998 169.832L230.039 171.259L217.414 164.74L217.708 164.574C216.627 164.068 216.045 162.917 215.463 161.861L214.613 162.367L214.108 162.507V165.45C214.108 166.013 214.478 166.576 215.22 166.998L227.871 174.304C229.355 175.161 231.759 175.161 233.243 174.304L245.894 166.998C246.623 166.576 246.994 166.026 247.006 165.476C247.006 165.45 247.006 165.425 247.006 165.399L247 165.405Z" fill="url(#paint2_linear_2977_65140)"/>
<path opacity="0.3" d="M243.06 164.523L233.998 169.827L230.557 171.068V174.945C231.529 174.945 232.501 174.734 233.243 174.305L245.894 166.999C246.623 166.577 246.994 166.027 247.006 165.477C247.006 165.451 247.006 165.425 247.006 165.4V162.534L246.284 162.131H246.207C245.958 163.462 244.384 164.338 243.067 164.523H243.06Z" fill="#0F054C"/>
<path d="M227.864 171.394L215.214 164.089C213.73 163.231 213.73 161.843 215.214 160.986L227.864 153.68C229.348 152.823 231.753 152.823 233.237 153.68L245.887 160.986C247.371 161.843 247.371 163.231 245.887 164.089L233.237 171.394C231.753 172.252 229.348 172.252 227.864 171.394Z" fill="url(#paint3_linear_2977_65140)"/>
<g opacity="0.3">
<path d="M227.864 171.394L215.214 164.089C213.73 163.231 213.73 161.843 215.214 160.986L227.864 153.68C229.348 152.823 231.753 152.823 233.237 153.68L245.887 160.986C247.371 161.843 247.371 163.231 245.887 164.089L233.237 171.394C231.753 172.252 229.348 172.252 227.864 171.394Z" fill="#0F054C"/>
</g>
</g>
<path d="M230.551 162.156C229.687 162.156 228.824 161.964 228.165 161.586L215.515 154.28C214.856 153.903 214.498 153.391 214.498 152.841C214.498 152.291 214.862 151.779 215.515 151.402L228.165 144.096C229.482 143.341 231.619 143.335 232.936 144.096L245.587 151.402C246.245 151.779 246.603 152.291 246.603 152.841C246.603 153.391 246.239 153.903 245.587 154.28L232.936 161.586C232.277 161.964 231.414 162.156 230.551 162.156ZM230.551 143.744C229.726 143.744 228.9 143.923 228.274 144.288L215.623 151.594C215.035 151.933 214.715 152.374 214.715 152.841C214.715 153.308 215.035 153.75 215.623 154.089L228.274 161.394C229.527 162.117 231.567 162.117 232.821 161.394L245.471 154.089C246.06 153.75 246.38 153.308 246.38 152.841C246.38 152.374 246.06 151.933 245.471 151.594L232.821 144.288C232.194 143.923 231.369 143.744 230.544 143.744H230.551Z" fill="#42E8E0"/>
<path opacity="0.4" d="M247 150.038V145.707L246.207 145.266C245.983 146.622 244.391 147.511 243.06 147.697L233.998 153L230.039 154.427L217.414 147.908L217.708 147.742C216.627 147.236 216.045 146.085 215.463 145.029L214.613 145.535L214.108 145.675V150.083C214.108 150.646 214.478 151.209 215.22 151.631L227.871 158.937C229.355 159.794 231.759 159.794 233.243 158.937L245.894 151.631C246.623 151.209 246.994 150.659 247.006 150.109C247.006 150.083 247.006 150.058 247.006 150.032L247 150.038Z" fill="#42E8E0"/>
<path d="M247 146.187V143.321L246.207 142.879C245.983 144.236 244.391 145.125 243.06 145.31L233.998 150.614L230.039 152.04L217.414 145.521L217.708 145.355C216.627 144.85 216.045 143.698 215.463 142.643L214.613 143.148L214.108 143.289V146.231C214.108 146.794 214.478 147.357 215.22 147.78L227.871 155.085C229.355 155.943 231.759 155.943 233.243 155.085L245.894 147.78C246.623 147.357 246.994 146.807 247.006 146.257C247.006 146.232 247.006 146.206 247.006 146.18L247 146.187Z" fill="url(#paint4_linear_2977_65140)"/>
<path opacity="0.3" d="M243.06 145.311L233.998 150.614L230.557 151.855V155.732C231.529 155.732 232.501 155.521 233.243 155.092L245.894 147.786C246.623 147.364 246.994 146.814 247.006 146.264C247.006 146.238 247.006 146.213 247.006 146.187V143.321L246.284 142.918H246.207C245.958 144.249 244.384 145.125 243.067 145.311H243.06Z" fill="#0F054C"/>
<path d="M227.865 152.176L215.214 144.87C213.73 144.013 213.73 142.624 215.214 141.767L227.865 134.461C229.348 133.604 231.753 133.604 233.237 134.461L245.887 141.767C247.371 142.624 247.371 144.013 245.887 144.87L233.237 152.176C231.753 153.033 229.348 153.033 227.865 152.176Z" fill="url(#paint5_linear_2977_65140)"/>
<path d="M245.887 144.87L233.237 152.175C231.753 153.033 229.348 153.033 227.864 152.175L215.214 144.87C214.549 144.486 214.184 144 214.114 143.494C214.024 144.115 214.395 144.748 215.214 145.221L227.864 152.527C229.348 153.384 231.753 153.384 233.237 152.527L245.887 145.221C246.706 144.748 247.07 144.108 246.987 143.494C246.917 143.993 246.552 144.486 245.887 144.87Z" fill="white"/>
<g opacity="0.3">
<path d="M190.674 182.454V179.588L189.881 179.147C189.657 180.503 188.065 181.392 186.734 181.578L177.672 186.881L173.713 188.308L161.088 181.789L161.382 181.623C160.301 181.117 159.719 179.966 159.137 178.91L158.287 179.416L157.782 179.556V182.499C157.782 183.062 158.153 183.625 158.894 184.047L171.545 191.353C173.029 192.21 175.433 192.21 176.917 191.353L189.568 184.047C190.297 183.625 190.668 183.075 190.68 182.525C190.68 182.499 190.68 182.473 190.68 182.448L190.674 182.454Z" fill="url(#paint6_linear_2977_65140)"/>
<path opacity="0.3" d="M186.734 181.578L177.672 186.882L174.231 188.123V191.999C175.203 191.999 176.175 191.788 176.917 191.36L189.568 184.054C190.297 183.632 190.668 183.082 190.68 182.531C190.68 182.506 190.68 182.48 190.68 182.455V179.589L189.958 179.186H189.881C189.632 180.516 188.058 181.393 186.741 181.578H186.734Z" fill="#0F054C"/>
<path d="M171.538 188.443L158.888 181.137C157.404 180.28 157.404 178.892 158.888 178.035L171.538 170.729C173.022 169.872 175.427 169.872 176.911 170.729L189.561 178.035C191.045 178.892 191.045 180.28 189.561 181.137L176.911 188.443C175.427 189.3 173.022 189.3 171.538 188.443Z" fill="url(#paint7_linear_2977_65140)"/>
<g opacity="0.3">
<path d="M171.538 188.443L158.888 181.137C157.404 180.28 157.404 178.892 158.888 178.035L171.538 170.729C173.022 169.872 175.427 169.872 176.911 170.729L189.561 178.035C191.045 178.892 191.045 180.28 189.561 181.137L176.911 188.443C175.427 189.3 173.022 189.3 171.538 188.443Z" fill="#0F054C"/>
</g>
</g>
<path d="M174.225 177.816C173.361 177.816 172.498 177.624 171.839 177.247L159.189 169.941C158.53 169.564 158.172 169.052 158.172 168.502C158.172 167.952 158.536 167.44 159.189 167.062L171.839 159.757C173.157 158.995 175.293 158.995 176.61 159.757L189.261 167.062C189.919 167.44 190.278 167.952 190.278 168.502C190.278 169.052 189.913 169.564 189.261 169.941L176.61 177.247C175.951 177.624 175.088 177.816 174.225 177.816ZM171.954 177.055C173.208 177.778 175.248 177.778 176.501 177.055L189.152 169.749C189.74 169.41 190.06 168.969 190.06 168.502C190.06 168.035 189.74 167.593 189.152 167.254L176.501 159.948C175.248 159.226 173.208 159.226 171.954 159.948L159.304 167.254C158.722 167.593 158.396 168.035 158.396 168.502C158.396 168.969 158.715 169.41 159.304 169.749L171.954 177.055Z" fill="#42E8E0"/>
<path opacity="0.4" d="M190.674 165.693V161.362L189.881 160.92C189.657 162.277 188.065 163.166 186.734 163.351L177.672 168.655L173.713 170.081L161.088 163.562L161.382 163.396C160.301 162.891 159.719 161.739 159.137 160.684L158.287 161.189L157.782 161.33V165.738C157.782 166.3 158.153 166.863 158.894 167.286L171.545 174.591C173.029 175.449 175.433 175.449 176.917 174.591L189.568 167.286C190.297 166.863 190.668 166.313 190.68 165.763C190.68 165.738 190.68 165.712 190.68 165.686L190.674 165.693Z" fill="#42E8E0"/>
<path d="M190.674 161.841V158.975L189.881 158.534C189.657 159.89 188.065 160.779 186.734 160.965L177.672 166.268L173.713 167.695L161.088 161.176L161.382 161.009C160.301 160.504 159.719 159.352 159.137 158.297L158.287 158.802L157.782 158.943V161.886C157.782 162.449 158.153 163.012 158.894 163.434L171.545 170.74C173.029 171.597 175.433 171.597 176.917 170.74L189.568 163.434C190.297 163.012 190.668 162.462 190.68 161.911C190.68 161.886 190.68 161.86 190.68 161.835L190.674 161.841Z" fill="url(#paint8_linear_2977_65140)"/>
<path opacity="0.3" d="M186.734 160.965L177.672 166.268L174.231 167.509V171.386C175.203 171.386 176.175 171.175 176.917 170.746L189.568 163.441C190.297 163.018 190.668 162.468 190.68 161.918C190.68 161.892 190.68 161.867 190.68 161.841V158.975L189.958 158.572H189.881C189.632 159.903 188.058 160.779 186.741 160.965H186.734Z" fill="#0F054C"/>
<path d="M171.539 167.83L158.888 160.524C157.404 159.667 157.404 158.279 158.888 157.421L171.539 150.116C173.022 149.258 175.427 149.258 176.911 150.116L189.561 157.421C191.045 158.279 191.045 159.667 189.561 160.524L176.911 167.83C175.427 168.687 173.022 168.687 171.539 167.83Z" fill="url(#paint9_linear_2977_65140)"/>
<path d="M174.225 166.506C173.444 166.506 172.664 166.333 172.069 165.994L162.188 160.288C161.593 159.942 161.267 159.481 161.267 158.976C161.267 158.471 161.593 158.01 162.188 157.671L172.069 151.965C173.259 151.28 175.19 151.28 176.38 151.965L186.261 157.671C186.856 158.016 187.182 158.477 187.182 158.982C187.182 159.481 186.856 159.948 186.261 160.288L176.38 165.994C175.785 166.339 175.005 166.506 174.225 166.506ZM172.184 165.802C173.31 166.455 175.146 166.455 176.271 165.802L186.152 160.096C186.677 159.795 186.965 159.398 186.965 158.982C186.965 158.567 186.677 158.17 186.152 157.863L176.271 152.156C175.146 151.504 173.31 151.504 172.184 152.156L162.303 157.863C161.779 158.164 161.491 158.56 161.491 158.976C161.491 159.392 161.779 159.789 162.303 160.089L172.184 165.796V165.802Z" fill="#5351AF"/>
<path d="M189.561 160.524L176.911 167.83C175.427 168.687 173.022 168.687 171.538 167.83L158.888 160.524C158.223 160.14 157.858 159.654 157.788 159.148C157.698 159.769 158.069 160.402 158.888 160.876L171.538 168.181C173.022 169.039 175.427 169.039 176.911 168.181L189.561 160.876C190.38 160.402 190.744 159.763 190.661 159.148C190.591 159.647 190.226 160.14 189.561 160.524Z" fill="white"/>
<g opacity="0.3">
<path d="M82.4799 80.7434V77.8773L81.6869 77.4359C81.4631 78.7922 79.8705 79.6814 78.5403 79.8669L69.4777 85.1703L65.5189 86.5969L52.894 80.078L53.1882 79.9117C52.1073 79.4063 51.5253 78.2548 50.9433 77.1992L50.0927 77.7046L49.5874 77.8454V80.7881C49.5874 81.3511 49.9584 81.9141 50.7003 82.3363L63.3507 89.6421C64.8345 90.4993 67.2393 90.4993 68.723 89.6421L81.3735 82.3363C82.1026 81.9141 82.4736 81.3639 82.4863 80.8137C82.4863 80.7881 82.4863 80.7625 82.4863 80.737L82.4799 80.7434Z" fill="url(#paint10_linear_2977_65140)"/>
<path opacity="0.3" d="M78.5403 79.8672L69.4777 85.1706L66.0369 86.4117V90.2885C67.009 90.2885 67.9812 90.0774 68.723 89.6488L81.3735 82.343C82.1026 81.9208 82.4736 81.3706 82.4863 80.8204C82.4863 80.7948 82.4863 80.7692 82.4863 80.7437V77.8776L81.7636 77.4746H81.6869C81.4375 78.8053 79.8642 79.6817 78.5467 79.8672H78.5403Z" fill="#0F054C"/>
<path d="M63.3507 86.7381L50.7003 79.4323C49.2165 78.575 49.2165 77.1868 50.7003 76.3296L63.3507 69.0238C64.8345 68.1665 67.2393 68.1665 68.723 69.0238L81.3735 76.3296C82.8573 77.1868 82.8573 78.575 81.3735 79.4323L68.723 86.7381C67.2393 87.5953 64.8345 87.5953 63.3507 86.7381Z" fill="url(#paint11_linear_2977_65140)"/>
<g opacity="0.3">
<path d="M63.3507 86.7381L50.7003 79.4323C49.2165 78.575 49.2165 77.1868 50.7003 76.3296L63.3507 69.0238C64.8345 68.1665 67.2393 68.1665 68.723 69.0238L81.3735 76.3296C82.8573 77.1868 82.8573 78.575 81.3735 79.4323L68.723 86.7381C67.2393 87.5953 64.8345 87.5953 63.3507 86.7381Z" fill="#0F054C"/>
</g>
</g>
<path d="M66.0369 77.9803C65.1735 77.9803 64.3101 77.7884 63.6513 77.4109L51.0009 70.1052C50.3421 69.7277 49.984 69.2159 49.984 68.6658C49.984 68.1156 50.3485 67.6038 51.0009 67.2264L63.6513 59.9206C64.9688 59.1593 67.105 59.1593 68.4225 59.9206L81.0729 67.2264C81.7317 67.6038 82.0898 68.1156 82.0898 68.6658C82.0898 69.2159 81.7253 69.7277 81.0729 70.1052L68.4225 77.4109C67.7637 77.7884 66.9003 77.9803 66.0369 77.9803ZM66.0369 59.5687C65.2119 59.5687 64.3932 59.7478 63.7601 60.1125L51.1096 67.4183C50.5212 67.7573 50.2014 68.1987 50.2014 68.6658C50.2014 69.1328 50.5212 69.5742 51.1096 69.9132L63.7601 77.219C65.0136 77.9419 67.0538 77.9419 68.3073 77.219L80.9578 69.9132C81.5462 69.5742 81.866 69.1328 81.866 68.6658C81.866 68.1987 81.5462 67.7573 80.9578 67.4183L68.3073 60.1125C67.6806 59.7478 66.8555 59.5687 66.0305 59.5687H66.0369Z" fill="#42E8E0"/>
<path opacity="0.4" d="M82.4799 65.8626V61.5316L81.6869 61.0902C81.4631 62.4465 79.8705 63.3357 78.5403 63.5212L69.4777 68.8246L65.5189 70.2512L52.894 63.7323L53.1882 63.566C52.1073 63.0606 51.5253 61.9091 50.9433 60.8535L50.0927 61.3589L49.5874 61.4996V65.9074C49.5874 66.4704 49.9584 67.0334 50.7003 67.4556L63.3507 74.7614C64.8345 75.6186 67.2393 75.6186 68.723 74.7614L81.3735 67.4556C82.1026 67.0334 82.4736 66.4832 82.4863 65.933C82.4863 65.9074 82.4863 65.8818 82.4863 65.8562L82.4799 65.8626Z" fill="#42E8E0"/>
<path d="M82.4799 62.0109V59.1449L81.6869 58.7035C81.4631 60.0597 79.8705 60.949 78.5403 61.1345L69.4777 66.4379L65.5189 67.8645L52.894 61.3456L53.1882 61.1793C52.1073 60.6739 51.5253 59.5224 50.9433 58.4668L50.0927 58.9722L49.5874 59.1129V62.0557C49.5874 62.6187 49.9584 63.1816 50.7003 63.6039L63.3507 70.9097C64.8345 71.7669 67.2393 71.7669 68.723 70.9097L81.3735 63.6039C82.1026 63.1816 82.4736 62.6315 82.4863 62.0813C82.4863 62.0557 82.4863 62.0301 82.4863 62.0045L82.4799 62.0109Z" fill="url(#paint12_linear_2977_65140)"/>
<path opacity="0.3" d="M78.5403 61.1289L69.4777 66.4323L66.0369 67.6734V71.5502C67.009 71.5502 67.9812 71.3391 68.723 70.9105L81.3735 63.6047C82.1026 63.1825 82.4736 62.6323 82.4863 62.0821C82.4863 62.0566 82.4863 62.031 82.4863 62.0054V59.1394L81.7636 58.7363H81.6869C81.4375 60.067 79.8642 60.9434 78.5467 61.1289H78.5403Z" fill="#0F054C"/>
<path d="M53.1882 61.1741L65.1735 54.2522C65.6468 53.9771 66.4206 53.9771 66.8939 54.2522L78.6746 61.0526L78.5467 61.1294C79.8769 60.9438 81.4694 60.0546 81.6933 58.6984L68.4736 51.3414L64.6299 50.3242L61.496 52.1667L50.9433 58.4617C51.5253 59.5108 52.1073 60.6687 53.1882 61.1741Z" fill="url(#paint13_linear_2977_65140)"/>
<path opacity="0.3" d="M66.0369 50.7011L64.6299 50.3301L61.496 52.1725L50.9433 58.4675C51.5253 59.5167 52.1073 60.6746 53.1882 61.18L65.1735 54.2581C65.4101 54.1237 65.7235 54.0533 66.0369 54.0533V50.7075V50.7011Z" fill="#0F054C"/>
<path d="M63.3509 67.9998L50.7004 60.694C49.2167 59.8368 49.2167 58.4485 50.7004 57.5913L63.3509 50.2855C64.8347 49.4283 67.2394 49.4283 68.7232 50.2855L81.3737 57.5913C82.8575 58.4485 82.8575 59.8368 81.3737 60.694L68.7232 67.9998C67.2394 68.857 64.8347 68.857 63.3509 67.9998ZM66.8941 51.3411C66.4208 51.066 65.6469 51.066 65.1737 51.3411L52.5232 58.6469C52.0499 58.9219 52.0499 59.3634 52.5232 59.6384L65.1737 66.9442C65.6469 67.2193 66.4208 67.2193 66.8941 66.9442L79.5445 59.6384C80.0178 59.3634 80.0178 58.9219 79.5445 58.6469L66.8941 51.3411Z" fill="url(#paint14_linear_2977_65140)"/>
<path d="M79.5444 58.6469L66.8939 51.3411C66.4206 51.066 65.6468 51.066 65.1735 51.3411L52.523 58.6469C52.2096 58.8324 52.1009 59.0883 52.2096 59.325C52.2608 59.2098 52.3695 59.1011 52.523 59.0051L65.1735 51.6993C65.6468 51.4242 66.4206 51.4242 66.8939 51.6993L79.5444 59.0051C79.7043 59.0947 79.8066 59.2098 79.8578 59.325C79.9665 59.0883 79.8578 58.8324 79.5444 58.6469Z" fill="white"/>
<path d="M81.3735 60.6938L68.723 67.9996C67.2393 68.8568 64.8345 68.8568 63.3508 67.9996L50.7003 60.6938C50.0351 60.31 49.6706 59.8238 49.6002 59.3184C49.5107 59.9389 49.8816 60.5722 50.7003 61.0456L63.3508 68.3514C64.8345 69.2087 67.2393 69.2087 68.723 68.3514L81.3735 61.0456C82.1922 60.5722 82.5567 59.9325 82.4736 59.3184C82.4032 59.8174 82.0387 60.31 81.3735 60.6938Z" fill="white"/>
<path d="M63.7025 67.795L51.052 60.4892C49.7665 59.7471 49.7665 58.538 51.052 57.7959L63.7025 50.4902C64.988 49.7481 67.0794 49.7481 68.3585 50.4902L81.009 57.7959C82.2945 58.538 82.2945 59.7471 81.009 60.4828L68.3585 67.7886C67.073 68.5307 64.9816 68.5307 63.7025 67.7886V67.795ZM67.2457 51.1363C66.5741 50.7461 65.4805 50.7461 64.8089 51.1363L52.1585 58.4421C51.4869 58.8323 51.4869 59.4593 52.1585 59.8495L64.8089 67.1553C65.4805 67.5455 66.5741 67.5455 67.2457 67.1553L79.8961 59.8495C80.5677 59.4593 80.5677 58.8323 79.8961 58.4421L67.2457 51.1363Z" fill="url(#paint15_linear_2977_65140)"/>
<path opacity="0.4" d="M66.8939 51.3411C66.4206 51.066 65.6468 51.066 65.1735 51.3411L52.523 58.6469C52.0498 58.9219 52.0498 59.3634 52.523 59.6384L65.1735 66.9442C65.6468 67.2193 66.4206 67.2193 66.8939 66.9442L79.5444 59.6384C80.0177 59.3634 80.0177 58.9219 79.5444 58.6469L66.8939 51.3411Z" fill="#42E8E0"/>
<path style="mix-blend-mode:lighten" opacity="0.5" d="M79.8961 59.1333V14H52.1649V59.1333C52.1649 59.3189 52.28 59.498 52.523 59.6387L65.1735 66.9445C65.6468 67.2196 66.4206 67.2196 66.8939 66.9445L79.5444 59.6387C79.7874 59.498 79.9025 59.3125 79.8961 59.1333Z" fill="url(#paint16_linear_2977_65140)"/>
<path d="M166.607 95.0754C166.607 87.9423 161.6 79.2675 155.422 75.6978C152.326 73.9129 149.525 73.7466 147.504 74.9237L145.387 76.1584L146.001 76.216C144.888 77.5786 144.236 79.5938 144.236 82.1591C144.236 89.2922 149.243 97.967 155.422 101.537C157.545 102.765 159.528 103.226 161.216 103.014L161.171 103.584L163.32 102.33C163.32 102.33 163.339 102.317 163.346 102.317L163.435 102.266C165.399 101.07 166.614 98.5939 166.614 95.0818L166.607 95.0754Z" fill="#9FFFF8"/>
<path d="M161.195 103.569C165.563 101.046 165.564 92.8669 161.196 85.3C156.829 77.7331 149.747 73.644 145.379 76.1667C141.011 78.6893 141.01 86.8686 145.378 94.4355C149.745 102.002 156.827 106.092 161.195 103.569Z" fill="#42E8E0"/>
<path d="M140.482 64.2398C144.619 58.431 145.579 48.4575 142.618 41.9706C141.134 38.7208 138.953 36.9551 136.619 36.7376L134.182 36.5137L134.649 36.9167C132.948 37.3837 131.253 38.644 129.763 40.7295C125.625 46.5383 124.665 56.5118 127.626 62.9987C128.643 65.2314 129.993 66.7604 131.489 67.5664L131.125 68.0015L133.6 68.2254C133.6 68.2254 133.619 68.2254 133.632 68.2254H133.734C136.024 68.3981 138.454 67.0802 140.488 64.227L140.482 64.2398Z" fill="#9FFFF8"/>
<path d="M141.749 53.1405C142.584 44.4431 139.192 37.0012 134.171 36.5185C129.15 36.0358 124.402 42.6951 123.567 51.3925C122.731 60.09 126.124 67.5319 131.145 68.0146C136.165 68.4973 140.913 61.838 141.749 53.1405Z" fill="#42E8E0"/>
<g opacity="0.1">
<path d="M144.242 111.2C144.242 104.067 139.234 95.3925 133.056 91.8228C129.961 90.0379 127.16 89.8716 125.139 91.0487L123.022 92.2834L123.636 92.341C122.523 93.7036 121.87 95.7188 121.87 98.2841C121.87 105.417 126.878 114.092 133.056 117.662C135.18 118.89 137.162 119.351 138.851 119.139L138.806 119.709L140.955 118.455C140.955 118.455 140.974 118.442 140.98 118.442L141.07 118.391C143.033 117.195 144.249 114.719 144.249 111.207L144.242 111.2Z" fill="#9FFFF8"/>
<path d="M138.83 119.694C143.198 117.171 143.199 108.992 138.831 101.425C134.463 93.8581 127.382 89.769 123.014 92.2917C118.645 94.8143 118.645 102.994 123.012 110.56C127.38 118.127 134.462 122.217 138.83 119.694Z" fill="#42E8E0"/>
</g>
<path opacity="0.4" d="M131.643 122.844C123.93 122.844 116.21 121.149 110.339 117.758C104.628 114.457 101.481 110.068 101.481 105.392C101.481 100.715 104.628 96.3268 110.339 93.0258C122.088 86.2382 141.198 86.2446 152.947 93.0258C158.658 96.3268 161.804 100.715 161.804 105.392C161.804 110.068 158.658 114.463 152.947 117.758C147.075 121.149 139.356 122.844 131.643 122.844ZM131.643 88.151C123.968 88.151 116.293 89.8399 110.448 93.2113C104.807 96.4676 101.705 100.792 101.705 105.385C101.705 109.979 104.813 114.303 110.454 117.56C122.139 124.309 141.153 124.309 152.838 117.56C158.479 114.303 161.581 109.979 161.581 105.385C161.581 100.792 158.472 96.4676 152.831 93.2113C146.986 89.8335 139.311 88.151 131.636 88.151H131.643Z" fill="#42E8E0"/>
<path opacity="0.2" d="M131.643 127.522C121.851 127.522 112.06 125.372 104.609 121.067C97.3689 116.883 93.378 111.317 93.378 105.393C93.378 99.4694 97.3689 93.8973 104.609 89.7198C119.517 81.109 143.769 81.109 158.677 89.7198C165.917 93.9037 169.908 99.4694 169.908 105.393C169.908 111.317 165.917 116.889 158.677 121.067C151.226 125.372 141.434 127.522 131.643 127.522ZM131.643 83.476C121.89 83.476 112.143 85.6191 104.717 89.9054C97.5479 94.0445 93.5955 99.5462 93.5955 105.387C93.5955 111.234 97.5415 116.729 104.717 120.869C119.562 129.441 143.718 129.441 158.562 120.869C165.731 116.729 169.684 111.228 169.684 105.387C169.684 99.5462 165.738 94.0445 158.562 89.9054C151.137 85.6191 141.39 83.476 131.636 83.476H131.643Z" fill="#42E8E0"/>
<path d="M131.643 119.16C125.561 119.16 119.485 117.823 114.854 115.149C110.352 112.545 107.87 109.078 107.87 105.387C107.87 101.696 110.352 98.2281 114.854 95.6244C124.115 90.2762 139.177 90.2762 148.431 95.6244C152.934 98.2281 155.415 101.696 155.415 105.387C155.415 109.078 152.934 112.545 148.431 115.149C143.801 117.823 137.725 119.16 131.643 119.16ZM131.643 91.8372C125.605 91.8372 119.562 93.1678 114.963 95.8227C110.531 98.3817 108.088 101.779 108.088 105.393C108.088 109.008 110.531 112.398 114.963 114.964C124.16 120.273 139.126 120.273 148.322 114.964C152.755 112.405 155.198 109.008 155.198 105.4C155.198 101.791 152.755 98.3945 148.322 95.8291C143.724 93.1742 137.687 91.8436 131.643 91.8436V91.8372Z" fill="#42E8E0"/>
<mask id="mask0_2977_65140" style="mask-type:luminance" maskUnits="userSpaceOnUse" x="114" y="65" width="36" height="48">
<path d="M149.154 108.373L142.125 112.429L114.132 96.263V65.1719L149.154 85.4003V108.373Z" fill="white"/>
</mask>
<g mask="url(#mask0_2977_65140)">
<path d="M144.242 111.2C144.242 104.067 139.234 95.3925 133.056 91.8228C129.961 90.0379 127.16 89.8716 125.139 91.0487L123.022 92.2834L123.636 92.341C122.523 93.7036 121.87 95.7188 121.87 98.2841C121.87 105.417 126.878 114.092 133.056 117.662C135.18 118.89 137.162 119.351 138.851 119.139L138.806 119.709L140.955 118.455C140.955 118.455 140.974 118.442 140.98 118.442L141.07 118.391C143.033 117.195 144.249 114.719 144.249 111.207L144.242 111.2Z" fill="#9FFFF8"/>
<path d="M138.83 119.694C143.198 117.171 143.199 108.992 138.831 101.425C134.463 93.8581 127.382 89.769 123.014 92.2917C118.645 94.8143 118.645 102.994 123.012 110.56C127.38 118.127 134.462 122.217 138.83 119.694Z" fill="#42E8E0"/>
</g>
<path opacity="0.4" d="M101.603 142.062L66.4782 121.776C65.4421 121.175 65.4421 119.684 66.4782 119.083L71.8377 115.961C73.6285 114.925 75.8413 114.925 77.6321 115.961L112.757 136.247C113.793 136.848 113.793 138.339 112.757 138.94L107.397 142.062C105.606 143.098 103.394 143.098 101.603 142.062Z" fill="#24126A"/>
<path d="M84.0213 121.329L78.3996 118.086L79.5188 117.439L85.1405 120.683L84.0213 121.329Z" fill="#42E8E0"/>
<path d="M99.8695 130.712L98.1427 129.714L99.262 129.068L100.989 130.066L99.8695 130.712Z" fill="#42E8E0"/>
<path d="M87.2766 123.259L85.5498 122.261L86.6691 121.615L88.3959 122.613L87.2766 123.259Z" fill="#42E8E0"/>
<path d="M104.5 138.025C103.477 138.025 102.453 137.763 101.539 137.232L66.4142 116.946C65.8898 116.639 65.5764 116.095 65.5764 115.487C65.5764 114.88 65.8898 114.336 66.4142 114.029L71.7737 110.907C73.6029 109.851 75.8669 109.851 77.6961 110.907L112.821 131.193C113.345 131.494 113.658 132.044 113.658 132.652C113.658 133.259 113.345 133.803 112.821 134.11L107.461 137.232C106.547 137.757 105.523 138.025 104.5 138.025ZM74.7413 110.376C73.7628 110.376 72.7842 110.625 71.908 111.131L66.5485 114.253C66.1009 114.509 65.8322 114.976 65.8322 115.487C65.8322 115.999 66.1009 116.466 66.5485 116.722L101.673 137.008C103.419 138.019 105.594 138.019 107.34 137.008L112.699 133.886C113.147 133.63 113.415 133.17 113.415 132.652C113.415 132.133 113.147 131.673 112.699 131.417L77.5745 111.131C76.6983 110.625 75.7198 110.376 74.7413 110.376Z" fill="#42E8E0"/>
</g>
</g>
<defs>
<filter id="filter0_d_2977_65140" x="0" y="0" width="1200" height="230" filterUnits="userSpaceOnUse" color-interpolation-filters="sRGB">
<feFlood flood-opacity="0" result="BackgroundImageFix"/>
<feColorMatrix in="SourceAlpha" type="matrix" values="0 0 0 0 0 0 0 0 0 0 0 0 0 0 0 0 0 0 127 0" result="hardAlpha"/>
<feOffset dy="4"/>
<feGaussianBlur stdDeviation="7.5"/>
<feComposite in2="hardAlpha" operator="out"/>
<feColorMatrix type="matrix" values="0 0 0 0 0 0 0 0 0 0 0 0 0 0 0 0 0 0 0.2 0"/>
<feBlend mode="normal" in2="BackgroundImageFix" result="effect1_dropShadow_2977_65140"/>
<feBlend mode="normal" in="SourceGraphic" in2="effect1_dropShadow_2977_65140" result="shape"/>
</filter>
<linearGradient id="paint0_linear_2977_65140" x1="1007.47" y1="251.179" x2="-1389.62" y2="-2058.27" gradientUnits="userSpaceOnUse">
<stop offset="0.166667" stop-color="#022738"/>
<stop offset="1" stop-color="#31FFD9" stop-opacity="0.28"/>
</linearGradient>
<linearGradient id="paint1_linear_2977_65140" x1="161.817" y1="137.571" x2="109.969" y2="68.7938" gradientUnits="userSpaceOnUse">
<stop stop-color="#42E8E0"/>
<stop offset="0.11" stop-color="#36B5BF"/>
<stop offset="0.22" stop-color="#2C87A0"/>
<stop offset="0.34" stop-color="#235F86"/>
<stop offset="0.46" stop-color="#1B3E71"/>
<stop offset="0.58" stop-color="#162560"/>
<stop offset="0.71" stop-color="#121355"/>
<stop offset="0.85" stop-color="#0F084E"/>
<stop offset="1" stop-color="#0F054C"/>
</linearGradient>
<linearGradient id="paint2_linear_2977_65140" x1="217.376" y1="156.839" x2="243.48" y2="171.905" gradientUnits="userSpaceOnUse">
<stop stop-color="#BCBEFF"/>
<stop offset="0.23" stop-color="#AAADF7"/>
<stop offset="0.68" stop-color="#7B82E5"/>
<stop offset="1" stop-color="#5761D7"/>
</linearGradient>
<linearGradient id="paint3_linear_2977_65140" x1="214.101" y1="162.534" x2="247" y2="162.534" gradientUnits="userSpaceOnUse">
<stop stop-color="#E9E9FD"/>
<stop offset="0.36" stop-color="#D2D2F9"/>
<stop offset="0.71" stop-color="#C4C3F6"/>
<stop offset="1" stop-color="#C0BFF6"/>
</linearGradient>
<linearGradient id="paint4_linear_2977_65140" x1="217.376" y1="137.621" x2="243.48" y2="152.687" gradientUnits="userSpaceOnUse">
<stop stop-color="#BCBEFF"/>
<stop offset="0.23" stop-color="#AAADF7"/>
<stop offset="0.68" stop-color="#7B82E5"/>
<stop offset="1" stop-color="#5761D7"/>
</linearGradient>
<linearGradient id="paint5_linear_2977_65140" x1="214.101" y1="143.322" x2="247" y2="143.322" gradientUnits="userSpaceOnUse">
<stop stop-color="#E9E9FD"/>
<stop offset="0.36" stop-color="#D2D2F9"/>
<stop offset="0.71" stop-color="#C4C3F6"/>
<stop offset="1" stop-color="#C0BFF6"/>
</linearGradient>
<linearGradient id="paint6_linear_2977_65140" x1="161.05" y1="173.888" x2="187.154" y2="188.954" gradientUnits="userSpaceOnUse">
<stop stop-color="#BCBEFF"/>
<stop offset="0.23" stop-color="#AAADF7"/>
<stop offset="0.68" stop-color="#7B82E5"/>
<stop offset="1" stop-color="#5761D7"/>
</linearGradient>
<linearGradient id="paint7_linear_2977_65140" x1="157.775" y1="179.589" x2="190.674" y2="179.589" gradientUnits="userSpaceOnUse">
<stop stop-color="#E9E9FD"/>
<stop offset="0.36" stop-color="#D2D2F9"/>
<stop offset="0.71" stop-color="#C4C3F6"/>
<stop offset="1" stop-color="#C0BFF6"/>
</linearGradient>
<linearGradient id="paint8_linear_2977_65140" x1="161.05" y1="153.275" x2="187.154" y2="168.341" gradientUnits="userSpaceOnUse">
<stop stop-color="#BCBEFF"/>
<stop offset="0.23" stop-color="#AAADF7"/>
<stop offset="0.68" stop-color="#7B82E5"/>
<stop offset="1" stop-color="#5761D7"/>
</linearGradient>
<linearGradient id="paint9_linear_2977_65140" x1="157.775" y1="158.976" x2="190.674" y2="158.976" gradientUnits="userSpaceOnUse">
<stop stop-color="#E9E9FD"/>
<stop offset="0.36" stop-color="#D2D2F9"/>
<stop offset="0.71" stop-color="#C4C3F6"/>
<stop offset="1" stop-color="#C0BFF6"/>
</linearGradient>
<linearGradient id="paint10_linear_2977_65140" x1="52.8556" y1="72.1837" x2="78.9596" y2="87.2496" gradientUnits="userSpaceOnUse">
<stop stop-color="#BCBEFF"/>
<stop offset="0.23" stop-color="#AAADF7"/>
<stop offset="0.68" stop-color="#7B82E5"/>
<stop offset="1" stop-color="#5761D7"/>
</linearGradient>
<linearGradient id="paint11_linear_2977_65140" x1="49.5874" y1="77.8777" x2="82.4799" y2="77.8777" gradientUnits="userSpaceOnUse">
<stop stop-color="#E9E9FD"/>
<stop offset="0.36" stop-color="#D2D2F9"/>
<stop offset="0.71" stop-color="#C4C3F6"/>
<stop offset="1" stop-color="#C0BFF6"/>
</linearGradient>
<linearGradient id="paint12_linear_2977_65140" x1="52.8556" y1="53.4449" x2="78.9596" y2="68.5108" gradientUnits="userSpaceOnUse">
<stop stop-color="#BCBEFF"/>
<stop offset="0.23" stop-color="#AAADF7"/>
<stop offset="0.68" stop-color="#7B82E5"/>
<stop offset="1" stop-color="#5761D7"/>
</linearGradient>
<linearGradient id="paint13_linear_2977_65140" x1="54.4225" y1="52.4289" x2="77.7057" y2="65.8642" gradientUnits="userSpaceOnUse">
<stop offset="0.24" stop-color="#5761D7"/>
<stop offset="0.39" stop-color="#7A81E5"/>
<stop offset="0.55" stop-color="#979BF0"/>
<stop offset="0.7" stop-color="#ABAEF8"/>
<stop offset="0.85" stop-color="#B7BAFD"/>
<stop offset="1" stop-color="#BCBEFF"/>
</linearGradient>
<linearGradient id="paint14_linear_2977_65140" x1="49.5876" y1="59.1395" x2="82.4801" y2="59.1395" gradientUnits="userSpaceOnUse">
<stop stop-color="#E9E9FD"/>
<stop offset="0.36" stop-color="#D2D2F9"/>
<stop offset="0.71" stop-color="#C4C3F6"/>
<stop offset="1" stop-color="#C0BFF6"/>
</linearGradient>
<linearGradient id="paint15_linear_2977_65140" x1="50.0927" y1="59.1394" x2="81.9747" y2="59.1394" gradientUnits="userSpaceOnUse">
<stop stop-color="#E9E9FD"/>
<stop offset="0.36" stop-color="#D2D2F9"/>
<stop offset="0.71" stop-color="#C4C3F6"/>
<stop offset="1" stop-color="#C0BFF6"/>
</linearGradient>
<linearGradient id="paint16_linear_2977_65140" x1="66.0305" y1="67.1492" x2="66.0305" y2="14" gradientUnits="userSpaceOnUse">
<stop stop-color="#42E8E0"/>
<stop offset="0.11" stop-color="#36B5BF"/>
<stop offset="0.22" stop-color="#2C87A0"/>
<stop offset="0.34" stop-color="#235F86"/>
<stop offset="0.46" stop-color="#1B3E71"/>
<stop offset="0.58" stop-color="#162560"/>
<stop offset="0.71" stop-color="#121355"/>
<stop offset="0.85" stop-color="#0F084E"/>
<stop offset="1" stop-color="#0F054C"/>
</linearGradient>
<clipPath id="clip0_2977_65140">
<rect width="204" height="178" fill="white" transform="translate(43 14)"/>
</clipPath>
</defs>
</svg>
