<svg width="21" height="17" viewBox="0 0 21 17" fill="none" xmlns="http://www.w3.org/2000/svg">
<path d="M6.82302 16.7528C4.51231 16.7528 2.35833 16.0807 0.545349 14.9211C2.08463 15.0207 4.80111 14.7822 6.49076 13.1705C3.94898 13.0539 2.80268 11.1044 2.65316 10.2713C2.86913 10.3546 3.89914 10.4546 4.48059 10.2214C1.55671 9.48823 1.10815 6.92231 1.20783 6.1392C1.75606 6.52242 2.68639 6.65572 3.05187 6.62239C0.327344 4.67296 1.30751 1.74047 1.78929 1.10733C3.74451 3.81612 6.67478 5.33748 10.2999 5.42211C10.2316 5.12233 10.1955 4.81023 10.1955 4.48968C10.1955 2.18916 12.0549 0.324219 14.3487 0.324219C15.5472 0.324219 16.6271 0.833329 17.3851 1.64767C18.186 1.46001 19.3913 1.0207 19.9805 0.640794C19.6835 1.70715 18.7589 2.59671 18.1996 2.92642C18.195 2.91515 18.2042 2.93763 18.1996 2.92642C18.6909 2.8521 20.0202 2.59662 20.5453 2.24033C20.2857 2.8394 19.3053 3.83545 18.5009 4.39309C18.6505 10.9943 13.6 16.7528 6.82302 16.7528Z" fill="#47ACDF"/>
</svg>
