<svg width="102" height="28" viewBox="0 0 102 28" fill="none" xmlns="http://www.w3.org/2000/svg">
<g clip-path="url(#clip0_2833_64867)">
<path fill-rule="evenodd" clip-rule="evenodd" d="M8.62701 11.8356L8.62793 11.815C8.65113 11.3906 8.6929 11.0986 8.79921 10.6906C8.86786 10.4247 8.97509 10.1697 9.0916 9.92946C9.21642 9.67284 9.3617 9.43777 9.52829 9.21142C9.5385 9.19709 9.54314 9.18886 9.55382 9.17448C9.83784 8.80292 10.1794 8.4852 10.5619 8.23837C10.7888 8.09157 11.0288 7.96123 11.2789 7.86885C11.9783 7.6117 12.5886 7.57272 13.3219 7.71279C13.5308 7.75284 13.7104 7.81752 13.9076 7.89349C14.0533 7.94941 14.2014 8.01613 14.3341 8.0998L14.4961 8.19266C14.5221 8.20961 14.5402 8.22602 14.5681 8.2435C14.6214 8.27734 14.6697 8.30921 14.7203 8.34561C14.9231 8.49188 15.2155 8.74235 15.3858 8.95176C15.4596 9.04205 15.5404 9.13294 15.6081 9.22837L15.6814 9.33871C15.7622 9.45162 15.8346 9.57223 15.9024 9.69492C16.0212 9.91096 16.1441 10.1558 16.217 10.3939C16.2365 10.4575 16.2583 10.5094 16.2787 10.5766C16.8087 12.3391 14.704 11.8951 14.7129 11.6857C14.7017 11.3008 14.7013 11.4111 14.5583 11.0426C14.5188 10.9405 14.4752 10.8363 14.42 10.7439C14.31 10.5597 14.2047 10.3949 14.0571 10.2404L13.8974 10.0844C13.4621 9.68156 12.8193 9.47937 12.2108 9.59378C11.9723 9.63847 11.7941 9.7031 11.6029 9.80575C11.5105 9.85504 11.4297 9.90941 11.3476 9.96693L10.9642 10.3308C10.8951 10.4032 10.8371 10.4971 10.7809 10.5817C10.7642 10.6069 10.7517 10.6259 10.7355 10.6521C10.3479 11.2767 10.2709 12.1702 10.5168 12.8271C10.5386 12.8857 10.5479 12.9252 10.5739 12.9796C10.5865 13.0057 10.5925 13.0252 10.605 13.0529C10.6723 13.1972 10.7466 13.3486 10.844 13.4702C10.8645 13.4959 10.8677 13.5082 10.8863 13.5328C10.981 13.6601 11.0891 13.7689 11.2042 13.8726C11.3634 14.0163 11.5523 14.1374 11.7532 14.2252C11.9435 14.0943 12.1667 14.0255 12.402 14.0368C12.7218 14.0522 13.0453 14.1959 13.2574 14.4607C13.3925 14.6291 13.3994 14.6599 13.4862 14.859C13.6008 15.1212 13.5878 15.5175 13.4997 15.7931C13.4546 15.9342 13.385 16.0656 13.3024 16.1847C13.1618 16.3869 13.0383 16.4649 12.8332 16.5747C12.5436 16.7292 12.1291 16.6779 11.8558 16.5367C11.8061 16.5111 11.7635 16.4818 11.7156 16.449L11.5871 16.3438C11.5346 16.2904 11.4683 16.2191 11.4131 16.139C11.2223 16.0754 11.0348 15.9958 10.8496 15.8999C10.8213 15.8849 10.7949 15.8726 10.7698 15.8567C10.5902 15.7428 10.4045 15.6366 10.2412 15.4985C10.1061 15.3845 9.96688 15.2732 9.84853 15.1366C9.83369 15.1197 9.83185 15.1202 9.81793 15.1064C9.80536 15.0936 9.80163 15.0869 9.7896 15.0736L9.35285 14.5033C9.09948 14.1071 8.89759 13.6606 8.77692 13.1915C8.66365 12.7496 8.60288 12.2985 8.62749 11.8346L8.62701 11.8356Z" fill="#035546"/>
<path fill-rule="evenodd" clip-rule="evenodd" d="M16.2169 15.6344L16.2159 15.6549C16.1927 16.0793 16.1509 16.3714 16.0447 16.7794C15.976 17.0452 15.8688 17.3003 15.7523 17.54C15.6275 17.7966 15.4822 18.0322 15.3155 18.258C15.3053 18.2724 15.3007 18.2806 15.29 18.2944C15.006 18.6665 14.6644 18.9837 14.282 19.2305C14.055 19.3773 13.8151 19.5077 13.5649 19.5996C12.8655 19.8567 12.2552 19.8957 11.5219 19.7561C11.3131 19.7161 11.1335 19.6514 10.9362 19.5754C10.7905 19.5195 10.6425 19.4528 10.5097 19.3691L10.3477 19.2763C10.3217 19.2593 10.3037 19.2429 10.2758 19.2254C10.222 19.1916 10.1742 19.1597 10.1236 19.1233C9.92077 18.977 9.62838 18.7266 9.45806 18.5172C9.38473 18.4268 9.30351 18.336 9.23573 18.24L9.16244 18.1297C9.08165 18.0173 9.00928 17.8962 8.9415 17.7735C8.82267 17.558 8.69968 17.3126 8.62683 17.0745C8.60735 17.0108 8.58554 16.959 8.56509 16.8918C8.03509 15.1294 10.1398 15.5733 10.131 15.7827C10.1426 16.1676 10.1431 16.0572 10.2856 16.4257C10.325 16.5279 10.3686 16.6321 10.4238 16.7244C10.5339 16.9087 10.6392 17.0734 10.7868 17.2279L10.9464 17.3839C11.3818 17.7868 12.0241 17.9885 12.633 17.8746C12.8716 17.83 13.0498 17.7653 13.241 17.6626C13.3334 17.6134 13.4141 17.559 13.4967 17.5015L13.8801 17.1376C13.9492 17.0653 14.0072 16.9713 14.0634 16.8866C14.0801 16.861 14.0926 16.8425 14.1089 16.8158C14.4964 16.1918 14.5734 15.2982 14.3275 14.6413C14.3057 14.5828 14.2964 14.5432 14.2704 14.4888C14.2574 14.4622 14.2518 14.4431 14.2393 14.4154C14.172 14.2712 14.0977 14.1198 14.0003 13.9982C13.9799 13.9725 13.9766 13.9602 13.958 13.9356C13.8634 13.8083 13.7552 13.6995 13.6401 13.5958C13.481 13.4521 13.292 13.331 13.0911 13.2433C12.9008 13.3741 12.6776 13.4429 12.4423 13.4316C12.1225 13.4162 11.799 13.2725 11.5869 13.0076C11.4518 12.8393 11.4449 12.8085 11.3576 12.6094C11.2435 12.3471 11.2565 11.9509 11.3442 11.6753C11.3892 11.5337 11.4588 11.4028 11.5414 11.2837C11.6821 11.0815 11.8055 11.0035 12.0107 10.8937C12.3002 10.7392 12.7147 10.7905 12.988 10.9316C13.0377 10.9573 13.0804 10.9865 13.1282 11.0194L13.2568 11.1251C13.3092 11.1785 13.3756 11.2494 13.4308 11.3299C13.622 11.3935 13.8091 11.4731 13.9942 11.5696C14.0226 11.5845 14.049 11.5968 14.074 11.6127C14.2537 11.7267 14.4393 11.8329 14.6027 11.9709C14.7377 12.0849 14.877 12.1963 14.9953 12.3328C15.0102 12.3497 15.012 12.3492 15.0259 12.3631C15.0385 12.3759 15.0422 12.3831 15.0543 12.3959L15.491 12.9661C15.7444 13.3628 15.9463 13.8088 16.067 14.2779C16.1807 14.7198 16.2414 15.1704 16.2169 15.6344Z" fill="#FB8A2E"/>
<path fill-rule="evenodd" clip-rule="evenodd" d="M4.87007 13.7878L4.90256 12.96C4.91276 12.8804 4.91508 12.8117 4.92485 12.7321C4.9439 12.5791 4.95966 12.44 4.98378 12.2923C5.02323 12.05 5.07196 11.8186 5.12814 11.5845H3.84858C3.76969 11.952 3.70934 12.3636 3.67546 12.7526C3.65133 13.0288 3.63184 13.3162 3.63184 13.5928L3.64669 14.3016C3.6518 14.5294 3.67314 14.7527 3.70099 14.9749C3.8133 15.8597 4.00405 16.7086 4.33171 17.5128L4.45702 17.8223C4.47187 17.8546 4.48672 17.8875 4.50157 17.9198L4.68072 18.3083C4.73781 18.4361 4.80928 18.5583 4.8752 18.6804C4.89328 18.7143 4.90769 18.7379 4.92577 18.7707L5.30261 19.3887L5.53326 19.7207C5.55279 19.7479 5.57271 19.7751 5.59224 19.8023L6.02894 20.3463C6.07632 20.3987 6.11809 20.4449 6.16542 20.4972C6.21134 20.548 6.25219 20.5932 6.29812 20.644C6.40346 20.761 6.52834 20.8893 6.64528 20.9935C6.66941 21.0151 6.69585 21.0366 6.71814 21.0597C6.95019 21.2984 7.37021 21.6089 7.63987 21.809C7.77447 21.9086 7.91645 21.9902 8.05569 22.0826C8.0831 22.1011 8.11094 22.1195 8.14019 22.136C8.17452 22.155 8.19356 22.1694 8.22605 22.1873L8.40053 22.2879C8.73096 22.4711 9.08001 22.6415 9.43133 22.7698C10.0699 23.0038 10.7095 23.1773 11.3917 23.2502C11.5913 23.2717 11.8024 23.2912 12.003 23.2985H12.558C12.7529 23.2933 13.2449 23.2461 13.4008 23.2215C13.7155 23.1727 14.0185 23.1167 14.3031 23.0372C14.5829 22.9592 14.8503 22.8714 15.1241 22.7713C15.4471 22.6533 15.7608 22.5019 16.0643 22.3362C16.0945 22.3197 16.1233 22.3079 16.1553 22.29L16.5855 22.0323C16.645 21.9953 16.6937 21.9615 16.7521 21.923C16.7828 21.903 16.8041 21.8871 16.8338 21.867C17.1991 21.6181 17.4372 21.4144 17.7667 21.1301L17.9454 20.9612C17.9616 20.9463 17.9658 20.9458 17.982 20.9284C17.9955 20.914 18.0015 20.9047 18.0159 20.8924C18.1987 20.7308 18.3617 20.5332 18.5273 20.35C18.5742 20.2981 18.609 20.2509 18.6564 20.199L19.0235 19.7248C19.257 19.3958 19.3776 19.2013 19.5809 18.8662L19.7809 18.5008C19.7967 18.4684 19.812 18.4371 19.8287 18.4069C20.0529 17.9968 20.3082 17.3188 20.4502 16.8857C20.5444 16.5972 20.621 16.2867 20.6924 15.9721C20.7811 15.5836 20.8479 15.1371 20.885 14.7178C20.9115 14.416 20.9245 14.1502 20.9287 13.8725V13.4275C20.9245 13.212 20.8813 12.67 20.8595 12.4955C21.0767 12.2661 21.2122 11.9422 21.2122 11.584C21.2122 10.8881 20.7017 10.3235 20.0724 10.3235C19.4426 10.3235 18.9325 10.8881 18.9325 11.584C18.9325 12.1101 19.224 12.5612 19.638 12.7501C19.6454 12.8194 19.6477 12.882 19.657 12.9533C19.6844 13.1688 19.6904 13.5866 19.6904 13.7878C19.6904 13.9603 19.6797 14.1127 19.676 14.2769C19.6686 14.5895 19.5665 15.2977 19.4973 15.6036C19.3948 16.0599 19.2713 16.512 19.101 16.9416C19.0769 17.0026 19.0564 17.0622 19.0295 17.1233L18.8007 17.6283C18.6944 17.8469 18.5798 18.0584 18.455 18.2647C18.4448 18.2817 18.442 18.2873 18.4322 18.3047C18.4211 18.3247 18.4183 18.3263 18.4076 18.3427L18.2642 18.567C18.1417 18.7466 18.021 18.9335 17.8822 19.0982C17.7992 19.1972 17.7217 19.3004 17.6353 19.3958L17.5504 19.4975C17.5402 19.5108 17.5323 19.5185 17.5212 19.5303L17.4033 19.6525C17.3091 19.7566 17.2112 19.8608 17.1058 19.9511C17.0905 19.9645 17.0882 19.9691 17.0747 19.9825C17.0608 19.9963 17.0566 19.9973 17.0422 20.0112C16.8362 20.2098 16.6125 20.3879 16.3851 20.5557C16.3377 20.5901 16.2936 20.626 16.2477 20.6563C16.1994 20.6882 16.1558 20.72 16.1066 20.7528C16.0806 20.7703 16.0588 20.7831 16.0319 20.8005C15.8119 20.9458 15.5784 21.0679 15.3491 21.1942C15.0758 21.3446 14.6288 21.5155 14.3434 21.6063C13.9624 21.7274 13.5897 21.805 13.1924 21.866C12.8722 21.9153 12.5562 21.9276 12.2313 21.9276C11.316 21.9276 10.3883 21.7269 9.54039 21.3502C9.21784 21.2065 8.91061 21.0341 8.6057 20.8519L8.18288 20.5619C7.94527 20.3869 7.63615 20.1421 7.42871 19.9291C7.33912 19.8367 7.24582 19.7515 7.15952 19.656L6.9864 19.4646C6.96784 19.4415 6.94787 19.422 6.92747 19.3994C6.86109 19.3261 6.76363 19.2178 6.70745 19.1372C6.68754 19.109 6.67685 19.0992 6.65689 19.0705C6.57335 18.9514 6.48101 18.8416 6.39887 18.7199C6.26752 18.5259 6.13153 18.3293 6.01922 18.121L5.49802 17.0427C5.3045 16.5854 5.17498 16.0979 5.0636 15.6077C4.99819 15.3213 4.96246 15.0416 4.92485 14.7424L4.884 14.2825C4.87612 14.1168 4.86916 13.9582 4.86916 13.7852L4.87007 13.7878ZM5.70131 7.40378C5.73099 7.40378 5.76024 7.40479 5.78949 7.40736C5.80849 7.38426 5.8257 7.36421 5.84098 7.34732C5.86699 7.31909 5.87767 7.29803 5.90363 7.2698C5.95096 7.21848 5.98577 7.17074 6.03266 7.11893L6.30184 6.82126C6.39002 6.72321 6.48841 6.63596 6.57799 6.54L6.68522 6.43891C6.89034 6.24848 7.10059 6.06425 7.32104 5.89537L7.64403 5.65725C7.77819 5.55818 7.92158 5.47553 8.05989 5.38369C8.14483 5.32723 8.23437 5.28412 8.31887 5.22972C8.47338 5.13067 8.7008 5.02648 8.86463 4.94488C9.57984 4.5887 10.3837 4.36595 11.1596 4.24739C11.317 4.22327 11.8076 4.17554 12.003 4.17041H12.4049C12.656 4.17503 12.8963 4.1894 13.1692 4.21865C13.5484 4.2592 13.9527 4.33362 14.3035 4.43114C14.6502 4.52762 14.9927 4.63899 15.3237 4.77808C15.3923 4.80682 15.4485 4.82991 15.5153 4.85968C15.7297 4.95411 16.0416 5.10551 16.2467 5.23228C16.3321 5.28514 16.4213 5.32979 16.5057 5.38625L16.8389 5.60438C16.8677 5.62335 16.8928 5.63875 16.9211 5.6603C17.0557 5.75989 17.1907 5.85126 17.3207 5.96005L17.5495 6.14738C17.6878 6.26286 17.8159 6.39117 17.9505 6.51076L18.0568 6.6134C18.0823 6.64211 18.1013 6.65446 18.1268 6.68269C18.1732 6.73503 18.2164 6.77352 18.2633 6.82532L18.5325 7.123C18.5793 7.17485 18.6142 7.22206 18.6615 7.27392L18.9692 7.66702C19.1455 7.917 19.321 8.16539 19.4807 8.43023C19.5178 8.49182 19.5479 8.54619 19.5855 8.60778L19.6157 8.66423H18.1032C18.0897 8.64525 18.0758 8.62628 18.0609 8.60623L17.7973 8.26236C17.7801 8.23724 17.7648 8.22237 17.7439 8.19928C17.7203 8.17362 17.7124 8.15566 17.6887 8.12999L17.4599 7.87744C17.3281 7.73326 17.2594 7.67012 17.1318 7.53925L17.0686 7.47921C16.6932 7.14406 16.4449 6.94187 16.0244 6.66163C15.9989 6.64468 15.979 6.63083 15.9548 6.61645C15.4615 6.32134 15.0526 6.1068 14.5096 5.91643C14.2056 5.80967 13.9011 5.7291 13.5865 5.6665C13.4523 5.63977 13.327 5.6218 13.1888 5.60127C13.1163 5.59053 13.0541 5.58796 12.9822 5.57668C12.9516 5.57203 12.9005 5.56642 12.875 5.56535C12.4661 5.5438 12.1951 5.53407 11.7844 5.55717C11.7533 5.5592 11.7602 5.56278 11.7324 5.56487C11.7133 5.56642 11.6948 5.56433 11.6748 5.5669L11.3685 5.60283C11.2293 5.62437 11.0919 5.64185 10.9647 5.66954C10.7118 5.72397 10.464 5.78604 10.2194 5.86356C9.92048 5.9585 9.49722 6.11915 9.21271 6.27414L8.45487 6.71605C8.21861 6.8736 7.99303 7.05013 7.77258 7.23286L7.27647 7.69477C7.25326 7.72091 7.23702 7.72968 7.21381 7.75582L7.09963 7.88209C7.07642 7.90465 7.0639 7.91337 7.04069 7.93903L6.92655 8.07354C6.8755 8.12999 6.82769 8.18901 6.77944 8.24852C6.82073 8.37891 6.84301 8.51898 6.84301 8.66477C6.84301 9.36067 6.33249 9.92522 5.70315 9.92522C5.07336 9.92522 4.5633 9.36067 4.5633 8.66477C4.5633 7.96833 5.07385 7.40426 5.70315 7.40426L5.70131 7.40378Z" fill="#05354D"/>
<path fill-rule="evenodd" clip-rule="evenodd" d="M2.08306 13.7887L2.12808 12.6411C2.14247 12.5287 2.14525 12.4317 2.15917 12.3188C2.18562 12.1022 2.20837 11.9067 2.24225 11.6978C2.30722 11.2985 2.3903 10.9187 2.4873 10.5312C2.73049 9.56068 3.11384 8.64045 3.57377 7.77566C3.69258 7.55192 3.82207 7.33123 3.96037 7.12183C4.17479 6.79593 4.38503 6.45821 4.63333 6.1631C4.75075 6.02352 4.85982 5.87778 4.98189 5.74327L5.14292 5.55338C5.17585 5.51697 5.19306 5.50516 5.22598 5.47281L5.38701 5.29422C5.41999 5.25778 5.44271 5.24495 5.47568 5.20851L6.176 4.5562C6.48743 4.29856 6.80583 4.04964 7.1395 3.82741L8.20884 3.20384C8.61029 2.98418 9.20758 2.75784 9.62944 2.62389C9.97471 2.51406 10.3247 2.4263 10.6816 2.34983C10.8616 2.31134 11.0556 2.28619 11.252 2.25591L11.6845 2.2051C11.7119 2.20202 11.7383 2.2051 11.7657 2.20304C11.8047 2.19945 11.7954 2.19432 11.8391 2.19227C12.4182 2.15942 12.8011 2.17328 13.3785 2.20356C13.4147 2.20561 13.4871 2.21331 13.5303 2.21998C13.6319 2.23589 13.7196 2.23897 13.8217 2.25437C14.0171 2.28362 14.1939 2.30877 14.3833 2.34624C14.8274 2.43502 15.2577 2.54896 15.6865 2.69934C16.4523 2.96827 17.0305 3.27056 17.7263 3.68679C17.7606 3.70732 17.7884 3.72682 17.8242 3.75094C18.4182 4.14613 18.7686 4.43148 19.2982 4.90417L19.3878 4.98936C19.5674 5.17412 19.6644 5.26343 19.8505 5.46666L20.173 5.82282C20.206 5.85928 20.2176 5.88441 20.251 5.92087C20.2807 5.9537 20.3021 5.97423 20.3266 6.01015L20.6989 6.49569C20.7494 6.56396 20.7921 6.62298 20.8409 6.69531C20.866 6.73231 20.8864 6.75898 20.9096 6.79234C20.9342 6.82773 20.9532 6.86109 20.9792 6.89959C21.0297 6.97352 21.0702 7.04126 21.1175 7.11466L21.6234 7.99276C21.7018 8.1524 21.7742 8.29097 21.8489 8.45675L22.1125 9.06284C22.132 9.10903 22.1441 9.14394 22.1622 9.19217C22.1956 9.28049 22.2248 9.35384 22.2573 9.44365C22.3209 9.61922 22.3803 9.79008 22.4346 9.97227C22.4894 10.1555 22.5409 10.3238 22.5901 10.5132C22.6899 10.8976 22.7674 11.2841 22.8365 11.6788C22.8713 11.8779 22.8941 12.0924 22.9215 12.3095C22.9354 12.4219 22.9382 12.5184 22.9526 12.6319C22.9916 12.9357 22.9999 13.5259 22.9999 13.8097C22.9999 14.053 22.985 14.268 22.9795 14.5C22.9786 14.54 22.9767 14.5847 22.9734 14.6324H24.7222C24.7361 14.3937 24.744 14.1643 24.7477 13.9288V13.3011C24.7417 12.9967 24.6804 12.231 24.6498 11.9857C24.4948 10.7442 24.2191 9.53197 23.7597 8.40335C23.6548 8.14572 23.5234 7.79469 23.3958 7.55192C23.3266 7.42003 23.2719 7.27991 23.1999 7.14749L22.8504 6.49825C22.798 6.41154 22.7553 6.33455 22.7024 6.24731C22.4773 5.87415 22.2295 5.52365 21.9807 5.17053L21.5468 4.61522C21.4799 4.54183 21.4308 4.47562 21.3644 4.40274L20.9847 3.98292C20.9184 3.90953 20.858 3.85513 20.7921 3.78174C20.7559 3.7417 20.7295 3.72425 20.6933 3.68371L20.5434 3.53898C20.354 3.37013 20.1726 3.18896 19.9776 3.02626L19.6551 2.76195C19.4722 2.60901 19.281 2.47967 19.0912 2.33905C19.0513 2.30928 19.0155 2.28721 18.9752 2.26001L18.5046 1.95208C18.3853 1.87253 18.2595 1.8094 18.1393 1.73498C17.8497 1.55586 17.4097 1.34236 17.1071 1.20892C17.0125 1.16735 16.9336 1.1345 16.8365 1.09396C16.3692 0.897392 15.8861 0.740344 15.3969 0.604338C14.9012 0.466279 14.3313 0.361582 13.7957 0.3041C13.4105 0.262529 13.0713 0.242512 12.7167 0.23584H12.1491C11.8739 0.243025 11.1814 0.310257 10.9596 0.34413C9.86473 0.511443 8.72955 0.826053 7.72012 1.3285C7.48899 1.44347 7.16783 1.59076 6.95014 1.73036C6.83087 1.80735 6.70416 1.86739 6.58446 1.94746C6.38953 2.07782 6.18668 2.19381 5.99732 2.33392L5.54206 2.66957C5.23062 2.90822 4.93407 3.16791 4.64447 3.43685L4.4927 3.57952C4.36646 3.71553 4.2277 3.8387 4.10285 3.97676L3.72321 4.39658C3.65684 4.46997 3.60765 4.53669 3.54128 4.60906C3.50508 4.64909 3.4893 4.67835 3.45264 4.71838C3.23173 4.95908 2.68408 5.75717 2.53556 5.99374C2.48173 6.07944 2.43392 6.15642 2.3838 6.24009L2.09327 6.74663C1.97771 6.96069 1.85379 7.18186 1.75307 7.40512L1.62498 7.67766C1.60363 7.7254 1.58878 7.76796 1.5665 7.81982C1.54469 7.87012 1.5266 7.9076 1.50385 7.95785C1.30986 8.38383 1.1567 8.83804 1.01004 9.28712C0.877305 9.69412 0.769172 10.1329 0.667997 10.5769C0.543152 11.125 0.448471 11.7547 0.396491 12.347C0.362147 12.7365 0.334761 13.1425 0.334761 13.5331L0.34173 13.8513C0.18811 14.0663 0.0966797 14.3373 0.0966797 14.6324C0.0966797 15.3289 0.607199 15.8929 1.23653 15.8929C1.86586 15.8929 2.37637 15.3283 2.37637 14.6324C2.37637 14.308 2.26499 14.0119 2.08306 13.7887ZM23.0723 17.0974C23.7017 17.0974 24.2122 17.662 24.2122 18.3579C24.2122 18.8475 23.9597 19.272 23.5912 19.4809C23.4612 19.7934 23.3248 20.0931 23.1958 20.3292C23.1721 20.3724 23.1512 20.4165 23.1285 20.4622L22.8463 20.978C22.559 21.4512 22.3891 21.7257 22.0596 22.1897L21.5417 22.859C21.4753 22.9313 21.4256 22.9985 21.3593 23.0719C21.1254 23.3306 20.8961 23.6098 20.6371 23.8382C20.6172 23.8556 20.6084 23.869 20.5893 23.889C20.5666 23.9136 20.5606 23.9141 20.5378 23.9352L20.2853 24.1733C19.8198 24.5742 19.4843 24.8626 18.9687 25.2131C18.9264 25.2419 18.8963 25.2639 18.8531 25.2921C18.7709 25.3466 18.7018 25.3938 18.6178 25.4461L18.0107 25.81C17.9653 25.8351 17.9249 25.8521 17.8822 25.8752C17.4534 26.1087 17.0106 26.3227 16.5548 26.489C16.1692 26.6302 15.7914 26.7544 15.3965 26.8642C14.9945 26.9761 14.5671 27.0551 14.1229 27.1239C13.9025 27.1583 13.2086 27.2255 12.9334 27.2321H12.1495C11.8669 27.2224 11.568 27.1942 11.2868 27.1644C10.3242 27.0613 9.42151 26.8164 8.5193 26.4859C8.02314 26.3043 7.53076 26.0646 7.06433 25.8059L6.81787 25.6642C6.77146 25.6386 6.74453 25.618 6.69676 25.5914C6.65543 25.5683 6.61646 25.5421 6.57745 25.5165C6.38161 25.3851 6.18064 25.2711 5.99084 25.13C5.61027 24.8472 5.01713 24.4084 4.68995 24.0722C4.65839 24.0399 4.6208 24.0091 4.58692 23.9793C4.4217 23.832 4.24579 23.6503 4.09682 23.4861C4.03184 23.4143 3.97476 23.3511 3.90932 23.2788C3.84249 23.2049 3.78355 23.1397 3.71672 23.0658L3.10038 22.298C3.073 22.2595 3.04469 22.2215 3.0173 22.183L2.69196 21.7145L2.1601 20.842C2.13411 20.7952 2.11415 20.7619 2.08816 20.7141C1.99534 20.5422 1.89463 20.3693 1.81388 20.1892L1.56094 19.6405C1.54052 19.5943 1.51916 19.5486 1.49828 19.5024L1.32146 19.0657C1.22631 18.8321 1.13953 18.5961 1.06017 18.3574H2.94815L2.96857 18.4057L3.70419 19.9274C3.86291 20.2214 4.05505 20.4986 4.23977 20.7727C4.35579 20.9441 4.48573 21.0991 4.60408 21.2669C4.63239 21.3069 4.64725 21.3208 4.67556 21.3608C4.75492 21.4743 4.89182 21.6272 4.98605 21.7309C5.01481 21.7627 5.04266 21.7899 5.0691 21.8233L5.31372 22.0932C5.43531 22.2277 5.5671 22.3488 5.69337 22.4786C5.9862 22.7794 6.42294 23.1248 6.75802 23.3717L7.35483 23.7812C7.7851 24.0384 8.21947 24.2822 8.6743 24.4843C9.87077 25.0165 11.1805 25.2994 12.4721 25.2994C12.9306 25.2994 13.3766 25.2819 13.8291 25.2126C14.3889 25.1264 14.9151 25.0171 15.4531 24.8462C15.8554 24.7184 16.4866 24.4766 16.8723 24.2647C17.1962 24.0866 17.5257 23.9141 17.8363 23.7088C17.8743 23.6837 17.905 23.6663 17.9416 23.6416C18.0112 23.5954 18.0725 23.5503 18.1407 23.5051C18.2052 23.4625 18.2683 23.4122 18.3347 23.3629C18.6558 23.1263 18.9714 22.8748 19.2625 22.5941C19.2829 22.5746 19.2889 22.5731 19.3089 22.5531C19.3274 22.5346 19.3307 22.5279 19.3525 22.5094C19.5005 22.3821 19.6393 22.2348 19.772 22.0876L19.9387 21.9151C19.954 21.8982 19.9656 21.8869 19.9799 21.8684L20.1002 21.7252C20.2218 21.5907 20.3313 21.445 20.4487 21.3054C20.6441 21.0729 20.8144 20.8091 20.9875 20.5556L21.1894 20.2384C21.2048 20.2148 21.2084 20.2127 21.2238 20.1845C21.2377 20.1599 21.2409 20.1522 21.2558 20.128C21.4317 19.8365 21.5941 19.5389 21.744 19.2299L21.9779 18.7131C21.9478 18.6002 21.9315 18.4806 21.9315 18.3569C21.9315 17.6604 22.442 17.0964 23.0714 17.0964L23.0723 17.0974Z" fill="#05354D"/>
<path d="M12.7398 22.4694C12.7398 22.3399 12.5974 22.2349 12.4216 22.2349C12.2459 22.2349 12.1035 22.3399 12.1035 22.4694V25.3388C12.1035 25.4684 12.2459 25.5734 12.4216 25.5734C12.5974 25.5734 12.7398 25.4684 12.7398 25.3388V22.4694Z" fill="#048069"/>
<path d="M12.7398 1.80193C12.7398 1.67239 12.5974 1.56738 12.4216 1.56738C12.2459 1.56738 12.1035 1.67239 12.1035 1.80193V4.67139C12.1035 4.80092 12.2459 4.90593 12.4216 4.90593C12.5974 4.90593 12.7398 4.80092 12.7398 4.67139V1.80193Z" fill="#FB8A2E"/>
<path d="M27.7529 7.82474C27.7529 4.98965 29.0325 3.5752 31.5911 3.5752C34.1562 3.5752 35.4385 4.98965 35.4385 7.82474V10.6197H32.4725V7.82474C32.4725 7.08927 32.1805 6.71921 31.5999 6.71258H31.5818C31.0072 6.71258 30.7191 7.08211 30.7191 7.82474V9.57843C30.7191 10.378 31.4788 11.3824 32.9983 12.5885C34.624 13.8685 35.4385 15.4036 35.4385 17.1937V19.6362C35.4385 22.4748 34.159 23.8955 31.6004 23.8955C29.0358 23.8888 27.7529 22.4713 27.7529 19.6362V16.8411H30.7191V19.6362C30.7191 20.3752 31.0138 20.7483 31.6004 20.7483C32.181 20.7483 32.4729 20.3752 32.4729 19.6362V17.4324C32.4729 16.5589 31.7132 15.5175 30.1937 14.3114C28.5679 13.0314 27.7534 11.4728 27.7534 9.63542L27.7529 7.82474Z" fill="#05354D"/>
<path d="M44.5471 3.87744V7.01839H42.1857V23.5824H39.2224V7.01839H36.8643V3.87744H44.5471Z" fill="#05354D"/>
<path d="M53.1659 16.5147L54.0105 23.5824H51.0204L50.5277 19.4873H48.3489L47.8504 23.5824H44.8662L45.7141 16.5449L47.5195 3.87744H51.367L53.1659 16.5147ZM50.1448 16.3366L49.4342 10.3739L48.723 16.3366H50.1448Z" fill="#05354D"/>
<path d="M60.5435 13.7299L63.9441 23.5824H60.7746L58.486 15.7284V23.5824H55.5234V3.87744H58.486V11.7011L60.7746 3.87744H63.9441L60.5435 13.7299Z" fill="#05354D"/>
<path d="M65.46 3.87744H72.4409V7.01839H68.423V12.1543H71.8787V15.3055H68.423V20.4414H72.4409V23.5824H65.46V3.87744Z" fill="#05354D"/>
<path d="M74.3101 3.87744H78.1999C80.5857 3.88411 81.7798 5.30473 81.7798 8.14033V11.0426C81.7798 13.1222 80.9289 14.4726 79.2238 15.0874C78.8133 15.2316 78.2269 15.3055 77.4612 15.3055H77.2726V23.5828H74.3096V3.87795L74.3101 3.87744ZM77.2731 7.01839V12.1543H77.6313C77.9509 12.1543 78.1573 12.1343 78.2545 12.0973C78.6287 11.9326 78.8138 11.58 78.8138 11.0421V8.1398C78.8138 7.39048 78.5252 7.01791 77.9417 7.01791L77.2731 7.01839Z" fill="#05354D"/>
<path d="M83.6489 3.87744H87.5387C89.9245 3.88411 91.1186 5.30473 91.1186 8.14033V11.0426C91.1186 12.8266 90.4713 13.9819 89.1766 14.5059L92.0362 23.5824H88.8024L86.7725 15.1069H86.6115V23.5824H83.6484V3.87744H83.6489ZM86.612 7.01839V12.1543H86.9707C87.2902 12.1543 87.4967 12.1343 87.5934 12.0973C87.9675 11.9326 88.1527 11.58 88.1527 11.0421V8.1398C88.1527 7.39048 87.8641 7.01791 87.2806 7.01791L86.612 7.01839Z" fill="#05354D"/>
<path d="M100.968 19.6357C100.968 22.4707 99.6855 23.8882 97.1203 23.8949C94.5619 23.8949 93.2822 22.4738 93.2822 19.6357V7.82474C93.2822 4.98965 94.5619 3.5752 97.1203 3.5752C99.6855 3.5752 100.968 4.98965 100.968 7.82474V19.6357ZM98.0016 7.82474C98.0016 7.08927 97.7101 6.71921 97.1295 6.71258H97.1111C96.5373 6.71258 96.2486 7.08211 96.2486 7.82474V19.6357C96.2486 20.3747 96.5402 20.7478 97.1203 20.7478C97.7072 20.7478 98.0016 20.3747 98.0016 19.6357V7.82474Z" fill="#05354D"/>
</g>
<defs>
<clipPath id="clip0_2833_64867">
<rect width="101.04" height="27.2653" fill="white"/>
</clipPath>
</defs>
</svg>
