<svg width="51" height="50" viewBox="0 0 51 50" fill="none" xmlns="http://www.w3.org/2000/svg">
<rect x="0.456543" width="50" height="50" rx="25" fill="#E6FFFA"/>
<path d="M35.4565 36.25V33.75C35.4565 32.4239 34.9298 31.1521 33.9921 30.2145C33.0544 29.2768 31.7826 28.75 30.4565 28.75H20.4565C19.1305 28.75 17.8587 29.2768 16.921 30.2145C15.9833 31.1521 15.4565 32.4239 15.4565 33.75V36.25" stroke="#02332A" stroke-width="2" stroke-linecap="round" stroke-linejoin="round"/>
<path d="M25.4565 23.75C28.218 23.75 30.4565 21.5114 30.4565 18.75C30.4565 15.9886 28.218 13.75 25.4565 13.75C22.6951 13.75 20.4565 15.9886 20.4565 18.75C20.4565 21.5114 22.6951 23.75 25.4565 23.75Z" stroke="#02332A" stroke-width="2" stroke-linecap="round" stroke-linejoin="round"/>
</svg>
