<svg width="131" height="36" viewBox="0 0 131 36" fill="none" xmlns="http://www.w3.org/2000/svg">
<g clip-path="url(#clip0_1424_14954)">
<path fill-rule="evenodd" clip-rule="evenodd" d="M11.5562 15.6886L11.5573 15.6622C11.5872 15.1161 11.6409 14.7404 11.7777 14.2154C11.866 13.8734 12.004 13.5452 12.1539 13.2362C12.3145 12.906 12.5014 12.6035 12.7158 12.3123C12.7289 12.2939 12.7349 12.2833 12.7486 12.2648C13.114 11.7867 13.5536 11.378 14.0456 11.0604C14.3376 10.8715 14.6463 10.7038 14.9681 10.5849C15.8681 10.2541 16.6533 10.2039 17.5967 10.3842C17.8655 10.4357 18.0965 10.5189 18.3503 10.6166C18.5378 10.6886 18.7283 10.7744 18.899 10.8821L19.1075 11.0016C19.1409 11.0234 19.1642 11.0445 19.2 11.067C19.2687 11.1105 19.3308 11.1515 19.3958 11.1984C19.6568 11.3865 20.033 11.7088 20.2522 11.9782C20.3471 12.0944 20.451 12.2113 20.5382 12.3341L20.6325 12.4761C20.7364 12.6214 20.8296 12.7765 20.9168 12.9344C21.0696 13.2124 21.2278 13.5273 21.3216 13.8338C21.3467 13.9156 21.3748 13.9823 21.401 14.0688C22.0829 16.3364 19.3749 15.7652 19.3863 15.4958C19.372 15.0005 19.3714 15.1425 19.1875 14.6684C19.1367 14.537 19.0805 14.4029 19.0095 14.2841C18.868 14.0471 18.7325 13.8351 18.5426 13.6363L18.3371 13.4356C17.7771 12.9172 16.95 12.6571 16.1672 12.8043C15.8603 12.8618 15.6309 12.9449 15.3849 13.077C15.2661 13.1404 15.1622 13.2104 15.0565 13.2844L14.5633 13.7525C14.4743 13.8457 14.3997 13.9664 14.3275 14.0754C14.3059 14.1078 14.2898 14.1322 14.2689 14.1659C13.7703 14.9695 13.6712 16.1191 13.9877 16.9643C14.0157 17.0397 14.0277 17.0905 14.0611 17.1605C14.0772 17.1941 14.085 17.2193 14.1011 17.2549C14.1877 17.4405 14.2832 17.6353 14.4086 17.7917C14.4349 17.8248 14.4391 17.8407 14.463 17.8723C14.5848 18.0361 14.7239 18.176 14.872 18.3095C15.0769 18.4944 15.3199 18.6502 15.5784 18.7631C15.8232 18.5947 16.1104 18.5062 16.4132 18.5208C16.8246 18.5406 17.2408 18.7255 17.5137 19.0662C17.6875 19.2828 17.6965 19.3224 17.8081 19.5786C17.9556 19.916 17.9388 20.4258 17.8254 20.7804C17.7675 20.962 17.6779 21.131 17.5716 21.2843C17.3907 21.5444 17.2319 21.6448 16.968 21.7861C16.5953 21.9848 16.0621 21.9188 15.7104 21.7372C15.6465 21.7042 15.5916 21.6666 15.5301 21.6243L15.3647 21.489C15.2972 21.4203 15.2118 21.3285 15.1407 21.2255C14.8953 21.1436 14.6541 21.0413 14.4158 20.9178C14.3794 20.8986 14.3454 20.8828 14.3131 20.8623C14.082 20.7157 13.8432 20.579 13.633 20.4014C13.4592 20.2548 13.2801 20.1115 13.1278 19.9358C13.1087 19.9141 13.1063 19.9147 13.0884 19.8969C13.0722 19.8804 13.0675 19.8718 13.052 19.8547L12.49 19.121C12.164 18.6112 11.9043 18.0368 11.749 17.4332C11.6033 16.8647 11.5251 16.2842 11.5568 15.6873L11.5562 15.6886Z" fill="#3EFFDC"/>
<path fill-rule="evenodd" clip-rule="evenodd" d="M21.3216 20.5763L21.3204 20.6027C21.2905 21.1488 21.2368 21.5246 21.1001 22.0496C21.0117 22.3916 20.8738 22.7198 20.7239 23.0281C20.5633 23.3583 20.3764 23.6614 20.162 23.9519C20.1488 23.9704 20.1429 23.981 20.1291 23.9988C19.7637 24.4776 19.3242 24.8857 18.8322 25.2032C18.5402 25.3921 18.2315 25.5598 17.9096 25.6781C17.0097 26.0088 16.2245 26.0591 15.281 25.8795C15.0123 25.8279 14.7813 25.7447 14.5275 25.647C14.3399 25.575 14.1495 25.4892 13.9787 25.3815L13.7703 25.2621C13.7368 25.2403 13.7136 25.2191 13.6778 25.1966C13.6085 25.1531 13.547 25.1121 13.4819 25.0653C13.221 24.8771 12.8448 24.5548 12.6256 24.2854C12.5313 24.1691 12.4268 24.0523 12.3396 23.9288L12.2453 23.7868C12.1413 23.6423 12.0482 23.4864 11.961 23.3286C11.8081 23.0513 11.6499 22.7356 11.5561 22.4292C11.5311 22.3473 11.503 22.2807 11.4767 22.1941C10.7948 19.9266 13.5028 20.4978 13.4915 20.7671C13.5064 21.2624 13.507 21.1204 13.6903 21.5945C13.7411 21.7259 13.7972 21.86 13.8682 21.9788C14.0098 22.2159 14.1453 22.4279 14.3352 22.6267L14.5406 22.8274C15.1007 23.3457 15.9271 23.6052 16.7106 23.4587C17.0175 23.4012 17.2468 23.318 17.4928 23.1859C17.6117 23.1226 17.7155 23.0526 17.8218 22.9786L18.3151 22.5104C18.404 22.4173 18.4787 22.2965 18.551 22.1875C18.5724 22.1545 18.5885 22.1307 18.6094 22.0964C19.108 21.2935 19.2072 20.1438 18.8907 19.2986C18.8626 19.2233 18.8507 19.1724 18.8172 19.1025C18.8005 19.0682 18.7933 19.0437 18.7772 19.008C18.6907 18.8225 18.5951 18.6277 18.4697 18.4712C18.4435 18.4382 18.4392 18.4224 18.4154 18.3906C18.2936 18.2269 18.1544 18.0869 18.0063 17.9535C17.8016 17.7686 17.5585 17.6128 17.3 17.4999C17.0551 17.6683 16.7679 17.7567 16.4652 17.7422C16.0537 17.7224 15.6375 17.5375 15.3646 17.1968C15.1909 16.9802 15.1819 16.9405 15.0696 16.6844C14.9228 16.3469 14.9395 15.8372 15.0523 15.4826C15.1102 15.3003 15.1998 15.1319 15.3061 14.9787C15.4871 14.7185 15.6459 14.6182 15.9098 14.4769C16.2824 14.2781 16.8157 14.3441 17.1674 14.5257C17.2313 14.5587 17.2862 14.5964 17.3477 14.6387L17.5131 14.7746C17.5806 14.8434 17.666 14.9345 17.7371 15.0382C17.9831 15.12 18.2237 15.2224 18.4619 15.3465C18.4984 15.3656 18.5324 15.3815 18.5646 15.402C18.7958 15.5486 19.0346 15.6853 19.2448 15.8629C19.4185 16.0095 19.5977 16.1528 19.7499 16.3284C19.7691 16.3502 19.7715 16.3495 19.7894 16.3674C19.8055 16.3839 19.8103 16.3931 19.8258 16.4097L20.3877 17.1433C20.7137 17.6537 20.9735 18.2276 21.1287 18.8311C21.275 19.3996 21.3532 19.9794 21.3216 20.5763Z" fill="#FB8A2E"/>
<path fill-rule="evenodd" clip-rule="evenodd" d="M6.72241 18.2001L6.76421 17.135C6.77734 17.0326 6.78032 16.9442 6.79289 16.8418C6.81739 16.645 6.83767 16.466 6.86871 16.2759C6.91947 15.9642 6.98216 15.6664 7.05444 15.3653H5.40814C5.30663 15.8381 5.22899 16.3677 5.1854 16.8682C5.15435 17.2235 5.12927 17.5933 5.12927 17.9492L5.14839 18.8611C5.15496 19.1543 5.18242 19.4415 5.21824 19.7274C5.36275 20.8658 5.60818 21.9581 6.02975 22.9928L6.19097 23.391C6.21008 23.4325 6.22918 23.4748 6.24829 23.5164L6.47879 24.0163C6.55224 24.1807 6.6442 24.3379 6.72901 24.495C6.75227 24.5386 6.77081 24.569 6.79407 24.6112L7.27893 25.4063L7.57569 25.8335C7.60081 25.8685 7.62644 25.9035 7.65157 25.9385L8.21343 26.6384C8.27439 26.7058 8.32813 26.7653 8.38903 26.8326C8.44812 26.8979 8.50068 26.9561 8.55977 27.0214C8.6953 27.172 8.85597 27.3371 9.00643 27.4711C9.03747 27.4988 9.07149 27.5266 9.10017 27.5563C9.39873 27.8633 9.93914 28.2628 10.2861 28.5204C10.4593 28.6485 10.6419 28.7535 10.8211 28.8723C10.8564 28.8961 10.8922 28.9199 10.9298 28.941C10.974 28.9655 10.9985 28.984 11.0403 29.0071L11.2648 29.1365C11.6899 29.3722 12.139 29.5915 12.591 29.7565C13.4126 30.0576 14.2355 30.2808 15.1133 30.3746C15.37 30.4023 15.6417 30.4274 15.8997 30.4367H16.6139C16.8647 30.4301 17.4976 30.3693 17.6983 30.3376C18.1031 30.2749 18.493 30.2029 18.8591 30.1005C19.2191 30.0002 19.5631 29.8872 19.9154 29.7585C20.331 29.6066 20.7347 29.4118 21.1252 29.1986C21.164 29.1774 21.201 29.1622 21.2422 29.1391L21.7958 28.8076C21.8722 28.7601 21.9349 28.7165 22.0101 28.667C22.0495 28.6412 22.077 28.6208 22.1152 28.595C22.5852 28.2747 22.8915 28.0126 23.3155 27.6468L23.5453 27.4295C23.5662 27.4104 23.5716 27.4097 23.5925 27.3873C23.6098 27.3688 23.6176 27.3569 23.6361 27.341C23.8713 27.133 24.081 26.8788 24.2941 26.6431C24.3545 26.5764 24.3992 26.5156 24.4601 26.4489L24.9325 25.8388C25.2329 25.4155 25.3881 25.1653 25.6496 24.7341L25.907 24.2639C25.9273 24.2223 25.947 24.182 25.9685 24.1431C26.2569 23.6155 26.5854 22.7432 26.768 22.1859C26.8893 21.8147 26.9878 21.4152 27.0797 21.0105C27.1938 20.5106 27.2798 19.9361 27.3275 19.3966C27.3616 19.0083 27.3783 18.6663 27.3837 18.309V17.7366C27.3783 17.4592 27.3227 16.7619 27.2947 16.5374C27.5742 16.2422 27.7485 15.8255 27.7485 15.3647C27.7485 14.4692 27.0917 13.7429 26.282 13.7429C25.4716 13.7429 24.8154 14.4692 24.8154 15.3647C24.8154 16.0415 25.1904 16.6219 25.7231 16.8649C25.7326 16.9541 25.7356 17.0346 25.7476 17.1264C25.7828 17.4037 25.7906 17.9413 25.7906 18.2001C25.7906 18.422 25.7768 18.6181 25.772 18.8294C25.7625 19.2315 25.6311 20.1428 25.5421 20.5364C25.4102 21.1234 25.2513 21.7051 25.0322 22.2578C25.0012 22.3364 24.9748 22.413 24.9402 22.4915L24.6459 23.1414C24.5091 23.4226 24.3616 23.6947 24.201 23.9602C24.1879 23.982 24.1843 23.9892 24.1717 24.0117C24.1574 24.0374 24.1538 24.0394 24.1401 24.0605L23.9556 24.3491C23.7979 24.5802 23.6427 24.8206 23.4641 25.0325C23.3573 25.16 23.2575 25.2927 23.1465 25.4155L23.0372 25.5463C23.024 25.5635 23.0139 25.5734 22.9995 25.5885L22.8479 25.7457C22.7267 25.8797 22.6007 26.0138 22.4651 26.13C22.4454 26.1472 22.4425 26.1531 22.4251 26.1703C22.4072 26.1881 22.4018 26.1894 22.3833 26.2073C22.1182 26.4628 21.8304 26.6919 21.5378 26.9078C21.4769 26.9521 21.4201 26.9983 21.361 27.0373C21.299 27.0782 21.2428 27.1191 21.1795 27.1615C21.1461 27.1839 21.118 27.2004 21.0834 27.2228C20.8004 27.4097 20.5 27.5669 20.205 27.7293C19.8533 27.9228 19.2782 28.1427 18.911 28.2595C18.4208 28.4154 17.9413 28.5151 17.4301 28.5937C17.0181 28.6571 16.6115 28.6729 16.1935 28.6729C15.0159 28.6729 13.8223 28.4147 12.7313 27.93C12.3163 27.7452 11.921 27.5233 11.5287 27.2888L10.9847 26.9158C10.679 26.6906 10.2813 26.3757 10.0144 26.1016C9.89914 25.9828 9.77909 25.8731 9.66806 25.7503L9.44532 25.504C9.42144 25.4743 9.39575 25.4492 9.3695 25.4201C9.2841 25.3257 9.1587 25.1864 9.08642 25.0827C9.0608 25.0464 9.04705 25.0338 9.02136 24.9969C8.91388 24.8437 8.79507 24.7023 8.68939 24.5459C8.52039 24.2962 8.34542 24.0433 8.20093 23.7753L7.53034 22.3879C7.28135 21.7996 7.11471 21.1723 6.9714 20.5416C6.88725 20.1732 6.84128 19.8133 6.79289 19.4283L6.74033 18.8366C6.73019 18.6234 6.72123 18.4193 6.72123 18.1968L6.72241 18.2001ZM7.7919 9.98628C7.83009 9.98628 7.86772 9.98759 7.90535 9.99089C7.9298 9.96118 7.95194 9.93538 7.9716 9.91365C8.00506 9.87733 8.01881 9.85023 8.05221 9.81391C8.1131 9.74788 8.15789 9.68645 8.21822 9.6198L8.56456 9.23681C8.67801 9.11066 8.80459 8.9984 8.91985 8.87493L9.05781 8.74486C9.32173 8.49985 9.59224 8.26282 9.87588 8.04553L10.2914 7.73917C10.464 7.61171 10.6485 7.50537 10.8265 7.3872C10.9358 7.31456 11.051 7.25909 11.1597 7.1891C11.3585 7.06166 11.6511 6.92761 11.8619 6.82262C12.7821 6.36435 13.8163 6.07776 14.8147 5.92522C15.0172 5.89419 15.6483 5.83278 15.8997 5.82617H16.4168C16.7399 5.83211 17.0491 5.8506 17.4003 5.88824C17.8881 5.94041 18.4082 6.03616 18.8597 6.16163C19.3057 6.28577 19.7464 6.42906 20.1722 6.60801C20.2605 6.64499 20.3328 6.6747 20.4188 6.71299C20.6946 6.83449 21.0959 7.02929 21.3599 7.19239C21.4697 7.26041 21.5844 7.31786 21.6931 7.3905L22.1218 7.67114C22.1588 7.69556 22.191 7.71537 22.2275 7.74309C22.4007 7.87123 22.5744 7.98878 22.7416 8.12876L23.036 8.36978C23.2139 8.51836 23.3787 8.68344 23.5519 8.83731L23.6887 8.96937C23.7215 9.00631 23.7459 9.0222 23.7788 9.05852C23.8385 9.12586 23.894 9.17538 23.9544 9.24204L24.3007 9.62503C24.361 9.69175 24.4058 9.75248 24.4667 9.8192L24.8626 10.325C25.0895 10.6466 25.3152 10.9662 25.5207 11.3069C25.5684 11.3862 25.6072 11.4561 25.6556 11.5354L25.6944 11.608H23.7484C23.731 11.5836 23.7132 11.5592 23.694 11.5334L23.3548 11.091C23.3327 11.0586 23.313 11.0395 23.2862 11.0098C23.2557 10.9768 23.2456 10.9537 23.2151 10.9206L22.9207 10.5957C22.7512 10.4102 22.6628 10.329 22.4986 10.1606L22.4173 10.0833C21.9343 9.65213 21.6148 9.39199 21.0738 9.03142C21.0409 9.00961 21.0153 8.9918 20.9842 8.9733C20.3495 8.59361 19.8234 8.31757 19.1248 8.07263C18.7337 7.93527 18.3419 7.83161 17.9371 7.75107C17.7645 7.71667 17.6033 7.69356 17.4254 7.66715C17.3322 7.65332 17.2522 7.65002 17.1596 7.63551C17.1202 7.62952 17.0546 7.6223 17.0217 7.62093C16.4956 7.59321 16.1469 7.58069 15.6185 7.6104C15.5785 7.61302 15.5874 7.61762 15.5516 7.62031C15.5271 7.6223 15.5032 7.61962 15.4775 7.62292L15.0834 7.66914C14.9043 7.69686 14.7276 7.71936 14.5639 7.75499C14.2385 7.82501 13.9196 7.90487 13.6049 8.00461C13.2204 8.12677 12.6758 8.33346 12.3097 8.53287L11.3347 9.10144C11.0307 9.30415 10.7405 9.53127 10.4568 9.76638L9.81853 10.3607C9.78867 10.3943 9.76777 10.4056 9.73792 10.4392L9.591 10.6017C9.56114 10.6307 9.54503 10.6419 9.51517 10.675L9.36832 10.848C9.30263 10.9206 9.24112 10.9966 9.17904 11.0731C9.23216 11.2409 9.26083 11.4211 9.26083 11.6087C9.26083 12.5041 8.60399 13.2304 7.79426 13.2304C6.98397 13.2304 6.32772 12.5041 6.32772 11.6087C6.32772 10.7126 6.98459 9.9869 7.79426 9.9869L7.7919 9.98628Z" fill="url(#paint0_linear_1424_14954)"/>
<path fill-rule="evenodd" clip-rule="evenodd" d="M3.13665 18.201L3.19457 16.7245C3.21308 16.5799 3.21666 16.4551 3.23457 16.3098C3.26861 16.0311 3.29787 15.7796 3.34146 15.5108C3.42506 14.9971 3.53195 14.5084 3.65675 14.0099C3.96964 12.7612 4.46287 11.5772 5.05462 10.4645C5.20749 10.1767 5.37409 9.89274 5.55204 9.62331C5.82791 9.204 6.09841 8.76949 6.41787 8.3898C6.56895 8.21021 6.70928 8.0227 6.86633 7.84964L7.07353 7.60532C7.11589 7.55848 7.13803 7.54328 7.18039 7.50166L7.38758 7.27188C7.43 7.225 7.45923 7.20849 7.50166 7.1616L8.4027 6.32233C8.8034 5.99084 9.21305 5.67058 9.64236 5.38466L11.0182 4.58236C11.5347 4.29974 12.3032 4.00853 12.846 3.83619C13.2902 3.69487 13.7405 3.58196 14.1996 3.48357C14.4313 3.43404 14.681 3.40169 14.9336 3.36273L15.4901 3.29736C15.5253 3.29339 15.5593 3.29736 15.5946 3.29472C15.6447 3.29009 15.6328 3.28349 15.6889 3.28085C16.4341 3.23859 16.9267 3.25642 17.6696 3.29538C17.7162 3.29802 17.8093 3.30792 17.8648 3.31651C17.9956 3.33698 18.1085 3.34094 18.2398 3.36075C18.4912 3.39839 18.7187 3.43074 18.9624 3.47895C19.5338 3.59318 20.0873 3.73978 20.6391 3.93325C21.6244 4.27927 22.3684 4.6682 23.2635 5.20373C23.3077 5.23014 23.3435 5.25523 23.3895 5.28627C24.1538 5.79472 24.6046 6.16187 25.286 6.77003L25.4012 6.87964C25.6323 7.11736 25.7571 7.23226 25.9966 7.49375L26.4116 7.95199C26.454 7.9989 26.4688 8.03123 26.5119 8.07814C26.5501 8.12038 26.5776 8.14679 26.6092 8.19301L27.0881 8.81771C27.1532 8.90555 27.2081 8.98149 27.2708 9.07455C27.3031 9.12215 27.3293 9.15647 27.3592 9.1994C27.3908 9.24493 27.4153 9.28785 27.4488 9.33738C27.5138 9.43251 27.5658 9.51966 27.6267 9.6141L28.2776 10.7439C28.3785 10.9493 28.4717 11.1276 28.5678 11.3409L28.9069 12.1207C28.932 12.1801 28.9476 12.225 28.9708 12.2871C29.0139 12.4007 29.0514 12.4951 29.0932 12.6106C29.1751 12.8365 29.2515 13.0563 29.3214 13.2908C29.3919 13.5265 29.4581 13.7431 29.5214 13.9868C29.6498 14.4813 29.7495 14.9786 29.8385 15.4864C29.8832 15.7426 29.9125 16.0186 29.9477 16.2979C29.9657 16.4425 29.9693 16.5667 29.9877 16.7126C30.0379 17.1035 30.0486 17.8629 30.0486 18.2281C30.0486 18.5411 30.0295 18.8177 30.0224 19.1162C30.0212 19.1677 30.0188 19.2252 30.0146 19.2865H32.2646C32.2825 18.9795 32.2927 18.6843 32.2974 18.3813V17.5737C32.2897 17.1821 32.2109 16.1969 32.1715 15.8812C31.972 14.2839 31.6173 12.7242 31.0262 11.2721C30.8912 10.9407 30.7222 10.489 30.558 10.1767C30.469 10.007 30.3986 9.82671 30.306 9.65633L29.8564 8.82101C29.7889 8.70944 29.734 8.6104 29.6659 8.49814C29.3763 8.01802 29.0575 7.56707 28.7374 7.11274L28.1791 6.39826C28.093 6.30384 28.0298 6.21865 27.9444 6.12489L27.4559 5.58474C27.3706 5.49031 27.2929 5.42032 27.2081 5.32589C27.1615 5.27438 27.1275 5.25193 27.081 5.19977L26.8881 5.01355C26.6444 4.7963 26.4109 4.56321 26.1601 4.35388L25.7451 4.01381C25.5099 3.81704 25.2639 3.65063 25.0196 3.4697C24.9683 3.4314 24.9223 3.40301 24.8703 3.36801L24.2649 2.97181C24.1114 2.86946 23.9496 2.78824 23.7949 2.6925C23.4223 2.46204 22.8562 2.18734 22.4669 2.01566C22.3451 1.96217 22.2436 1.91991 22.1188 1.86774C21.5175 1.61484 20.8959 1.41278 20.2665 1.23779C19.6287 1.06016 18.8955 0.925454 18.2064 0.851497C17.7108 0.79801 17.2743 0.772256 16.8181 0.763672H16.0878C15.7337 0.772916 14.8428 0.859419 14.5574 0.903001C13.1487 1.11827 11.6882 1.52305 10.3894 2.16951C10.092 2.31743 9.67881 2.50694 9.39872 2.68655C9.24527 2.7856 9.08224 2.86286 8.92823 2.96587C8.67744 3.1336 8.41644 3.28283 8.1728 3.4631L7.58706 3.89495C7.18636 4.20201 6.80482 4.53613 6.4322 4.88215L6.23694 5.06572C6.07452 5.24071 5.89598 5.39919 5.73535 5.57681L5.2469 6.11696C5.16151 6.21139 5.09821 6.29723 5.01282 6.39034C4.96625 6.44185 4.94595 6.47948 4.89878 6.53099C4.61454 6.84068 3.90993 7.86752 3.71885 8.1719C3.64958 8.28216 3.58808 8.38121 3.52359 8.48885L3.14978 9.14058C3.0011 9.416 2.84166 9.70056 2.71208 9.9878L2.54727 10.3385C2.51981 10.3999 2.5007 10.4546 2.47204 10.5214C2.44397 10.5861 2.42069 10.6343 2.39143 10.699C2.14183 11.247 1.94477 11.8314 1.75608 12.4092C1.5853 12.9329 1.44617 13.4975 1.316 14.0686C1.15537 14.7739 1.03355 15.5841 0.966676 16.3462C0.922488 16.8473 0.887253 17.3697 0.887253 17.8721L0.896219 18.2815C0.698569 18.5583 0.580933 18.9069 0.580933 19.2865C0.580933 20.1827 1.23778 20.9083 2.04748 20.9083C2.85719 20.9083 3.51402 20.182 3.51402 19.2865C3.51402 18.8692 3.37072 18.4882 3.13665 18.201ZM30.1418 22.4581C30.9515 22.4581 31.6084 23.1845 31.6084 24.0799C31.6084 24.7098 31.2835 25.2559 30.8094 25.5247C30.6422 25.9268 30.4666 26.3125 30.3007 26.6162C30.2702 26.6717 30.2433 26.7285 30.2141 26.7873L29.851 27.4509C29.4814 28.0597 29.2628 28.413 28.8389 29.0099L28.1725 29.871C28.0871 29.9641 28.0232 30.0506 27.9378 30.145C27.6369 30.4778 27.3419 30.8371 27.0087 31.1309C26.983 31.1534 26.9717 31.1706 26.9472 31.1963C26.9179 31.228 26.9102 31.2286 26.8809 31.2557L26.556 31.5621C25.9571 32.0778 25.5254 32.4489 24.862 32.8999C24.8076 32.9369 24.7688 32.9653 24.7133 33.0016C24.6076 33.0716 24.5187 33.1323 24.4105 33.1997L23.6295 33.6679C23.571 33.7002 23.519 33.722 23.4641 33.7518C22.9124 34.0522 22.3427 34.3275 21.7563 34.5415C21.2601 34.7231 20.774 34.8829 20.2659 35.0242C19.7488 35.1682 19.1988 35.2698 18.6274 35.3583C18.3437 35.4026 17.451 35.4891 17.097 35.4976H16.0884C15.7247 35.4851 15.3402 35.4488 14.9783 35.4105C13.7399 35.2778 12.5784 34.9628 11.4176 34.5375C10.7793 34.3038 10.1458 33.9954 9.54564 33.6626L9.22854 33.4803C9.16883 33.4473 9.13418 33.4209 9.07273 33.3866C9.01955 33.3569 8.96941 33.3232 8.91922 33.2902C8.66724 33.1211 8.40867 32.9746 8.16447 32.793C7.67482 32.4291 6.91168 31.8645 6.49072 31.432C6.45011 31.3904 6.40175 31.3508 6.35816 31.3125C6.14558 31.123 5.91926 30.8892 5.72758 30.6779C5.64399 30.5855 5.57054 30.5042 5.48634 30.4112C5.40036 30.316 5.32453 30.2322 5.23854 30.1371L4.44555 29.1493C4.41032 29.0997 4.37389 29.0509 4.33866 29.0014L3.92007 28.3985L3.23576 27.2759C3.20233 27.2158 3.17665 27.1729 3.14321 27.1115C3.02378 26.8902 2.89421 26.6677 2.79031 26.436L2.46488 25.7301C2.4386 25.6706 2.41113 25.6119 2.38426 25.5525L2.15675 24.9905C2.03434 24.69 1.92268 24.3863 1.82057 24.0792H4.24969L4.27596 24.1413L5.22242 26.0992C5.42664 26.4775 5.67385 26.8341 5.91151 27.1868C6.06079 27.4073 6.22797 27.6067 6.38024 27.8227C6.41667 27.8741 6.43578 27.892 6.4722 27.9435C6.57431 28.0894 6.75045 28.2862 6.87168 28.4196C6.90869 28.4605 6.94452 28.4955 6.97855 28.5385L7.29328 28.8858C7.44972 29.0588 7.61928 29.2146 7.78175 29.3817C8.1585 29.7687 8.72042 30.2131 9.15154 30.5307L9.91941 31.0576C10.473 31.3885 11.0319 31.7021 11.6171 31.9623C13.1565 32.647 14.8416 33.0109 16.5034 33.0109C17.0934 33.0109 17.6672 32.9884 18.2494 32.8992C18.9695 32.7884 19.6466 32.6477 20.3388 32.4278C20.8564 32.2634 21.6685 31.9524 22.1648 31.6796C22.5815 31.4505 23.0055 31.2286 23.405 30.9645C23.454 30.9321 23.4934 30.9097 23.5405 30.878C23.6301 30.8186 23.7089 30.7605 23.7968 30.7023C23.8797 30.6475 23.9609 30.5829 24.0463 30.5194C24.4595 30.215 24.8655 29.8914 25.24 29.5303C25.2662 29.5051 25.274 29.5032 25.2997 29.4774C25.3236 29.4537 25.3278 29.4451 25.3558 29.4213C25.5463 29.2575 25.7249 29.068 25.8956 28.8785L26.11 28.6566C26.1297 28.6349 26.1447 28.6203 26.1631 28.5966L26.3178 28.4123C26.4743 28.2393 26.6151 28.0518 26.7662 27.8722C27.0176 27.5731 27.2368 27.2336 27.4595 26.9074L27.7193 26.4993C27.739 26.469 27.7437 26.4663 27.7634 26.43C27.7813 26.3983 27.7855 26.3884 27.8047 26.3574C28.031 25.9823 28.24 25.5993 28.4328 25.2018L28.7338 24.5369C28.695 24.3916 28.6741 24.2377 28.6741 24.0786C28.6741 23.1825 29.3309 22.4568 30.1406 22.4568L30.1418 22.4581Z" fill="url(#paint1_linear_1424_14954)"/>
<path d="M16.8478 29.3701C16.8478 29.2035 16.6646 29.0684 16.4385 29.0684C16.2124 29.0684 16.0292 29.2035 16.0292 29.3701V33.062C16.0292 33.2286 16.2124 33.3637 16.4385 33.3637C16.6646 33.3637 16.8478 33.2286 16.8478 33.062V29.3701Z" fill="#08FFD2"/>
<path d="M16.8478 2.78029C16.8478 2.61362 16.6646 2.47852 16.4385 2.47852C16.2124 2.47852 16.0292 2.61362 16.0292 2.78029V6.47219C16.0292 6.63885 16.2124 6.77396 16.4385 6.77396C16.6646 6.77396 16.8478 6.63885 16.8478 6.47219V2.78029Z" fill="#FB8A2E"/>
<path d="M36.1646 10.5281C36.1646 6.88042 37.8108 5.06055 41.1028 5.06055C44.4031 5.06055 46.053 6.88042 46.053 10.5281V14.1242H42.2368V10.5281C42.2368 9.58182 41.8612 9.1057 41.1142 9.09717H41.0909C40.3516 9.09717 39.9808 9.57261 39.9808 10.5281V12.7844C39.9808 13.8132 40.9583 15.1055 42.9133 16.6573C45.005 18.3041 46.053 20.2792 46.053 22.5824V25.7249C46.053 29.3772 44.4067 31.205 41.1148 31.205C37.8151 31.1964 36.1646 29.3726 36.1646 25.7249V22.1288H39.9808V25.7249C39.9808 26.6758 40.36 27.1558 41.1148 27.1558C41.8618 27.1558 42.2374 26.6758 42.2374 25.7249V22.8895C42.2374 21.7656 41.2599 20.4257 39.3049 18.874C37.2131 17.2271 36.1652 15.2217 36.1652 12.8577L36.1646 10.5281Z" fill="#31FFDA"/>
<path d="M57.7716 5.44922V9.49043H54.7334V30.8019H50.9208V9.49043H47.8867V5.44922H57.7716Z" fill="#31FFDA"/>
<path d="M68.8603 21.7085L69.947 30.8019H66.0998L65.466 25.5331H62.6626L62.0213 30.8019H58.1818L59.2727 21.7474L61.5955 5.44922H66.5458L68.8603 21.7085ZM64.9734 21.4794L64.059 13.8077L63.144 21.4794H64.9734Z" fill="#31FFDA"/>
<path d="M78.3534 18.1255L82.7286 30.8019H78.6507L75.7061 20.6969V30.8019H71.8944V5.44922H75.7061V15.5153L78.6507 5.44922H82.7286L78.3534 18.1255Z" fill="#31FFDA"/>
<path d="M84.6792 5.44922H93.661V9.49043H88.4915V16.0983H92.9376V20.1528H88.4915V26.7607H93.661V30.8019H84.6792V5.44922Z" fill="#31FFDA"/>
<path d="M96.0651 5.44922H101.07C104.139 5.4578 105.676 7.2856 105.676 10.9339V14.6681C105.676 17.3437 104.581 19.0811 102.387 19.8721C101.859 20.0577 101.105 20.1528 100.119 20.1528H99.8768V30.8026H96.0645V5.44988L96.0651 5.44922ZM99.8774 9.49043V16.0983H100.338C100.749 16.0983 101.015 16.0726 101.14 16.0251C101.621 15.8131 101.86 15.3595 101.86 14.6674V10.9332C101.86 9.96917 101.488 9.48981 100.738 9.48981L99.8774 9.49043Z" fill="#31FFDA"/>
<path d="M108.08 5.44922H113.085C116.155 5.4578 117.691 7.2856 117.691 10.9339V14.6681C117.691 16.9634 116.858 18.4498 115.193 19.124L118.872 30.8019H114.711L112.099 19.8972H111.892V30.8019H108.08V5.44922H108.08ZM111.893 9.49043V16.0983H112.354C112.765 16.0983 113.031 16.0726 113.155 16.0251C113.637 15.8131 113.875 15.3594 113.875 14.6674V10.9332C113.875 9.96917 113.504 9.48981 112.753 9.48981L111.893 9.49043Z" fill="#31FFDA"/>
<path d="M130.364 25.7243C130.364 29.3719 128.714 31.1957 125.413 31.2043C122.122 31.2043 120.475 29.3759 120.475 25.7243V10.5281C120.475 6.88042 122.122 5.06055 125.413 5.06055C128.714 5.06055 130.364 6.88042 130.364 10.5281V25.7243ZM126.547 10.5281C126.547 9.58182 126.172 9.1057 125.425 9.09717H125.402C124.663 9.09717 124.292 9.57261 124.292 10.5281V25.7243C124.292 26.6751 124.667 27.1552 125.413 27.1552C126.169 27.1552 126.547 26.6751 126.547 25.7243V10.5281Z" fill="#31FFDA"/>
</g>
<defs>
<linearGradient id="paint0_linear_1424_14954" x1="16.4389" y1="5.82617" x2="16.4389" y2="30.4367" gradientUnits="userSpaceOnUse">
<stop stop-color="#3EFFDC"/>
<stop offset="1" stop-color="#FB8A2E" stop-opacity="0.87"/>
</linearGradient>
<linearGradient id="paint1_linear_1424_14954" x1="5.95671" y1="-2.49969" x2="33.9567" y2="36.0003" gradientUnits="userSpaceOnUse">
<stop stop-color="#3EFFDC"/>
<stop offset="0.555556" stop-color="#FB8A2E"/>
<stop offset="1" stop-color="#FA923E" stop-opacity="0.87"/>
</linearGradient>
<clipPath id="clip0_1424_14954">
<rect width="130" height="35.08" fill="white" transform="translate(0.456665 0.460938)"/>
</clipPath>
</defs>
</svg>
