<svg width="130" height="36" viewBox="0 0 130 36" fill="none" xmlns="http://www.w3.org/2000/svg">
<g clip-path="url(#clip0_1509_9321)">
<path fill-rule="evenodd" clip-rule="evenodd" d="M11.0996 15.6886L11.1008 15.6622C11.1307 15.1161 11.1844 14.7404 11.3212 14.2154C11.4095 13.8734 11.5475 13.5452 11.6974 13.2362C11.858 12.906 12.0449 12.6035 12.2592 12.3123C12.2724 12.2939 12.2783 12.2833 12.2921 12.2648C12.6575 11.7867 13.097 11.378 13.589 11.0604C13.8811 10.8715 14.1898 10.7038 14.5116 10.5849C15.4115 10.2541 16.1967 10.2039 17.1402 10.3842C17.4089 10.4357 17.64 10.5189 17.8938 10.6166C18.0812 10.6886 18.2718 10.7744 18.4425 10.8821L18.6509 11.0016C18.6843 11.0234 18.7077 11.0445 18.7435 11.067C18.8122 11.1105 18.8742 11.1515 18.9393 11.1984C19.2003 11.3865 19.5765 11.7088 19.7956 11.9782C19.8905 12.0944 19.9945 12.2113 20.0816 12.3341L20.176 12.4761C20.2799 12.6214 20.373 12.7765 20.4602 12.9344C20.6131 13.2124 20.7713 13.5273 20.865 13.8338C20.8902 13.9156 20.9182 13.9823 20.9445 14.0688C21.6264 16.3364 18.9184 15.7652 18.9298 15.4958C18.9154 15.0005 18.9149 15.1425 18.7309 14.6684C18.6802 14.537 18.624 14.4029 18.553 14.2841C18.4115 14.0471 18.2759 13.8351 18.086 13.6363L17.8806 13.4356C17.3205 12.9172 16.4935 12.6571 15.7106 12.8043C15.4037 12.8618 15.1744 12.9449 14.9284 13.077C14.8096 13.1404 14.7057 13.2104 14.6 13.2844L14.1067 13.7525C14.0178 13.8457 13.9431 13.9664 13.8709 14.0754C13.8494 14.1078 13.8333 14.1322 13.8124 14.1659C13.3138 14.9695 13.2146 16.1191 13.5311 16.9643C13.5592 17.0397 13.5711 17.0905 13.6046 17.1605C13.6207 17.1941 13.6285 17.2193 13.6446 17.2549C13.7312 17.4405 13.8267 17.6353 13.9521 17.7917C13.9784 17.8248 13.9826 17.8407 14.0065 17.8723C14.1282 18.0361 14.2674 18.176 14.4155 18.3095C14.6203 18.4944 14.8633 18.6502 15.1218 18.7631C15.3667 18.5947 15.6539 18.5062 15.9566 18.5208C16.3681 18.5406 16.7843 18.7255 17.0572 19.0662C17.2309 19.2828 17.2399 19.3224 17.3516 19.5786C17.499 19.916 17.4823 20.4258 17.3688 20.7804C17.3109 20.962 17.2214 21.131 17.1151 21.2843C16.9342 21.5444 16.7753 21.6448 16.5114 21.7861C16.1388 21.9848 15.6055 21.9188 15.2538 21.7372C15.1899 21.7042 15.135 21.6666 15.0735 21.6243L14.9081 21.489C14.8406 21.4203 14.7552 21.3285 14.6842 21.2255C14.4387 21.1436 14.1975 21.0413 13.9592 20.9178C13.9229 20.8986 13.8888 20.8828 13.8565 20.8623C13.6255 20.7157 13.3866 20.579 13.1764 20.4014C13.0027 20.2548 12.8235 20.1115 12.6712 19.9358C12.6522 19.9141 12.6498 19.9147 12.6319 19.8969C12.6157 19.8804 12.6109 19.8718 12.5954 19.8547L12.0335 19.121C11.7075 18.6112 11.4478 18.0368 11.2925 17.4332C11.1468 16.8647 11.0686 16.2842 11.1002 15.6873L11.0996 15.6886Z" fill="#02332A"/>
<path fill-rule="evenodd" clip-rule="evenodd" d="M20.8647 20.5763L20.8635 20.6027C20.8336 21.1488 20.7799 21.5246 20.6432 22.0496C20.5548 22.3916 20.4169 22.7198 20.267 23.0281C20.1064 23.3583 19.9195 23.6614 19.705 23.9519C19.6919 23.9704 19.686 23.981 19.6722 23.9988C19.3068 24.4776 18.8673 24.8857 18.3753 25.2032C18.0833 25.3921 17.7746 25.5598 17.4527 25.6781C16.5528 26.0088 15.7676 26.0591 14.8241 25.8795C14.5554 25.8279 14.3244 25.7447 14.0706 25.647C13.883 25.575 13.6926 25.4892 13.5218 25.3815L13.3134 25.2621C13.2799 25.2403 13.2567 25.2191 13.2208 25.1966C13.1516 25.1531 13.0901 25.1121 13.025 25.0653C12.764 24.8771 12.3879 24.5548 12.1687 24.2854C12.0744 24.1691 11.9699 24.0523 11.8827 23.9288L11.7884 23.7868C11.6844 23.6423 11.5913 23.4864 11.5041 23.3286C11.3512 23.0513 11.193 22.7356 11.0992 22.4292C11.0742 22.3473 11.0461 22.2807 11.0198 22.1941C10.3379 19.9266 13.0459 20.4978 13.0346 20.7671C13.0495 21.2624 13.05 21.1204 13.2334 21.5945C13.2842 21.7259 13.3403 21.86 13.4113 21.9788C13.5529 22.2159 13.6884 22.4279 13.8783 22.6267L14.0837 22.8274C14.6438 23.3457 15.4702 23.6052 16.2536 23.4587C16.5606 23.4012 16.7899 23.318 17.0359 23.1859C17.1547 23.1226 17.2586 23.0526 17.3649 22.9786L17.8582 22.5104C17.9471 22.4173 18.0218 22.2965 18.094 22.1875C18.1155 22.1545 18.1316 22.1307 18.1525 22.0964C18.6511 21.2935 18.7503 20.1438 18.4338 19.2986C18.4057 19.2233 18.3938 19.1724 18.3603 19.1025C18.3436 19.0682 18.3364 19.0437 18.3203 19.008C18.2337 18.8225 18.1382 18.6277 18.0128 18.4712C17.9866 18.4382 17.9823 18.4224 17.9584 18.3906C17.8367 18.2269 17.6975 18.0869 17.5494 17.9535C17.3446 17.7686 17.1016 17.6128 16.8431 17.4999C16.5982 17.6683 16.311 17.7567 16.0083 17.7422C15.5968 17.7224 15.1806 17.5375 14.9077 17.1968C14.7339 16.9802 14.725 16.9405 14.6127 16.6844C14.4659 16.3469 14.4826 15.8372 14.5954 15.4826C14.6533 15.3003 14.7429 15.1319 14.8492 14.9787C15.0301 14.7185 15.189 14.6182 15.4529 14.4769C15.8255 14.2781 16.3588 14.3441 16.7104 14.5257C16.7744 14.5587 16.8293 14.5964 16.8908 14.6387L17.0562 14.7746C17.1237 14.8434 17.209 14.9345 17.2801 15.0382C17.5261 15.12 17.7668 15.2224 18.005 15.3465C18.0415 15.3656 18.0755 15.3815 18.1077 15.402C18.3389 15.5486 18.5777 15.6853 18.7879 15.8629C18.9616 16.0095 19.1408 16.1528 19.293 16.3284C19.3122 16.3502 19.3145 16.3495 19.3325 16.3674C19.3486 16.3839 19.3534 16.3931 19.3689 16.4097L19.9308 17.1433C20.2568 17.6537 20.5166 18.2276 20.6718 18.8311C20.8181 19.3996 20.8963 19.9794 20.8647 20.5763Z" fill="#FF6842"/>
<path fill-rule="evenodd" clip-rule="evenodd" d="M6.2655 18.2001L6.3073 17.135C6.32043 17.0326 6.32341 16.9442 6.33598 16.8418C6.36048 16.645 6.38076 16.466 6.4118 16.2759C6.46256 15.9642 6.52525 15.6664 6.59753 15.3653H4.95124C4.84972 15.8381 4.77208 16.3677 4.72849 16.8682C4.69744 17.2235 4.67236 17.5933 4.67236 17.9492L4.69148 18.8611C4.69805 19.1543 4.72551 19.4415 4.76134 19.7274C4.90584 20.8658 5.15127 21.9581 5.57284 22.9928L5.73407 23.391C5.75317 23.4325 5.77228 23.4748 5.79138 23.5164L6.02188 24.0163C6.09533 24.1807 6.18729 24.3379 6.2721 24.495C6.29536 24.5386 6.3139 24.569 6.33716 24.6112L6.82202 25.4063L7.11878 25.8335C7.14391 25.8685 7.16953 25.9035 7.19466 25.9385L7.75652 26.6384C7.81748 26.7058 7.87122 26.7653 7.93212 26.8326C7.99121 26.8979 8.04377 26.9561 8.10286 27.0214C8.23839 27.172 8.39906 27.3371 8.54952 27.4711C8.58056 27.4988 8.61459 27.5266 8.64326 27.5563C8.94182 27.8633 9.48223 28.2628 9.82918 28.5204C10.0024 28.6485 10.185 28.7535 10.3642 28.8723C10.3994 28.8961 10.4353 28.9199 10.4729 28.941C10.5171 28.9655 10.5416 28.984 10.5834 29.0071L10.8079 29.1365C11.233 29.3722 11.6821 29.5915 12.1341 29.7565C12.9557 30.0576 13.7786 30.2808 14.6564 30.3746C14.9131 30.4023 15.1848 30.4274 15.4428 30.4367H16.1569C16.4077 30.4301 17.0407 30.3693 17.2414 30.3376C17.6462 30.2749 18.0361 30.2029 18.4022 30.1005C18.7622 30.0002 19.1062 29.8872 19.4585 29.7585C19.8741 29.6066 20.2778 29.4118 20.6683 29.1986C20.7071 29.1774 20.7441 29.1622 20.7853 29.1391L21.3388 28.8076C21.4153 28.7601 21.478 28.7165 21.5532 28.667C21.5926 28.6412 21.6201 28.6208 21.6583 28.595C22.1282 28.2747 22.4346 28.0126 22.8585 27.6468L23.0884 27.4295C23.1093 27.4104 23.1147 27.4097 23.1356 27.3873C23.1529 27.3688 23.1607 27.3569 23.1792 27.341C23.4144 27.133 23.624 26.8788 23.8372 26.6431C23.8975 26.5764 23.9423 26.5156 24.0032 26.4489L24.4756 25.8388C24.7759 25.4155 24.9312 25.1653 25.1927 24.7341L25.4501 24.2639C25.4704 24.2223 25.4901 24.182 25.5116 24.1431C25.8 23.6155 26.1284 22.7432 26.3111 22.1859C26.4324 21.8147 26.5309 21.4152 26.6228 21.0105C26.7369 20.5106 26.8229 19.9361 26.8706 19.3966C26.9047 19.0083 26.9214 18.6663 26.9268 18.309V17.7366C26.9214 17.4592 26.8658 16.7619 26.8378 16.5374C27.1173 16.2422 27.2916 15.8255 27.2916 15.3647C27.2916 14.4692 26.6348 13.7429 25.8251 13.7429C25.0147 13.7429 24.3585 14.4692 24.3585 15.3647C24.3585 16.0415 24.7335 16.6219 25.2662 16.8649C25.2757 16.9541 25.2787 17.0346 25.2907 17.1264C25.3259 17.4037 25.3336 17.9413 25.3336 18.2001C25.3336 18.422 25.3199 18.6181 25.3151 18.8294C25.3056 19.2315 25.1742 20.1428 25.0852 20.5364C24.9533 21.1234 24.7944 21.7051 24.5753 22.2578C24.5443 22.3364 24.5179 22.413 24.4833 22.4915L24.189 23.1413C24.0522 23.4226 23.9047 23.6947 23.7441 23.9602C23.731 23.982 23.7274 23.9892 23.7148 24.0117C23.7005 24.0374 23.6969 24.0394 23.6832 24.0605L23.4987 24.3491C23.341 24.5802 23.1858 24.8206 23.0072 25.0325C22.9003 25.16 22.8006 25.2927 22.6895 25.4155L22.5803 25.5463C22.5671 25.5635 22.557 25.5734 22.5426 25.5885L22.391 25.7457C22.2697 25.8797 22.1438 26.0138 22.0082 26.13C21.9885 26.1472 21.9856 26.1531 21.9682 26.1703C21.9503 26.1881 21.9449 26.1894 21.9264 26.2073C21.6613 26.4628 21.3735 26.6919 21.0809 26.9078C21.0199 26.9521 20.9632 26.9983 20.9041 27.0373C20.8421 27.0782 20.7859 27.1191 20.7226 27.1614C20.6892 27.1839 20.6611 27.2004 20.6265 27.2228C20.3434 27.4097 20.0431 27.5669 19.7481 27.7293C19.3964 27.9228 18.8213 28.1427 18.4541 28.2595C17.9639 28.4154 17.4844 28.5151 16.9732 28.5937C16.5612 28.6571 16.1546 28.6729 15.7366 28.6729C14.559 28.6729 13.3654 28.4147 12.2744 27.93C11.8594 27.7452 11.4641 27.5233 11.0718 27.2888L10.5278 26.9158C10.2221 26.6906 9.82439 26.3757 9.55749 26.1016C9.44223 25.9828 9.32218 25.8731 9.21115 25.7503L8.98841 25.504C8.96453 25.4743 8.93884 25.4492 8.91259 25.4201C8.82719 25.3257 8.70179 25.1864 8.62951 25.0827C8.60389 25.0464 8.59014 25.0338 8.56445 24.9969C8.45697 24.8437 8.33816 24.7023 8.23249 24.5459C8.06349 24.2962 7.88851 24.0433 7.74402 23.7753L7.07343 22.3879C6.82444 21.7996 6.65781 21.1723 6.51449 20.5416C6.43034 20.1732 6.38437 19.8133 6.33598 19.4283L6.28342 18.8366C6.27328 18.6234 6.26432 18.4193 6.26432 18.1968L6.2655 18.2001ZM7.33499 9.98628C7.37318 9.98628 7.41081 9.98759 7.44844 9.99089C7.47289 9.96117 7.49503 9.93538 7.51469 9.91364C7.54815 9.87733 7.5619 9.85023 7.5953 9.81391C7.65619 9.74788 7.70098 9.68645 7.76131 9.6198L8.10765 9.23681C8.2211 9.11066 8.34768 8.9984 8.46294 8.87493L8.6009 8.74486C8.86482 8.49985 9.13533 8.26282 9.41897 8.04553L9.83453 7.73917C10.0071 7.61171 10.1916 7.50537 10.3696 7.3872C10.4789 7.31456 10.5941 7.25909 10.7028 7.1891C10.9016 7.06166 11.1942 6.92761 11.405 6.82262C12.3252 6.36435 13.3594 6.07776 14.3578 5.92522C14.5603 5.89419 15.1914 5.83278 15.4428 5.82617H15.9599C16.283 5.83211 16.5922 5.8506 16.9434 5.88824C17.4312 5.94041 17.9513 6.03616 18.4028 6.16163C18.8488 6.28577 19.2895 6.42906 19.7153 6.60801C19.8036 6.64499 19.8759 6.6747 19.9618 6.71299C20.2377 6.83449 20.639 7.02929 20.9029 7.19239C21.0128 7.26041 21.1275 7.31786 21.2362 7.3905L21.6648 7.67114C21.7019 7.69556 21.7341 7.71537 21.7706 7.74309C21.9438 7.87123 22.1175 7.98878 22.2847 8.12876L22.5791 8.36978C22.757 8.51836 22.9218 8.68344 23.095 8.83731L23.2317 8.96937C23.2646 9.00631 23.289 9.0222 23.3219 9.05852C23.3816 9.12586 23.4371 9.17538 23.4975 9.24204L23.8438 9.62503C23.9041 9.69175 23.9489 9.75248 24.0098 9.8192L24.4057 10.325C24.6326 10.6466 24.8583 10.9662 25.0638 11.3069C25.1115 11.3862 25.1503 11.4561 25.1987 11.5354L25.2375 11.608H23.2915C23.2741 11.5836 23.2563 11.5592 23.2371 11.5334L22.8979 11.091C22.8758 11.0586 22.8561 11.0395 22.8292 11.0098C22.7988 10.9768 22.7887 10.9537 22.7582 10.9206L22.4638 10.5957C22.2943 10.4102 22.2059 10.329 22.0417 10.1606L21.9604 10.0833C21.4774 9.65213 21.1579 9.39199 20.6169 9.03142C20.584 9.00961 20.5584 8.9918 20.5273 8.97329C19.8926 8.59361 19.3665 8.31757 18.6679 8.07263C18.2768 7.93527 17.885 7.83161 17.4802 7.75107C17.3076 7.71667 17.1464 7.69356 16.9685 7.66715C16.8753 7.65332 16.7953 7.65002 16.7027 7.63551C16.6633 7.62952 16.5976 7.6223 16.5648 7.62093C16.0387 7.59321 15.69 7.58069 15.1615 7.6104C15.1216 7.61302 15.1305 7.61762 15.0947 7.62031C15.0702 7.6223 15.0463 7.61962 15.0206 7.62292L14.6265 7.66914C14.4474 7.69686 14.2706 7.71936 14.107 7.75499C13.7816 7.82501 13.4627 7.90487 13.148 8.00461C12.7635 8.12677 12.2189 8.33346 11.8528 8.53287L10.8778 9.10144C10.5738 9.30415 10.2836 9.53127 9.99993 9.76638L9.36162 10.3607C9.33176 10.3943 9.31086 10.4056 9.28101 10.4392L9.13409 10.6017C9.10423 10.6307 9.08812 10.6419 9.05826 10.6749L8.91141 10.848C8.84572 10.9206 8.78421 10.9966 8.72213 11.0731C8.77525 11.2409 8.80393 11.4211 8.80393 11.6087C8.80393 12.5041 8.14708 13.2304 7.33735 13.2304C6.52706 13.2304 5.87081 12.5041 5.87081 11.6087C5.87081 10.7126 6.52768 9.9869 7.33735 9.9869L7.33499 9.98628Z" fill="#022738"/>
<path fill-rule="evenodd" clip-rule="evenodd" d="M2.67974 18.201L2.73766 16.7245C2.75617 16.5799 2.75975 16.4551 2.77766 16.3098C2.8117 16.0311 2.84096 15.7796 2.88455 15.5108C2.96815 14.9971 3.07504 14.5084 3.19984 14.0099C3.51273 12.7612 4.00596 11.5772 4.59771 10.4645C4.75058 10.1767 4.91718 9.89274 5.09513 9.62331C5.371 9.204 5.6415 8.76949 5.96096 8.3898C6.11204 8.21021 6.25237 8.0227 6.40943 7.84964L6.61662 7.60532C6.65898 7.55848 6.68112 7.54328 6.72348 7.50166L6.93067 7.27188C6.97309 7.225 7.00233 7.20849 7.04475 7.1616L7.94579 6.32233C8.34649 5.99084 8.75614 5.67058 9.18545 5.38466L10.5613 4.58236C11.0778 4.29974 11.8463 4.00853 12.3891 3.83619C12.8333 3.69488 13.2836 3.58196 13.7427 3.48357C13.9744 3.43404 14.224 3.40169 14.4766 3.36273L15.0332 3.29736C15.0684 3.29339 15.1024 3.29736 15.1377 3.29472C15.1878 3.29009 15.1758 3.28349 15.232 3.28085C15.9772 3.23859 16.4698 3.25642 17.2127 3.29538C17.2593 3.29802 17.3524 3.30792 17.4079 3.31651C17.5387 3.33698 17.6516 3.34094 17.7829 3.36075C18.0343 3.39839 18.2618 3.43074 18.5055 3.47895C19.0769 3.59318 19.6304 3.73978 20.1822 3.93325C21.1675 4.27927 21.9115 4.6682 22.8066 5.20373C22.8508 5.23014 22.8866 5.25523 22.9326 5.28627C23.6969 5.79472 24.1477 6.16187 24.8291 6.77003L24.9443 6.87964C25.1754 7.11736 25.3002 7.23226 25.5396 7.49375L25.9546 7.95199C25.9971 7.9989 26.0119 8.03123 26.055 8.07814C26.0932 8.12038 26.1207 8.14679 26.1523 8.19301L26.6312 8.81771C26.6963 8.90555 26.7512 8.98149 26.8139 9.07455C26.8462 9.12215 26.8724 9.15647 26.9023 9.1994C26.9339 9.24493 26.9584 9.28785 26.9918 9.33738C27.0569 9.43251 27.1089 9.51966 27.1698 9.6141L27.8207 10.7439C27.9216 10.9493 28.0147 11.1276 28.1108 11.3409L28.45 12.1207C28.4751 12.1801 28.4906 12.225 28.5139 12.2871C28.5569 12.4007 28.5945 12.4951 28.6363 12.6106C28.7182 12.8365 28.7946 13.0563 28.8645 13.2908C28.9349 13.5265 29.0012 13.7431 29.0645 13.9868C29.1929 14.4813 29.2926 14.9786 29.3815 15.4864C29.4263 15.7426 29.4556 16.0186 29.4908 16.2979C29.5087 16.4425 29.5124 16.5667 29.5308 16.7126C29.581 17.1035 29.5917 17.8629 29.5917 18.2281C29.5917 18.5411 29.5726 18.8177 29.5655 19.1162C29.5643 19.1677 29.5619 19.2252 29.5577 19.2865H31.8077C31.8256 18.9795 31.8357 18.6843 31.8405 18.3813V17.5737C31.8328 17.1821 31.754 16.1969 31.7146 15.8812C31.5151 14.2839 31.1604 12.7242 30.5693 11.2721C30.4343 10.9407 30.2653 10.489 30.1011 10.1767C30.0121 10.007 29.9417 9.82671 29.8491 9.65633L29.3995 8.82101C29.332 8.70944 29.277 8.6104 29.209 8.49814C28.9194 8.01802 28.6005 7.56707 28.2805 7.11274L27.7221 6.39826C27.6361 6.30384 27.5729 6.21865 27.4875 6.12489L26.999 5.58474C26.9137 5.49031 26.836 5.42032 26.7512 5.32589C26.7046 5.27438 26.6706 5.25193 26.6241 5.19977L26.4312 5.01355C26.1875 4.7963 25.954 4.56321 25.7032 4.35388L25.2882 4.01381C25.053 3.81704 24.807 3.65063 24.5627 3.4697C24.5114 3.4314 24.4654 3.40301 24.4134 3.36801L23.808 2.97181C23.6545 2.86946 23.4927 2.78824 23.338 2.69249C22.9654 2.46204 22.3993 2.18734 22.01 2.01566C21.8882 1.96217 21.7867 1.91991 21.6618 1.86774C21.0606 1.61484 20.439 1.41278 19.8096 1.23779C19.1718 1.06016 18.4386 0.925454 17.7495 0.851497C17.2539 0.79801 16.8174 0.772256 16.3611 0.763672H15.6308C15.2768 0.772916 14.3859 0.859419 14.1004 0.903001C12.6918 1.11827 11.2312 1.52305 9.93249 2.16951C9.63511 2.31743 9.2219 2.50694 8.94181 2.68655C8.78836 2.7856 8.62533 2.86286 8.47133 2.96587C8.22053 3.13359 7.95954 3.28283 7.71589 3.4631L7.13015 3.89495C6.72945 4.20201 6.34791 4.53613 5.97529 4.88215L5.78003 5.06572C5.61761 5.24071 5.43907 5.39919 5.27844 5.57681L4.78999 6.11696C4.7046 6.21139 4.6413 6.29723 4.55591 6.39034C4.50934 6.44185 4.48904 6.47948 4.44187 6.53099C4.15763 6.84068 3.45302 7.86752 3.26194 8.1719C3.19267 8.28216 3.13117 8.38121 3.06668 8.48885L2.69287 9.14058C2.54419 9.416 2.38475 9.70056 2.25517 9.9878L2.09037 10.3385C2.0629 10.3999 2.04379 10.4546 2.01513 10.5214C1.98706 10.5861 1.96378 10.6343 1.93452 10.699C1.68492 11.247 1.48786 11.8314 1.29917 12.4092C1.12839 12.9329 0.989265 13.4975 0.859091 14.0686C0.698464 14.7739 0.576645 15.5841 0.509766 16.3462C0.465579 16.8473 0.430344 17.3697 0.430344 17.8721L0.43931 18.2815C0.24166 18.5583 0.124023 18.9069 0.124023 19.2865C0.124023 20.1827 0.780867 20.9083 1.59057 20.9083C2.40028 20.9083 3.05711 20.182 3.05711 19.2865C3.05711 18.8692 2.91381 18.4882 2.67974 18.201ZM29.6849 22.4581C30.4946 22.4581 31.1515 23.1845 31.1515 24.0799C31.1515 24.7098 30.8266 25.2559 30.3525 25.5247C30.1853 25.9268 30.0097 26.3125 29.8438 26.6162C29.8133 26.6717 29.7864 26.7285 29.7572 26.7873L29.3941 27.4509C29.0245 28.0597 28.8059 28.413 28.382 29.0099L27.7156 29.871C27.6302 29.9641 27.5663 30.0506 27.4809 30.145C27.1799 30.4778 26.885 30.8371 26.5518 31.1309C26.5261 31.1534 26.5148 31.1706 26.4903 31.1963C26.461 31.228 26.4532 31.2286 26.424 31.2557L26.0991 31.5621C25.5002 32.0778 25.0685 32.4489 24.4051 32.8999C24.3507 32.9369 24.3119 32.9653 24.2564 33.0016C24.1507 33.0716 24.0617 33.1323 23.9536 33.1997L23.1726 33.6679C23.1141 33.7002 23.0621 33.722 23.0072 33.7518C22.4555 34.0522 21.8858 34.3275 21.2994 34.5415C20.8032 34.7231 20.3171 34.8829 19.809 35.0242C19.2919 35.1682 18.7419 35.2698 18.1704 35.3583C17.8868 35.4026 16.9941 35.4891 16.6401 35.4976H15.6315C15.2678 35.4851 14.8832 35.4488 14.5214 35.4105C13.2829 35.2778 12.1215 34.9628 10.9607 34.5375C10.3224 34.3038 9.68885 33.9954 9.08873 33.6626L8.77163 33.4803C8.71192 33.4473 8.67727 33.4209 8.61582 33.3866C8.56264 33.3569 8.5125 33.3232 8.46231 33.2902C8.21033 33.1211 7.95176 32.9746 7.70756 32.793C7.21791 32.4291 6.45477 31.8645 6.03381 31.432C5.9932 31.3904 5.94484 31.3508 5.90125 31.3125C5.68867 31.123 5.46235 30.8892 5.27068 30.6779C5.18708 30.5855 5.11363 30.5042 5.02944 30.4112C4.94345 30.316 4.86762 30.2322 4.78163 30.1371L3.98864 29.1493C3.95341 29.0997 3.91698 29.0509 3.88175 29.0014L3.46317 28.3985L2.77886 27.2759C2.74542 27.2158 2.71974 27.1729 2.6863 27.1115C2.56687 26.8902 2.4373 26.6677 2.3334 26.436L2.00797 25.7301C1.98169 25.6706 1.95422 25.6119 1.92735 25.5525L1.69984 24.9905C1.57743 24.69 1.46577 24.3863 1.36367 24.0792H3.79278L3.81905 24.1413L4.76551 26.0992C4.96973 26.4775 5.21694 26.8341 5.4546 27.1868C5.60388 27.4073 5.77106 27.6067 5.92333 27.8227C5.95976 27.8741 5.97887 27.892 6.0153 27.9435C6.1174 28.0894 6.29355 28.2862 6.41478 28.4196C6.45178 28.4605 6.48761 28.4955 6.52164 28.5385L6.83637 28.8858C6.99281 29.0588 7.16237 29.2146 7.32484 29.3817C7.70159 29.7687 8.26351 30.2131 8.69463 30.5307L9.4625 31.0576C10.0161 31.3885 10.575 31.7021 11.1601 31.9623C12.6996 32.647 14.3846 33.0109 16.0465 33.0109C16.6364 33.0109 17.2102 32.9884 17.7924 32.8992C18.5126 32.7884 19.1897 32.6477 19.8818 32.4278C20.3995 32.2634 21.2116 31.9524 21.7079 31.6796C22.1246 31.4505 22.5486 31.2286 22.9481 30.9645C22.9971 30.9321 23.0365 30.9097 23.0836 30.878C23.1732 30.8186 23.252 30.7605 23.3398 30.7023C23.4228 30.6475 23.504 30.5829 23.5894 30.5194C24.0026 30.215 24.4086 29.8914 24.7831 29.5303C24.8093 29.5051 24.8171 29.5032 24.8428 29.4774C24.8667 29.4537 24.8709 29.4451 24.8989 29.4213C25.0894 29.2575 25.2679 29.068 25.4387 28.8785L25.6531 28.6566C25.6728 28.6349 25.6877 28.6203 25.7062 28.5966L25.8609 28.4123C26.0173 28.2393 26.1582 28.0518 26.3093 27.8722C26.5607 27.5731 26.7799 27.2336 27.0026 26.9074L27.2624 26.4993C27.2821 26.469 27.2868 26.4663 27.3065 26.43C27.3244 26.3983 27.3286 26.3884 27.3478 26.3574C27.574 25.9823 27.783 25.5993 27.9759 25.2018L28.2769 24.5369C28.238 24.3916 28.2171 24.2377 28.2171 24.0786C28.2171 23.1825 28.874 22.4568 29.6837 22.4568L29.6849 22.4581Z" fill="#022738"/>
<path d="M16.3914 29.3701C16.3914 29.2035 16.2081 29.0684 15.982 29.0684C15.756 29.0684 15.5728 29.2035 15.5728 29.3701V33.062C15.5728 33.2286 15.756 33.3637 15.982 33.3637C16.2081 33.3637 16.3914 33.2286 16.3914 33.062V29.3701Z" fill="#FF6842"/>
<path d="M16.3914 2.78029C16.3914 2.61362 16.2081 2.47852 15.982 2.47852C15.756 2.47852 15.5728 2.61362 15.5728 2.78029V6.47219C15.5728 6.63885 15.756 6.77396 15.982 6.77396C16.2081 6.77396 16.3914 6.63885 16.3914 6.47219V2.78029Z" fill="#FF6842"/>
<path d="M35.708 10.5281C35.708 6.88042 37.3543 5.06055 40.6463 5.06055C43.9466 5.06055 45.5965 6.88042 45.5965 10.5281V14.1242H41.7803V10.5281C41.7803 9.58182 41.4046 9.1057 40.6576 9.09717H40.6343C39.8951 9.09717 39.5243 9.57261 39.5243 10.5281V12.7844C39.5243 13.8132 40.5018 15.1055 42.4568 16.6573C44.5485 18.3041 45.5965 20.2792 45.5965 22.5824V25.7249C45.5965 29.3772 43.9502 31.205 40.6582 31.205C37.3585 31.1964 35.708 29.3726 35.708 25.7249V22.1288H39.5243V25.7249C39.5243 26.6758 39.9035 27.1558 40.6582 27.1558C41.4052 27.1558 41.7808 26.6758 41.7808 25.7249V22.8895C41.7808 21.7656 40.8033 20.4257 38.8483 18.874C36.7566 17.2271 35.7086 15.2217 35.7086 12.8577L35.708 10.5281Z" fill="#FF6842"/>
<path d="M57.3151 5.44922V9.49043H54.2769V30.8019H50.4642V9.49043H47.4302V5.44922H57.3151Z" fill="#FF6842"/>
<path d="M68.4036 21.7085L69.4903 30.8019H65.6432L65.0093 25.5331H62.2059L61.5646 30.8019H57.7251L58.816 21.7474L61.1389 5.44922H66.0891L68.4036 21.7085ZM64.5167 21.4794L63.6023 13.8077L62.6874 21.4794H64.5167Z" fill="#FF6842"/>
<path d="M77.8969 18.1255L82.2722 30.8019H78.1943L75.2497 20.6969V30.8019H71.438V5.44922H75.2497V15.5153L78.1943 5.44922H82.2722L77.8969 18.1255Z" fill="#FF6842"/>
<path d="M84.2227 5.44922H93.2045V9.49043H88.035V16.0983H92.4811V20.1528H88.035V26.7607H93.2045V30.8019H84.2227V5.44922Z" fill="#FF6842"/>
<path d="M95.6085 5.44922H100.613C103.683 5.4578 105.219 7.2856 105.219 10.9339V14.6681C105.219 17.3437 104.124 19.0811 101.931 19.8721C101.403 20.0577 100.648 20.1528 99.6628 20.1528H99.4202V30.8026H95.6079V5.44988L95.6085 5.44922ZM99.4208 9.49043V16.0983H99.8817C100.293 16.0983 100.558 16.0726 100.684 16.0251C101.165 15.8131 101.403 15.3595 101.403 14.6674V10.9332C101.403 9.96917 101.032 9.48981 100.281 9.48981L99.4208 9.49043Z" fill="#FF6842"/>
<path d="M107.624 5.44922H112.628C115.698 5.4578 117.234 7.2856 117.234 10.9339V14.6681C117.234 16.9634 116.401 18.4498 114.736 19.124L118.415 30.8019H114.254L111.642 19.8972H111.435V30.8019H107.623V5.44922H107.624ZM111.436 9.49043V16.0983H111.898C112.309 16.0983 112.574 16.0726 112.699 16.0251C113.18 15.8131 113.418 15.3594 113.418 14.6674V10.9332C113.418 9.96917 113.047 9.48981 112.296 9.48981L111.436 9.49043Z" fill="#FF6842"/>
<path d="M129.907 25.7243C129.907 29.3719 128.257 31.1957 124.957 31.2043C121.665 31.2043 120.019 29.3759 120.019 25.7243V10.5281C120.019 6.88042 121.665 5.06055 124.957 5.06055C128.257 5.06055 129.907 6.88042 129.907 10.5281V25.7243ZM126.091 10.5281C126.091 9.58182 125.716 9.1057 124.969 9.09717H124.945C124.207 9.09717 123.835 9.57261 123.835 10.5281V25.7243C123.835 26.6751 124.21 27.1552 124.957 27.1552C125.712 27.1552 126.091 26.6751 126.091 25.7243V10.5281Z" fill="#FF6842"/>
</g>
<defs>
<clipPath id="clip0_1509_9321">
<rect width="130" height="35.08" fill="white" transform="translate(0 0.460938)"/>
</clipPath>
</defs>
</svg>
