<svg width="41" height="40" viewBox="0 0 41 40" fill="none" xmlns="http://www.w3.org/2000/svg">
<path d="M11.6166 23.334H7.16659C5.33325 23.334 3.83325 24.834 3.83325 26.6673V35.0007C3.83325 35.9173 4.58325 36.6673 5.49992 36.6673H11.6166C12.5333 36.6673 13.2833 35.9173 13.2833 35.0007V25.0007C13.2833 24.084 12.5333 23.334 11.6166 23.334Z" fill="#31FFDA"/>
<path d="M22.7167 16.666H18.2667C16.4333 16.666 14.9333 18.166 14.9333 19.9993V34.9994C14.9333 35.916 15.6833 36.666 16.6 36.666H24.3833C25.3 36.666 26.05 35.916 26.05 34.9994V19.9993C26.05 18.166 24.5667 16.666 22.7167 16.666Z" fill="#31FFDA"/>
<path d="M33.8332 28.334H29.3832C28.4666 28.334 27.7166 29.084 27.7166 30.0007V35.0007C27.7166 35.9173 28.4666 36.6673 29.3832 36.6673H35.4999C36.4166 36.6673 37.1666 35.9173 37.1666 35.0007V31.6673C37.1666 29.834 35.6666 28.334 33.8332 28.334Z" fill="#31FFDA"/>
<path d="M25.5167 8.08346C26.0334 7.5668 26.2334 6.95013 26.0667 6.4168C25.9001 5.88346 25.3834 5.50013 24.6501 5.38346L23.0501 5.1168C22.9834 5.1168 22.8334 5.00013 22.8001 4.93346L21.9167 3.1668C21.2501 1.8168 19.7334 1.8168 19.0667 3.1668L18.1834 4.93346C18.1667 5.00013 18.0167 5.1168 17.9501 5.1168L16.3501 5.38346C15.6167 5.50013 15.1167 5.88346 14.9334 6.4168C14.7667 6.95013 14.9667 7.5668 15.4834 8.08346L16.7167 9.33346C16.7834 9.38346 16.8334 9.58346 16.8167 9.65013L16.4667 11.1835C16.2001 12.3335 16.6334 12.8501 16.9167 13.0501C17.2001 13.2501 17.8167 13.5168 18.8334 12.9168L20.3334 12.0335C20.4001 11.9835 20.6167 11.9835 20.6834 12.0335L22.1667 12.9168C22.6334 13.2001 23.0167 13.2835 23.3167 13.2835C23.6667 13.2835 23.9167 13.1501 24.0667 13.0501C24.3501 12.8501 24.7834 12.3335 24.5167 11.1835L24.1667 9.65013C24.1501 9.5668 24.2001 9.38346 24.2667 9.33346L25.5167 8.08346Z" fill="#31FFDA"/>
</svg>
